<svg id="Capa_1" xmlns="http://www.w3.org/2000/svg" viewBox="0 0 63 66"><style>.st0{fill:#ed8c2b}</style><path class="st0" d="M31.5 59.7c1.2 0 2.3-.5 3-1.3.8-.8 1.3-1.8 1.3-3V26.1c0-1.2-.5-2.3-1.3-3s-1.8-1.3-3-1.3-2.3.5-3 1.3c-.8.8-1.3 1.8-1.3 3v29.3c0 1.2.5 2.3 1.3 3s1.8 1.3 3 1.3zm-1.9-33.6c0-.6.2-1 .6-1.3.4-.4.8-.6 1.3-.6s1 .2 1.3.5c.4.4.6.8.6 1.3v29.4c0 .6-.2 1-.6 1.3-.4.4-.8.6-1.3.6-.6 0-1-.2-1.3-.6-.4-.4-.6-.8-.6-1.3V26.1z"/><path class="st0" d="M60.5 9.8c-.6-.6-1.3-1.3-2-1.7.4-.3.7-.6 1-.8 1.3-1.3 2.1-3.1 2.1-5.1 0-.6-.2-1.1-.6-1.6-.3-.3-.9-.6-1.5-.6H4.3c-.6 0-1.2.3-1.5.7-.3.4-.6.9-.6 1.6 0 2 .8 3.7 2.1 5.1l.6.6c-.9.4-1.7 1.1-2.4 1.9C.9 11.6 0 14 0 16.6c0 2 .7 3.9 1.9 5.2 1.2 1.4 2.9 2.3 4.8 2.3 1.6 0 3.1-.6 4.2-1.7v40.1c0 1 .4 1.8 1.1 2.5.6.6 1.5 1.1 2.5 1.1h34c.9 0 1.8-.4 2.4-.9l.1-.2c.6-.6 1.1-1.5 1.1-2.5V22.3c1.1 1.1 2.6 1.7 4.2 1.7 1.9 0 3.6-.8 4.8-2.3 1.2-1.3 1.9-3.2 1.9-5.2 0-2.6-1-5-2.5-6.7zm-56-7.3h54.7c-.1 1.2-.6 2.3-1.3 3.1-.9.8-2 1.4-3.4 1.4H9.3C8 7 6.8 6.4 5.9 5.6c-.8-.8-1.3-1.9-1.4-3.1zm45.1 60c0 .4-.1.6-.3.8l-.1.1c-.2.2-.4.3-.7.3h-34c-.4 0-.6-.1-.8-.3-.1-.2-.3-.5-.3-.8V17.8h36.2v44.7zm9.6-42.4c-.8.8-1.8 1.4-3 1.4-1.1 0-2.2-.6-3-1.4-.8-.9-1.3-2.2-1.3-3.6 0-.8.3-1.6.8-2.1s1-.8 1.7-.8 1.3.3 1.7.8c.5.5.8 1.3.8 2.1 0 .3-.1.6-.2.7-.1.1-.2.2-.4.2-.1 0-.3-.1-.4-.2-.1-.2-.2-.4-.2-.7 0-.6-.5-1.2-1.2-1.2-.6 0-1.2.5-1.2 1.2 0 .8.4 1.7.8 2.3.6.6 1.3 1.1 2.2 1.1.8 0 1.6-.4 2.2-1.1.5-.6.8-1.4.8-2.3 0-1.4-.6-2.8-1.4-3.7-.9-1-2.2-1.6-3.5-1.6-1.4 0-2.6.6-3.5 1.6-.6.7-1.1 1.6-1.3 2.5H13.1c-.2-1-.6-1.8-1.3-2.5-.9-1-2.2-1.6-3.5-1.6-1.4 0-2.6.6-3.5 1.6s-1.4 2.3-1.4 3.7c0 .8.4 1.7.8 2.3.6.6 1.3 1.1 2.2 1.1s1.6-.4 2.2-1.1c.5-.6.8-1.4.8-2.3 0-.6-.5-1.2-1.2-1.2-.6 0-1.2.5-1.2 1.2 0 .3-.1.6-.2.7-.1.1-.2.2-.4.2s-.3-.1-.4-.2c-.1-.2-.2-.4-.2-.7 0-.8.3-1.6.8-2.1s1.1-.8 1.7-.8c.7 0 1.3.3 1.7.8.5.5.8 1.3.8 2.1 0 1.4-.5 2.7-1.3 3.6-.8.8-1.8 1.4-3 1.4s-2.2-.6-3-1.4c-.8-.9-1.3-2.2-1.3-3.6 0-2 .7-3.8 1.8-5.1 1.1-1.3 2.6-2 4.2-2h46c1.6 0 3.1.8 4.2 2s1.8 3.1 1.8 5.1c.3 1.4-.2 2.7-1 3.6z"/><path class="st0" d="M21.5 59.7c1.2 0 2.3-.5 3-1.3.8-.8 1.3-1.8 1.3-3V26.1c0-1.1-.5-2.2-1.2-3V23c-.8-.8-1.8-1.3-3-1.3s-2.3.5-3 1.3c-.8.8-1.3 1.8-1.3 3v29.3c0 1.2.5 2.3 1.3 3s1.7 1.4 2.9 1.4zm-1.9-33.6c0-.6.2-1 .6-1.3.4-.4.8-.6 1.3-.6s1 .2 1.3.5l.1.1c.3.4.5.8.5 1.3v29.4c0 .6-.2 1-.6 1.3-.4.4-.8.6-1.3.6-.6 0-1-.2-1.3-.6-.4-.4-.6-.8-.6-1.3V26.1zm21.9 33.6c1.2 0 2.3-.5 3-1.3s1.3-1.8 1.3-3V26.1c0-1.2-.5-2.3-1.3-3-.8-.8-1.8-1.3-3-1.3s-2.3.5-3 1.3c-.8.8-1.3 1.8-1.3 3v29.3c0 1.2.5 2.3 1.3 3s1.8 1.3 3 1.3zm-1.9-33.6c0-.6.2-1 .6-1.3s.8-.6 1.3-.6 1 .2 1.3.5c.4.4.6.8.6 1.3v29.4c0 .6-.2 1-.6 1.3-.4.4-.8.6-1.3.6-.6 0-1-.2-1.3-.6-.4-.4-.6-.8-.6-1.3V26.1z"/></svg>