<svg id="Layer_1" xmlns="http://www.w3.org/2000/svg" viewBox="0 0 20 20"><style>.st0{fill:#848484}</style><path class="st0" d="M10 4.8c-2.8 0-5.2 2.3-5.2 5.2s2.3 5.2 5.2 5.2 5.2-2.3 5.2-5.2-2.4-5.2-5.2-5.2zm0 8.5c-1.8 0-3.3-1.5-3.3-3.3S8.2 6.7 10 6.7s3.3 1.5 3.3 3.3-1.5 3.3-3.3 3.3z"/><circle class="st0" cx="15.4" cy="4.7" r="1.2"/><path class="st0" d="M18.4 1.7C17.4.6 15.9 0 14.2 0H5.8C2.3 0 0 2.3 0 5.8v8.3c0 1.7.6 3.2 1.7 4.3 1.1 1 2.5 1.6 4.2 1.6h8.2c1.7 0 3.2-.6 4.2-1.6 1.1-1 1.7-2.5 1.7-4.3V5.8c0-1.6-.6-3.1-1.6-4.1zm-.2 12.5c0 1.2-.4 2.3-1.2 2.9-.7.7-1.7 1-2.9 1H5.9c-1.2 0-2.2-.4-2.9-1-.7-.7-1.1-1.7-1.1-3V5.8c0-1.2.4-2.2 1.1-2.9.7-.7 1.7-1 2.9-1h8.3c1.2 0 2.2.4 2.9 1.1.7.7 1.1 1.7 1.1 2.9v8.3z"/></svg>