<svg xmlns="http://www.w3.org/2000/svg" viewBox="0 0 250 84"><g fill="#fefefe"><path d="M250 60v-2c-4.1-.3-4.5-.6-4.5-5.1V32.4c0-4.5.5-4.8 4.5-5.1v-2h-15.1v2c4.1.3 4.6.6 4.6 5.1V53c0 4.4-.5 4.7-4.6 5.1v2H250zm-39-17.1V30.2c0-1.3.1-1.9.5-2.2.3-.4 1.1-.6 2.5-.6 3.4 0 7 2 7 7.6 0 2.7-.8 4.9-2.8 6.4-1.2 1-2.9 1.4-5.2 1.4h-2zm21.9 15.8c-1.1-.4-2.2-1-3.5-2.4-1.2-1.2-2.2-2.6-4-5.5-1.6-2.4-3.7-6-4.5-7.6 3.8-1.6 6.7-4.3 6.7-9 0-3.3-1.5-5.7-3.7-7.1-2.1-1.4-4.7-1.9-9-1.9h-14.3v2c3.9.3 4.5.6 4.5 5v20.7c0 4.4-.6 4.8-4.7 5.1v2h15.1v-2c-4.1-.3-4.5-.7-4.5-5.1V45h1.5c2.1 0 3 .6 3.8 2.1 1.5 2.7 3.2 5.9 4.8 8.2 2.2 3.4 4.3 4.8 9.8 5h1.8l.2-1.6zm-54.4-31.9c6.2 0 11 6.2 11 16.9 0 9.8-4.4 14.7-9.6 14.7-6.9 0-11.3-7.5-11.3-16.8s4.5-14.8 9.9-14.8zm1-2.2c-11.5 0-17.9 8.9-17.9 18.2 0 10.3 7.3 17.9 17.3 17.9 9.7 0 17.6-6.9 17.6-18.5.1-10.6-7.7-17.6-17-17.6zm-23 25.4c-1.1 3-2 4.6-3.1 5.9-1.5 1.4-4.3 1.7-9.3 1.7-3.3 0-5.5 0-7.3-.3 6.8-10.6 13.6-20.8 20.4-31.2l-.5-.8h-20.9c-1.6 0-2.1-.1-2.9-1.4h-1.5c-.1 2.7-.5 6.4-.7 10.4l2 .1c.6-2.5 1.3-4 2-4.9.9-1.3 1.7-1.9 7.1-1.9h7.3C142.4 38 135.3 48.7 128.4 59l.6 1h27.6c.6-1.9 1.5-7.2 1.9-9.6l-2-.4zm-45.4-4.4h-8.8c1.5-4.1 2.9-8.2 4.4-12.4h.2l4.2 12.4zM125.8 60v-2c-3.5-.4-4.2-.9-5.8-5.5-3.4-9-6.8-19-10.1-28l-2.5.6-10.7 27.6c-1.8 4.5-2.4 4.9-5.9 5.4v2h11.9v-2c-3.8-.5-4.1-1-3.2-3.9.6-2.2 1.3-4.1 1.9-5.8H112c.9 2.4 1.7 4.8 2.3 6.5.7 2.2.4 2.7-2.8 3.1v2h14.3z"/><path d="M23.8 71.5l-.2-1.9 1.1-1.4h2l.6 3.9-1.6.3-1.9-.9zm-7.5 1.7l-.3-1.3 1.7-2.2 1.6.6.4 2.4-3.4.5zm3.9-.4l-.5-2.4 3.5-.6.2 1.7-1.6 1.5-1.6-.2zm-6.7-.9l-.2-1.1 3.3-3.3 1.1.2-.2 1.8-1.8 2.2-2.2.2zm20.7-15.5l-.9-1.1 1-1.8 2.4.2 2-.1-.1 2.4-4.4.4zm-22.8-12H8.3l-1.5-1.2.5-1h3.9l.2 2.2zm-2.9 2.9l1.7.2 2.4-.8-1.2-2H8.3l-.2.7.4 1.9zM8.4 58h2.8l.3-1.4H8.6L8.4 58zm3.5-1.8l4 .7 4.5-3.5.4-4.7-1.7-.2-3.8-.7-3.5 3.5.1 4.9zm3.7-8.8l3.3.6.2-1.6-2.3-.7-1.2 1.7zm3.7.6l1.5.2 1.1-3.7-3.1-.8-1.6 1.7 2.4.7-.3 1.9zm-8.7 19.6l1.3.3 2.2-1.7-.6-1.6-2.4-.4-.5 3.4zm.5-3.9l2.4.5.6-3.5-1.7-.2-1.5 1.6.2 1.6zm9.6-10.5l1.7.2 1.5-3.1-2.8-1.6-.4 4.5zm39.6 18.3l.2-1.9-1.1-1.4h-2l-.6 3.8 1.6.3 1.9-.8zm7.5 1.7l.3-1.3-1.7-2.2-1.6.6-.4 2.4 3.4.5zm-3.9-.4l.5-2.4-3.5-.6-.2 1.7 1.7 1.4 1.5-.1zm6.7-.9l.2-1.1-3.3-3.3-1.1.2.2 1.8 1.8 2.2 2.2.2zM43.7 58l1.5-1.8-.2-2.7-1.6-2h-2.6l-1.6 2-.2 2.6 1.5 1.8h1.7l1.5.1zm29.1-13.6h3.1l1.5-1.2-.5-1H73l-.2 2.2zm2.8 2.9l-1.6.3-2.4-.8 1.2-2h3.1l.2.7-.5 1.8zm-1.4 3.3l-1.6.4-3.3-3.3 1.9-.6 2.5.8.5 2.7zm2.7 4.6l-1.2 1.1h-3.1l.1-4.9 1.6-.4 2.3 1 .3 3.2zM75.8 58H73l-.3-1.4h2.9l.2 1.4zm2.5 1.6l-.4.2-1.7-1.7-.2-1.6 1.2-1 1.6 2.1-.5 2zm-1 2.1l-1.5.6-2.2-.4-1.5-1.7.8-1.8h2.9l1.7 1.7-.2 1.6zm-5-5.5l-4 .7-4.5-3.5-.4-4.7 1.7-.2 3.8-.7 3.5 3.5-.1 4.9zm-3.7-8.8l-3.4.6-.2-1.7 2.3-.7 1.3 1.8zm-3.7.6l-1.5.2-1.1-3.7 3.1-.8 1.6 1.7-2.4.6.3 2zm10 22.9l-2.4-.6-.2-2.2 1.3-.2 1.3.7v2.3zm.1-2.7l-1.2-.6-.4-3.5 2.2.4.1 2.8-.7.9zm.6-4.1l-2.1-.3.2-1.5 1.9.4v1.4zm-2.1 3.5l-1.3.3-2.2-1.8.6-1.6 2.4-.4.5 3.5zm-.4-3.9l-2.4.5-.6-3.5 1.7-.2 1.5 1.6-.2 1.6zm-9.7-10.5l-1.7.2-1.5-3.1 2.8-1.6.4 4.5zM39.7 11.4V8.3l1.2-1.4 1 .5v3.9l-2.2.1zm-13.8-3v2.8l1.4.3V8.6l-1.4-.2zm-2.1 4l-.2 1.9 1.1 1.4h2l.6-3.9-1.6-.3-1.9.9zm3.9-.5l-.7 3.9 3.6 4.5 4.7.4.2-1.7.7-3.7-3.5-3.5-5 .1zm-2.9 4.2l-.2 2 1.7 2.3 2.2 1.9h1.6l.2-1.8-3.6-4.4h-1.9zm-8.5-5.5l-.2 1.4 1.7 2.2 1.6-.6.4-2.4-3.5-.6zm3.9.5l-.5 2.4 3.5.6.2-1.7-1.7-1.4-1.5.1zm-6.7.9l-.2 1.1 3.3 3.3 1.1-.2-.2-1.8-1.8-2.2-2.2-.2zm4.4 2.4l.2 1.8 1.1 1.5 2.7.7 2.2-.5.2-2.1-1-1.5-3.8-.7-1.6.8zm4.4 4.4l2.7 2.4.9-.7-1.6-2-2 .3zm3 2.6l.4 2.2 2 .3.6-1.3-2-1.8-1 .6zm-.1 3l-.1.4 2.8 2.8 1.4-.5-1.5-2.8-2.2-.3-.4.4zm5.5-3.7l-.2 1.7 3.2 1.5 1.6-2.8-4.6-.4zM5.4 41.3l1.1-.4.5 1-.5 1-1.1-.4v-1.2zm6-1.8H8.3l-1.5 1.2.5 1h3.9l.2-2.2zm1.6-2.3l2.1-.6 1.4 1.9 1.9 2c-.2.5-.2.9-.3 1.4.1.5.1.9.3 1.4l-1.9 2-1.4 1.9-2.1-.5-1.3-2.1-.1-2.6.2-2.6 1.2-2.2zM8.4 25.9h2.8l.3 1.4H8.6l-.2-1.4zm4-2.1l1.9-.2 1.4 1.1v2l-3.9.6-.3-1.5.9-2zm-.5 3.9l4-.7 4.5 3.5.4 4.7-1.7.2-3.8.7-3.5-3.5.1-4.9zm3.7 8.8l3.3-.6.2 1.6-2.3.7-1.2-1.7zm3.7-.6l1.5-.2 1.1 3.7-3.1.8-1.6-1.7 2.4-.7-.3-1.9zm-3.2-11.2l2-.2 2.3 1.7 1.9 2.2V30l-1.8.2-4.5-3.6.1-1.9zm-5.5-8.4l1.3-.3 2.2 1.7-.6 1.6-2.4.4-.5-3.4zm.5 3.9l2.4-.5.6 3.5-1.7.2-1.5-1.6.2-1.6zm.9-6.7l1.1-.2 3.3 3.2-.2 1.1-1.8-.2-2.2-1.8-.2-2.1zm2.4 4.4l1.8.2 1.5 1.1.7 2.7-.5 2.2-1.9.2-1.5-1-.7-3.8.6-1.6zm4 .4l-.4.5-1.4-1 .2-1.1 1.1-.2 1 1.3-.5.5zm.4 4l2.4 2.7-.7.9-2-1.6.3-2zm-.2-3.7l.5-.4 2.7.7 3.1 2.6.5 2.3-.4.4-.2.5-.5.2-.4.4-2.3-.5-2.6-3-.7-2.7.3-.5zm2.9 6.6l2.2.4.3 2-1.3.6-1.8-2 .6-1zm2.9-.1l.4-.1 2.8 2.8-.5 1.4-2.8-1.5-.3-2.2.4-.4zm-1.7 3.4l1.4-.6 2.9 1.6 1.5 3.4-1.1 1-3-.4-1.6-3.3-.1-1.7zm-2 2.2l1.7-.2 1.5 3.1-2.8 1.6-.4-4.5zm.5 4.9l3-1.7 3 .4.4 4.3-1.9 1.4-3.4-.6-1.1-3.8zm-2.4 5l3.3-.9 3.5.7v3.1l-3.5.7-3.3-.9-.3-1.3.1-.4c.1-.3.1-.7.2-1zM48.6 6l.3 1.1-1.3 1-1.9-.4V6l1.1-.8 1.8.8zm-5.9-.6l.4 1.1-1 .5-1-.5.4-1.1h1.2zm1.8 6V8.3l-1.2-1.4-1 .5v3.9l2.2.1zm3-2.9l.2 1.7-.8 2.4-2-1.2V8.3l.7-.2 1.9.4zm10.7-.1v2.8l-1.4.3V8.6l1.4-.2zm2.1 4l.2 1.9-1.1 1.4h-2l-.6-3.9 1.6-.3 1.9.9zm-.9 3.7l.2 2-1.7 2.3-2.2 1.9H54l-.2-1.8 3.6-4.4h2zm8.4-5.5l.3 1.3-1.7 2.2-1.6-.6-.4-2.4 3.4-.5zm-3.9.5l.5 2.4-3.5.6-.2-1.7 1.7-1.4 1.5.1zm6.7.9l.2 1.1-3.3 3.3-1.1-.2.2-1.8 1.8-2.2 2.2-.2zm-4.4 2.4l-.2 1.8-1 1.6-2.7.7L60 18l-.2-2 1-1.5 3.8-.7 1.6.6zm-4.4 4.4l-2.7 2.4-.9-.7 1.6-2 2 .3zm-2.9 2.6l-.4 2.2-2 .3-.6-1.3 2-1.8 1 .6zm.1 3l.1.4-2.8 2.8-1.4-.6 1.5-2.8 2.1-.3.5.5zm19.8 16.9l-1.1-.4-.5 1 .5 1 1.1-.4v-1.2zm-6-1.8h3.1l1.5 1.2-.5 1H73l-.2-2.2zm1.4-6.2l-1.6-.4-3.3 3.3 1.9.6 2.5-.8.5-2.7zm-3.1 3.9l-2.1-.6-1.4 1.9-1.9 2c.2.5.2.9.3 1.4-.1.5-.1.9-.3 1.4l1.9 2 1.4 1.9 2.1-.6 1.3-2.1.2-2.6-.2-2.6-1.3-2.1zm5.8-8.5l-1.2-1.1h-3.1l.1 4.9 1.6.4 2.3-1 .3-3.2zm-1.1-2.8H73l-.3 1.4h2.9l.2-1.4zm2.5-1.7l-.4-.2-1.7 1.7-.2 1.7 1.2 1 1.6-2.1-.5-2.1zm-6.5-.4l-1.9-.2-1.4 1.1v2l3.9.6.3-1.5-.9-2zm.5 3.9l-4-.7-4.5 3.5-.4 4.7 1.7.2 3.8.7 3.5-3.5-.1-4.9zm-3.7 8.8l-3.3-.6-.3 1.7 2.3.7 1.3-1.8zm-3.7-.6l-1.5-.2-1.1 3.7 3.1.8 1.6-1.7-2.4-.7.3-1.9zM68 24.7l-2-.2-2.3 1.7-1.9 2.2V30l1.8.2 4.5-3.6-.1-1.9zm6.9-11.8l-2.4.6-.2 2.2 1.3.2 1.3-.7v-2.3zm.1 2.8l-1.2.6-.4 3.5 2.2-.4.1-2.8-.7-.9zm.6 4.1l-2.1.3.2 1.5 1.9-.4v-1.4zm-2.1-3.5l-1.3-.3-2.2 1.8.6 1.6 2.4.4.5-3.5zm-.4 3.9l-2.4-.5-.6 3.5 1.7.2 1.5-1.6-.2-1.6zm-.9-6.7l-1.1-.2-3.3 3.2.2 1.1 1.8-.2 2.2-1.8.2-2.1zm-2.5 4.4l-1.8.2-1.5 1.1-.7 2.7.5 2.2 2.1.2 1.5-1 .7-3.8-.8-1.6zm-3.9.4l.4.5 1.4-1-.2-1.1-1.1-.2-1 1.3.5.5zm-.4 4L63 25l.7.9 2-1.6-.3-2zm.1-3.7l-.5-.4-2.7.7-3.1 2.6-.5 2.3.4.4.2.5.5.2.4.4 2.3-.5 2.6-3 .7-2.7-.3-.5zm-2.8 6.6l-2.2.4-.3 2 1.3.6 1.8-2-.6-1zm-3-.1l-.3-.1-2.8 2.8.5 1.4 2.8-1.5.3-2.1-.5-.5zm1.7 3.4l-1.4-.6-2.9 1.6-1.5 3.4 1.1 1 3-.4 1.6-3.3.1-1.7zm2 2.2l-1.7-.2-1.5 3.1 2.8 1.6.4-4.5zm-.4 4.9l-3-1.7-3 .4-.4 4.3 1.9 1.5 3.4-.6 1.1-3.9zm2.3 5l-3.3-.9-3.5.7v3l3.5.7 3.3-.9c.1-.4.2-.8.2-1.3 0-.4 0-.8-.2-1.3zm18.2 1.3l-1-1.5-3.4.8v1.2l3.4.8.8-1.1.2-.2zM39.7 72.5v3.1l1.2 1.4 1-.5v-3.9l-2.2-.1zm-13.8 3v-2.8l1.4-.3v2.9l-1.4.2zm22.7 2.4l.3-1.1-1.3-1-1.9.4-.1 1.7 1.1.8 1.9-.8zm-5.9.6l.4-1.1-1-.5-1 .5.4 1.1h1.2zm1.8-6v3.1L43.3 77l-1-.5v-3.9l2.2-.1zm3 2.8l.2-1.7-.8-2.4-2 1.2v3.1l.7.2 1.9-.4zm10.7.2v-2.8l-1.4-.3v2.9l1.4.2zm-24.8-1.6l-.4-1.5 3.4-3.3.6 1.9-.8 2.5-2.8.4zm12.3-30.1h-12c2-5.5 4-11.1 6-16.8h.3l5.7 16.8zm20 19.5v-2.7c-4.8-.5-5.7-1.2-7.9-7.4-4.6-12.2-9.3-25.7-13.7-37.9l-3.4.8-14.5 37.2c-2.4 6.1-3.3 6.6-8.1 7.3v2.7h16.2v-2.6c-5.2-.6-5.6-1.5-4.4-5.3.8-2.9 1.7-5.5 2.6-7.8h14.4c1.2 3.2 2.3 6.5 3.2 8.8 1 3 .5 3.7-3.8 4.2v2.7h19.4zm-29-20.8h7l-3.5-10.2c-.2.2-3.5 9.8-3.5 10.2zm1.3-1.6l1.6-4.7.3.2 1.3 2-1.2 1.3-.1.1-.1.1-1.3 1.3-.5-.3zm.4.8h-.6l.2-.5.4.3v.2zm3.1-3l.4 1.3c.2.6.5 1.2.6 1.8h-3.8v-.3l1.4-1.4 1.4-1.4zm-1-2.9c.1.3.2.5.2.7l.2.7-.7-1.1.3-.3zm-.3-1c0 .1.1.4.2.7l-.3.5-.3-.1.1-.2c0-.4.1-.8.3-.9zm-3 27.9v1.7l.7-.1.7 2.4 1.7-1.6-.8-3.1-2.3.7zm-3.1-4.2c.4.1.9.1 1.4.2.5.1 1.2.1 1.7.3v3.4l2.3-.7.6-3.4-1.5-1.9-4.3.4-.2 1.7zm-.9-2.8l-.2.6c-.5 1.5-.7 1.8.8 2.1l.2-1.8-.8-.9zm.7-2.4zm1.2-2.7h-.3l-.7 2.4 1-2.4zm.4 0l-1 2.5 2 .2v-2.5l-1-.2zm5.2 0H37l-.1.1.1 2.6 2-.1 1.6-2 .1-.6zm1.2 0h-.8l-.1.6 1-.1-.1-.5zm1.2 0h-.8v.5l1 .1-.2-.6zm3.2 2.7l-.9-2.6h-1.9l.1.6 1.6 2h1.1zm1 2.8l-.9-2.5h-1l.2 2.3 1.7.2zm-3.2 2.6c.3 0 .7 0 1.6-.1 1.8-.2 2.2-.4 1.8-1.9v-.1l-1.9-.2-1.6 1.8.1.5zm-.1 0zm-.1 4.7v-3.9l-.2-1.1h-3.1l-.7 3.5.9 3.3c.4.1.8.2 1.3.2.4-.1.9-.1 1.3-.2l.5-1.8zm0 1.9v-.4.4zm.6 1h-.6v-.6l-.3-.3c-.5.2-.9.2-1.4.3-.5-.1-.9-.1-1.4-.3l-2 1.9-1.9 1.4.6 2.1 2.1 1.3 2.5.2h.1l2.6-.2 2.1-1.3.6-2.1-1.9-1.4-1.1-1zm1.1 0H45l.5.5.1-.5zm2.3 0H46l-.2.7 1.7 1.2.4-1.9zm7.8 0h-7.4l-.4 2.3 3.5 3.5 5-.1.7-3.9-1.4-1.8zm3.8 0h-3.3l1.2 1.4h2l.1-1.4zm5.6 0h-5.2l-.2 1.6 1 1.5 3.8.7 1.6-.6-.1-1.9-.9-1.3zm2.4 0h-1.9l.7 1 1.1-.2.1-.8zm1.1-.1v.1h-.7l-.2.9 3.3 3.2 1.1-.2-.3-2.2-2.2-1.8h-1zm0-6.4v6l1.2.1.6-1.6-.7-3.8-1.1-.7zm-.2-1.2h.1v.7l1.3 1 1.9-.2.8-1.9-.3-1.5-3.9.6.1 1.3zm-4.7-1.1c1.1.6 2.6.7 4 .9.1 0 .2 0 .4.1v-1.4l-4.5-3.6-1.8.2v1.6l1.9 2.2zm-3.4-6c.3.9.7 2.1 1.1 3v-.8l-1.1-2.2zm-2.5-7.1c.7 1.9 1.3 3.9 2 5.6h.2l3-1.7-1.1-3.8-3.4-.6-.7.5zm-2.1-5.6c.2.7.5 1.3.7 1.8.2.5.4 1.1.6 1.6.2.6.4 1.2.7 1.8l.5-.4v-3.2l-1.8-1.5-.7-.1zM54 34.1c.2.7.5 1.3.7 1.9.3.8.6 1.7.9 2.5h.5l.4-4.3-1.1-.9-1.4.8zm-2-5.7c.2.4.3.8.4 1.2.2.5.3 1 .6 1.5.3.7.6 1.6.9 2.4l1.5-.8 1.4-3.4-.6-1.5-1.5-.6-2.7 1.2zm-1.4-3.8c0 .1.1.2.1.4.2.5.4 1.1.6 1.6l.6 1.5 2.7-1.2 1.6-2.9-.6-1.4-1.7.1-3.3 1.6v.3zM49.3 21c.2.6.4 1.2.6 1.9l.5.9 3.2-1.5-.2-1.7-4.1.4zm-.8-2.1c.2.5.4 1.1.6 1.7l4.3-.4 3.6-4.5-.7-3.9-5-.1-3.5 3.5.7 3.7zm-1.1-3.2l.4 1-.2-1.2-.2.2zm-1.2-3l1 2.6.2-.2-.6-2.1-.6-.3zm-8 3.6c.2-.5.4-1.1.6-1.6.2-.5.1-.5.6-.6 1.7-.4 3.9-1.1 5.6-1.5.2 0 .4-.1.5-.2l-1-.6-2.6-.2h-.1l-2.5.2-1.9 1.2-.6 2.1 1.4 1.2zm-1 2.7l.4-1 .6-1.5-1.5-1.1-.7 3.5 1.2.1zm-.8 1.9l.6-1.5-1-.1-.2 1.5.6.1zm-2.1 5.5l2-5.1-.6-.2-1.7 3 .3 2.3zm-.4 1l.1-.2-.4-2.9-3.3-1.6-1.7-.1L28 24l1.6 2.9 3.4 1.4.9-.9zm-.5 1.2l.1-.2-.1.2zM32.1 32l1.1-2.8-.2-.4-3.4-1.4-1.6.5-.6 1.5 1.4 3.4 1.8 1 1.5-1.8zm-.9 2.1l.2-.5c0-.1.1-.2.1-.3l-.5.7.2.1zm-.4 1.1l.3-.7-.2-.1-.1.8zm-1.3 3.4l.8-2.1.2-2.2-1.8-1-1.1.9.4 4.3 1.5.1zm-2.4 5.9l2.2-5.6-1.5-.1-1.8 1.5v3.2l1.1 1zM25 49.9l1-2.6c.2-.6.4-1.1.7-1.7l.3-.7-1.3-1-3.4.6-1.1 3.8 3 1.7.8-.1zm-2.2 5.5l2-5.1-.5.1-1.6 3.3-.1 1.6.2.1zm-6.7 3.2l1.9-.1c1.9-.3 3.7-.7 4.7-2.5l.1-.1h-.1L21 57.6c-.3.2-.7.3-1.1.5l.5-.4 1.9-2.2v-1.6l-1.8-.2-4.5 3.6.1 1.3zm-.2 0zm-.2.6v-2l-3.9-.6-.3 1.5.8 1.9 1.9.2 1.5-1zm0 6.6v-6.1l-1.2.9-.7 3.8.6 1.6 1.3-.2zm.6.5h-.5v-.1l-1.3.1-2.2 1.8-.3 2.2 1.1.2 3.3-3.2-.1-1zm2.3 0h-1.9l.1.8 1.1.2.7-1zm5.6 0H19l-.9 1.3-.2 1.8 1.6.6 3.8-.7 1-1.5-.1-1.5zm3.8 0h-3.3l.2 1.5h2l1.1-1.5zm7.9 0h-7.4L27.1 68l.7 3.9 5 .1 3.5-3.5-.4-2.2zm1.1 0h-.7l.3 2 1.7-1.2-.7-2.3h-.4c.1 1.3.1 1.5-.2 1.5zm-.6-6.7v5.9H16.5v-6.2c1.4-.1 2.9-.2 4-.7 2.7-1 3-2.9 4-5.4l14.6-37.1c.1-.3.2-.6.3-.8.2-.5.1-.5.6-.6.6-.2 1.2-.3 1.9-.5.6-.2 1.2-.3 1.9-.5.6-.2 1.3-.4 1.8-.5.4.9.8 2.1 1.1 3.1.4 1 .7 2.1 1.1 3.1.8 2.1 1.5 4.2 2.3 6.3 3.1 8.3 6 16.7 9.1 25 .5 1.5 1.7 5 2.4 6.1 1.3 1.8 3.3 2.1 6.1 2.5.1.4 0 5.4 0 6.3H44.6c0-.9-.1-5.7 0-6.1 1.1-.1 2.6-.2 3.2-.8 1-.9.4-1.8 0-3-.2-.7-1.9-5.6-2.1-5.9H34.2v.1c-.3.8-1.9 5.5-2.1 6.2-.5 1.3-.8 2.3.6 2.9.7.3 2.8.5 3.7.6zm.1 16.1l-.7.5-.5.4.4 1.3 1.7.7 1.1-.8-.1-1.7-1.9-.4zm0-2.1l.2 1.8 1.8.4.7-.2v-3.1l-2-1.2-.7 2.3zM31 76.5l1.1-.1 1-2.3-.4-1.6-4.9-.1v3.1l1.1 1.2 2.1-.2zm-6.8 1l.2.5 1.2.3.7.2 2.1-1.6-1-1.2-1.6.3-1.6 1.5zm-2.5-2.2l.7 1.7 1.6.3 1.6-1.7v-2.9l-1.8-.8-1.8 1.4-.3 2zm-1 0h.5l.4-1.9-1.5-.2-.3 2.1h.9zm-5-.7l1.1.8 2.6-.1.4-2.2-3.5.4-.6 1.1zm-2.7 0h2.4l.6-1.2-.3-1.4-2.2.2-.5 2.4zm-3.7-3.3c-.1.2-.7 1.8-.7 1.9l.5 1.8.7.2.8.2 2-.7.7-2.6-.3-1.2-1.2-.2-2.5.6zm.1-2.8l-.1 2.4 2.3-.6.2-2.2-1.3-.2-1.1.6zm-.7-4l-.1 2.9.6.8 1.1-.5.4-3.5-2 .3zm.1-1.8v1.4l2-.3-.2-1.5-1.8.4zM6.6 60l.5 1.8h.2c.4.2.9.3 1.3.5l2-.4 1.5-1.7-.8-1.8H8.4L6.6 60zm.5-4.4l-1.6 2 .5 2.1.3.1L8 58.1l.3-1.6-1.2-.9zm2.7-4.7l-2.2.9-.3 3.4 1.1 1h3.1l-.1-4.9-1.6-.4zm.8-3.1l-.5 2.8 1.5.4 3.3-3.3-2-.7-2.3.8zm-5.4-1.2L6 48l.2.5 1 .3 1-1.2-.4-1.9-1.8-.2-.8 1.1zm-3.3-2.9l.6 2.3 2.4.3 1-1.2 1.9.1.2-.6-1.5-1.3-1.3-.4-3.3.8zm-.1-3.2c-.3.5-.6.9-1 1.5.3.5.6.9.9 1.4l3.3-.8v-1.2l-3.2-.9zM5 37.6l-2.5.4-.5 2.2 3.2.8 1.3-.4L8 39.3l-.2-.6-1.9.1-.9-1.2zm2.2-2.3l-1 .3-.2.4-.7 1.4.7 1 1.8-.1.4-1.9-1-1.1zm3.2 1.1l-1.9.2-.4 1.8.2.7h3.1l1.2-2-2.2-.7zm-.4-3.1l.5 2.8 2.4.8 1.9-.6-3.3-3.3-1.5.3zm-2.7-4.6l.3 3.4 2.1.9 1.6-.4.1-4.9H8.3l-1 1zm-1-4.6l-.3.2-.4 2.1 1.5 2 1.2-1-.3-1.6-1.7-1.7zm2.4-2.5c-.4.3-1 .3-1.4.6h-.2L6.7 24l1.6 1.5h2.9l.8-1.8-1.5-1.7-1.8-.4zm0-1.8v1.4l1.7.4.2-1.5-1.9-.3zm.6-4.1l-.6.9.1 2.8 2 .3-.4-3.5-1.1-.5zm0-2.7l.1 2.5 1 .5 1.3-.2-.2-2.2-2.2-.6zm3.3-3.7l-1.9-.7-1.6.4-.4 1.8s.5 1.4.6 1.8l2.5.6L13 13l.2-1.2-.6-2.5zm2.8.2H13l.5 2.2 2.2.2.2-1.3-.5-1.1zm4-.8l-2.6-.1-1 .8.5.9 3.5.4-.4-2zm1.9 0l-1.4-.1.3 2 1.5-.2-.4-1.7zm2.7-2l-1.6.3-.7 1.7.3 1.8 1.7 1.5 1.8-.8V8.3L24 6.7zm2.5-1.2l-2 .5-.2.4L25.8 8l1.6.3 1-1.2-1.9-1.6zm5.6 2.1l-3.4-.4-1 1.2v3.1l4.9-.1.4-1.6-.9-2.2zm4.1 2.9l-2.4-.5h-.4l-.4 1.5 3.4 3.3.6-1.9-.8-2.4zm.5-2l-.3 1.8.8 2.3 2-1.2V8.3l-.7-.2-1.8.4zm.8-3.2l-1.8.8-.4 1.2 1.1.9 1.9-.4.2-1.8-1-.7zM40.3 2l-2.1.5-.4 2.5 1 .8-.1 1.9.7.3 1.3-1.5.4-1.3-.8-3.2zm3.3-.3L42.3.9l-1.6 1 .7 3.1h1.2l1-3.3zm2.6.8L44 1.9l-.1-.1-.8 3.3.4 1.3L44.8 8l.6-.2-.1-1.9 1.2-1-.3-2.4zm4.5 7.5l-2.7.6v-.2l-.8 2.5.6 1.9 3.4-3.3-.5-1.5zm4.7-2.7l-3.2.3c-.1.3-.9 2.2-1 2.3h-.1l.3 1.5 4.9.1V8.4l-.9-1.1zm4.5-1.4l-1.8-.4-2.2 1.7.9 1 1.5-.2L60 6.3l-.1-.4zM62 7l-1.6-.3-.1-.1-1.7 1.7v2.9l1.8.8 1.7-1.5.4-2.2L62 7zm2.3 1.7l-1.4.1-.4 1.8 1.5.2.3-2.1zm4.2.5l-.8-.6-3 .1-.4 2 3.5-.4.7-1.1zm2.7.2h-2.3l-.1-.1-.6 1.1.2 1.3 2.2-.2.6-2.1zm4.1-.5l-1.2-.3-.3-.1-2.1.8h-.1l-.6 2.5.2 1.2 1.2.2 2.6-.7.7-1.9-.4-1.7zm2 13.3c-.5-.2-1.1-.3-1.5-.6l-2.2.4-1.5 1.7.8 1.8h2.9l1.7-1.7-.2-1.6zm-1.7 14.4l-1.7-.2-2.4.8 1.2 2h3.1l.2-.7-.4-1.9zm2.6-1.1l-1.1-.3-1.1 1.4.4 1.6 1.8.1.8-1.1-.8-1.7zm3.7 2.4l-2.6-.4-1 1.2-1.9-.1-.2.6 1.5 1.3 1.3.5 3.4-.9-.5-2.2zm-1.8 8.4l1.8-.3.5-2.2-3.4-.9-1.3.4-1.5 1.3.2.6 1.9-.1 1 1.2h.8zM76 47.4l1.1 1.4 1-.3.8-1.8-.8-1.1-1.8.1-.3 1.7zm-4.4 27.2h.1l1.9.7 1.7-.3.4-1.7-.7-2-2.6-.7-1.2.2-.2 1.3.6 2.5zm-2.8 0h2.4l-.6-2.3-2.2-.3-.2 1.3.6 1.3zm-3.7.7l2.5.1.9-.7-.6-1.2-3.5-.4.4 2.2h.3zm-2.2-.1h1.5l-.4-2-1.5.2.4 1.8zm-2.5 2.1l1-.2.5-.1.6-1.5-.4-2.2-1.7-1.5-1.8.8v2.9l1.8 1.8zm-4.6-.6l2.2 1.7 1.9-.4.2-.4-1.7-1.7-1.6-.3-1 1.1zm-4.7-2.6h.1c.1.1.9 2 1 2.3l2.2.2.9.1 1.1-1.2v-3.1l-4.9.1-.4 1.6zm-3-.6l1.3.2 1.3.2.4-1.6-3.3-3.3-.6 1.9.9 2.6zM44 82.1l2.2-.5.3-2.5-1.2-1 .1-1.9-.6-.2-1.3 1.5-.4 1.3.9 3.3zm-3.4 0l1.6 1 1.4-.9-.9-3.4h-.6v1.4-1.4h-.6l-.9 3.3zm-2.8-3.2l.4 2.6 2.1.5.8-3.3-.4-1.3-1.3-1.5-.6.2.1 1.9-1.1.9zm13-69.5l.2-.5.8-1.9 3.6-.3s.1 0 .1-.1l2.4-1.7 2.7.6.2.7 1.9.5.6 1.6L68 8l1.2.9h2.3l2.1-.9c.1 0 .1-.1.2-.1l2.2.6.5 2.4-.7 1.9-.1 2.5.9 1.2-.1 4.7c.4.1 1.1.3 1.4.5.1 0 .1.1.1.1l.3 1.6.8.4.5 2.7-1.7 2.3-.1.1-.3 3.6-2.5 1.2-.4 2.1 1.1.2 1.1-1.5 1.9.5.8 1.9 2.9.5.6 2.7 1.2 1.9-1.2 2-.6 2.6-2.6.4-.9 2-1.9.5-1.2-1.5-1.1.2.4 2.1 2.5 1.2.3 3.6s0 .1.1.1l1.7 2.3-.5 2.7-.8.4-.4 1.6c0 .1-.1.1-.1.1-.4.2-1 .4-1.4.5l.1 4.7-.9 1.2.1 2.5.7 1.9-.5 2.4-2.2.6s-.1 0-.2-.1l-2.2-.8h-2.3L68 76l-4.7-.2-.6 1.6-1.9.5-.2.7-2.7.6-2.4-1.7-.1-.1-3.6-.4-1-2.4-2.3-.5-.2 1.2 1.5 1.2-.5 1.8-2 .9-.4 2.8-2.6.7-2 1.3-2.1-1.3-2.6-.7-.4-2.8-2-.9-.5-1.8 1.5-1.2-.2-1.2-2.3.5-1 2.4-3.6.3s-.1 0-.1.1l-2.4 1.7-2.6-.6-.2-.7-1.9-.5-.6-1.6-4.7.3-1.2-.9h-2.3l-2.2.9c-.1 0-.1.1-.2.1l-2.2-.6-.5-2.4.7-1.9.1-2.5-.8-1.2.1-4.7c-.4-.1-1.1-.3-1.4-.5-.1 0-.1-.1-.1-.1l-.3-1.6-.8-.4-.5-2.7 1.7-2.3.1-.1.2-3.7 2.5-1.2.4-2.1-1.2-.1-1.2 1.5-1.8-.5-.9-2-2.9-.4-.6-2.6L0 42l1.3-2 .6-2.6 2.9-.4.9-2 1.9-.5L8.7 36l1.1-.2-.4-2.1L7 32.6 6.7 29s0-.1-.1-.1l-1.7-2.3.5-2.7.8-.4.3-1.6c0-.1.1-.1.1-.1.4-.2 1-.4 1.4-.5v-4.8l.9-1.2-.1-2.5-.8-1.9.5-2.4 2.2-.6s.1 0 .2.1l2.2.8h2.3l1.2-.8 4.7.2.6-1.6 1.9-.5.2-.6 2.7-.6L29 6.6l.1.1 3.6.3 1 2.4 2.3.5.2-1.2-1.5-1.2.5-1.8 2-.9.4-2.8 2.6-.7L42.3 0l2.1 1.3 2.5.7.4 2.8 2 .9.5 1.8-1.5 1.2.2 1.2 2.3-.5z" fill-rule="evenodd" clip-rule="evenodd"/></g></svg>