<svg id="Capa_1" xmlns="http://www.w3.org/2000/svg" viewBox="0 0 82 66"><style>.st0{fill:#ed8c2b}</style><path class="st0" d="M9 23.6s2.5-3.3.9-8C8.2 11 4.4 9.2 4.4 9.2s-2.9 4-1.3 8.5C4.7 22.2 9 23.6 9 23.6zm7 2.4s4.4-.4 7-4.4c2.5-4.1.6-8.6.6-8.6s-4.1.9-6.7 5c-2.7 4.1-.9 8-.9 8zm.4 5.4c-2 4.5.2 8.1.2 8.1s4.3-1 6.3-5.3c2-4.4-.5-8.6-.5-8.6s-3.9 1.3-6 5.8zM26.5 35s-3.8 1.8-5.5 6.4c-1.6 4.7.9 8 .9 8s4.2-1.4 5.8-5.9c1.6-4.6-1.2-8.5-1.2-8.5zm3.1 24.5s3.7-2.6 3.9-7.4c.2-4.8-3.6-7.8-3.6-7.8s-3.2 2.8-3.4 7.8c-.2 4.9 3.1 7.4 3.1 7.4zm-15-44.9s3.9-1.3 5.1-6.1C20.8 3.7 18.6 0 18.6 0s-4.5 1.7-5.7 6.4c-1.1 4.7 1.7 8.2 1.7 8.2zM9 33.8s1.5-4-1.4-7.9C4.7 22 .5 21.4.5 21.4s-1.6 4.7 1.2 8.5C4.5 33.8 9 33.8 9 33.8zm3.2 10.5s.6-4.2-3.1-7.4-7.9-2.8-7.9-2.8-.5 4.9 3.1 8c3.6 3.2 7.9 2.2 7.9 2.2zm5 8.6s-.7-4.2-5.2-6.1c-4.5-1.9-8.3-.2-8.3-.2s.9 4.9 5.3 6.7c4.3 1.9 8.2-.4 8.2-.4zm2.1 3.6c-4.6-1.3-8.3.8-8.3.8s1.5 4.7 6 6c4.5 1.3 8.1-1.5 8.1-1.5s-1.1-3.9-5.8-5.3z"/><path class="st0" d="M15.1 17.5l-2.1-1c-.1.2-10.7 23.3 19.1 49.5l1.5-1.8C5.2 39.3 14.7 18.4 15.1 17.5zM73 23.6s-2.5-3.3-.9-8 5.5-6.4 5.5-6.4 2.9 4 1.3 8.5c-1.6 4.5-5.9 5.9-5.9 5.9zm-7 2.3s-4.4-.4-7-4.4c-2.5-4.1-.6-8.6-.6-8.6s4.1.9 6.7 5c2.7 4.2.9 8 .9 8zm-.4 5.4c2 4.5-.2 8.1-.2 8.1S61 38.4 59 34s.5-8.6.5-8.6 4 1.4 6.1 5.9zm-10.1 3.6s3.8 1.8 5.5 6.4c1.6 4.7-.9 8-.9 8s-4.2-1.4-5.8-5.9c-1.6-4.5 1.2-8.5 1.2-8.5zm-3.1 24.5s-3.7-2.6-3.9-7.4c-.2-4.8 3.6-7.8 3.6-7.8s3.2 2.8 3.4 7.8c.2 5-3.1 7.4-3.1 7.4zm15-44.8s-3.9-1.3-5.1-6.1C61.2 3.7 63.4 0 63.4 0s4.5 1.7 5.7 6.4c1.1 4.7-1.7 8.2-1.7 8.2zM73 33.8s-1.5-4 1.4-7.9c2.9-3.9 7.1-4.5 7.1-4.5s1.6 4.7-1.2 8.5c-2.8 3.9-7.3 3.9-7.3 3.9zm-3.2 10.4s-.6-4.2 3.1-7.4 7.9-2.8 7.9-2.8.5 4.9-3.1 8-7.9 2.2-7.9 2.2zm-5 8.7s.7-4.2 5.2-6.1c4.5-1.9 8.3-.2 8.3-.2s-.9 4.9-5.3 6.7c-4.3 1.9-8.2-.4-8.2-.4zm-2.1 3.6c4.6-1.3 8.3.8 8.3.8s-1.5 4.7-6 6c-4.5 1.3-8.1-1.5-8.1-1.5s1.1-4 5.8-5.3z"/><path class="st0" d="M66.9 17.5l2.1-1c.1.2 10.7 23.4-19.1 49.5l-1.5-1.8c28.4-24.9 18.9-45.9 18.5-46.7z"/></svg>