<svg id="Layer_1" xmlns="http://www.w3.org/2000/svg" viewBox="0 0 109 126"><style>.st2{fill:#cad1d8}</style><path d="M23.4 0c-4.3 0-7.8 3.5-7.8 7.9v110.2c0 4.3 3.5 7.9 7.8 7.9h77.9c4.3 0 7.8-3.5 7.8-7.9V31.5L77.9 0H23.4z" fill="#e2e5e7"/><path d="M85.6 31.5H109L77.9 0v23.6c0 4.4 3.5 7.9 7.7 7.9z" fill="#b0b7bd"/><path class="st2" d="M109 55.1L85.6 31.5H109z"/><path d="M93.4 102.4c0 2.2-1.8 3.9-3.9 3.9H3.9c-2.1 0-3.9-1.8-3.9-3.9V63c0-2.2 1.8-3.9 3.9-3.9h85.6c2.1 0 3.9 1.8 3.9 3.9v39.4z" fill="#f15642"/><path d="M17 74.6c0-1 .8-2.2 2.1-2.2h7.2c4 0 7.7 2.7 7.7 8 0 5-3.6 7.7-7.7 7.7h-5.2v4.2c0 1.4-.9 2.2-2 2.2-1 0-2.1-.8-2.1-2.2V74.6zm4.1 1.8v7.8h5.2c2.1 0 3.7-1.9 3.7-3.8 0-2.2-1.7-4-3.7-4h-5.2zm19 18.1c-1 0-2.1-.6-2.1-1.9V74.7c0-1.1 1.1-2 2.1-2h7.1c14.2 0 13.9 21.8.3 21.8h-7.4zM42 76.6v14.1h5.2c8.4 0 8.8-14.1 0-14.1H42zm24.1.2v5H74c1.1 0 2.2 1.1 2.2 2.2 0 1-1.1 1.9-2.2 1.9h-7.9v6.6c0 1.1-.8 1.9-1.9 1.9-1.4 0-2.2-.8-2.2-1.9V74.7c0-1.1.8-2 2.2-2h10.9c1.4 0 2.2.8 2.2 2 0 1-.8 2.1-2.2 2.1h-9z" fill="#fff"/><path class="st2" d="M89.5 106.3h-74v3.9h74c2.1 0 3.9-1.8 3.9-3.9v-3.9c0 2.1-1.7 3.9-3.9 3.9z"/></svg>