<svg xmlns="http://www.w3.org/2000/svg" viewBox="0 0 16 16"><path d="M.6 4.8c.3 0 .6-.2.6-.6V1.9l3.6 3.6c0 .1.2.2.3.2.1 0 .3-.1.4-.2.2-.2.2-.6 0-.8L1.9 1.1h2.4c.3 0 .6-.2.6-.6S4.6 0 4.3 0H.6C.2 0 0 .2 0 .6v3.7c0 .3.2.5.6.5zm14.8 6.4c-.3 0-.6.2-.6.6v2.4l-3.7-3.7c-.2-.2-.6-.2-.8 0-.2.2-.2.6 0 .8L14 15h-2.4c-.3 0-.6.2-.6.6 0 .3.2.6.6.6h3.7c.3 0 .6-.2.6-.6v-3.7c.1-.5-.1-.7-.5-.7zm-10.6-.8l-3.7 3.7v-2.4c0-.3-.2-.6-.6-.6s-.5.3-.5.6v3.7c0 .4.2.6.6.6h3.7c.3 0 .6-.2.6-.6 0-.3-.2-.6-.6-.6H1.9l3.7-3.7c.2-.2.2-.6 0-.8-.2-.1-.6-.1-.8.1zM15.4 0h-3.7c-.3 0-.6.2-.6.6s.2.6.6.6h2.4l-3.6 3.6c-.2.2-.2.6 0 .8.1.1.3.2.4.2.1 0 .3-.1.4-.2L14.9 2v2.4c0 .3.2.6.6.6s.5-.4.5-.7V.6c0-.4-.2-.6-.6-.6z" fill="#ed8c2b"/></svg>