<svg xmlns="http://www.w3.org/2000/svg" viewBox="0 0 66 66"><path d="M29.2 1.6L1.6 29.2c-2.1 2.1-2.1 5.5 0 7.7l27.6 27.6c2.1 2.1 5.5 2.1 7.7 0l27.6-27.6c2.1-2.1 2.1-5.5 0-7.7L36.8 1.6c-2.1-2.1-5.5-2.1-7.6 0zM3.9 34.5c-.8-.8-.8-2.2 0-3.1l12.6-12.6 5.1 5.1v18.2l-5.1 5.1L3.9 34.5zm43.3 15L34.5 62.1c-.8.8-2.2.8-3.1 0L18.8 49.5l5.1-5.1h18.2l5.1 5.1zm-22.3-8.4V24.9h16.3v16.3H24.9zm37.2-9.6c.8.8.8 2.2 0 3.1L49.5 47.2l-5.1-5.1V23.9l5.1-5.1 12.6 12.7zm-14.9-15l-5.1 5.1H23.9l-5.1-5.1L31.5 3.9c.8-.8 2.2-.8 3.1 0l12.6 12.6z" fill="#ed8c2b"/></svg>