<svg id="Layer_1" xmlns="http://www.w3.org/2000/svg" viewBox="0 0 28 25"><style>.st0{fill-rule:evenodd;clip-rule:evenodd;fill:#a6a6a6}</style><path class="st0" d="M13.9 13.4c-1.4 0-2.5 1.2-2.5 2.6 0 1.5 1.2 2.7 2.5 2.7 1.4 0 2.5-1.2 2.5-2.7.1-1.4-1.1-2.6-2.5-2.6zm0 0zm.1 2.4c-.2-.1.2-1.9.2-1.9s.8.2 1.3 1c0 .1-1.2 1-1.5.9z"/><path class="st0" d="M11.2 15.1c.2-.6.6-1 1.2-1.4-.1-.1-.3-.1-.5-.1-.5 0-.9.3-.9.9-.1.3 0 .5.2.6zm2.7 3.6c-.3 0-.7 0-.9-.1 0 .5.5.8.9.8.5 0 .8-.3.9-.8-.3.1-.5.1-.9.1zm2.8-3.6c.1-.1.2-.3.2-.6 0-.6-.5-.9-.9-.9-.1 0-.3 0-.5.1.6.4 1 .9 1.2 1.4z"/><path class="st0" d="M16.8 14.3l-.3-.4.5-.3.2.3zm-5.5-.6l-.3.6-.4-.6.1-.1zm2.3 5.6h.6l-.2.7h-.3zm3.1-2.9c-.1.8-.7 1.5-1.3 2 1.3 1.3 3.1 2.8 4.8 4 1-1 1.7-2.2 2.2-3.6-1.8-1-4-1.9-5.7-2.4zm8.2 3.6c-.2-.1-.5-.3-.8-.5-.5 1.4-1.3 2.7-2.2 3.8.2.1.6.3.8.5 2.7 1.5 4.4 1.4 5 .3.8-1.3.3-2.3-2.8-4.1zm-12.6-1.6c-.6-.6-1.2-1.3-1.2-2.1-2 .6-4.6 1.7-6.6 2.7.5 1.4 1.3 2.7 2.2 3.8 1.9-1.3 4.1-3 5.6-4.4zm-8.6 1c-.3.1-.6.2-.8.5-2.5 1.5-3.2 3-2.7 4.2.6 1 2.3 1.2 4.8-.3.2-.1.6-.3.8-.5-1-1.1-1.7-2.3-2.1-3.9zM13.9 5.1c.8 0 1.5 0 2.3.2v-.9c0-3-1-4.4-2.2-4.4-1.3 0-2.3 1.4-2.3 4.4v.8c.7-.1 1.4-.1 2.2-.1zm0 .4c-.8 0-1.5.1-2.1.2v.9c.7 0 1.6 0 2.3.2-.7.2-1.6.5-2.3.7.2 2 .5 4.2.9 5.8.3-.1.7-.2 1.2-.2s.9.1 1.3.3c.6-2.2.9-5.5 1-7.8-.8 0-1.5-.1-2.3-.1zm6.8 17.1s1.3-.9 1.8-2c-.5 1.3-1.1 2.4-1.1 2.4l-.7-.4z"/></svg>