<svg xmlns="http://www.w3.org/2000/svg" viewBox="0 0 18 12"><path d="M9.6 12c.6 0 .6-1 .6-1.3 0-.7.6-1.3 1.2-1.3s1.6 1.1 2.4 2c.6.6.6.6 1.2.6h1.8s1.2-.1 1.2-1.3c0-.4-.4-1.1-1.8-2.7-1.2-1.3-1.8-.6 0-3.3C17.3 3 18.1 1.5 18 1.1 17.9.7 14.8 0 14.4.6c-1.2 2-1.4 2.5-1.8 3.3-.6 1.3-.7 2-1.2 2s-.6-1.3-.6-2c0-2.2.3-3.8-.6-4H8.4c-1 0-1.8.7-1.8.7s-.7.7-.6.7c.2 0 1.2-.3 1.2.7v1.3S7.2 6 6.6 6s-1.8-2.7-3-4.7C3.1.5 3 .7 2.4.7H.6c-.6 0-.7.4-.6.6 1.2 3.3 2.1 5.4 4.3 8.1C6.4 11.8 7.8 11.9 9 12h.6z" fill="#848484"/></svg>