<svg xmlns="http://www.w3.org/2000/svg" viewBox="0 0 18 16"><path d="M17.5 6.9h-2.3v-.5c.1-.3-.1-.4-.2-.4s-.2 0-.2.1l-2.3 1.6c-.1.1-.2.2-.2.3 0 .1.1.2.2.3l2.3 1.6c.1.1.2.1.2.1.1 0 .2 0 .3-.1 0-.1.1-.1.1-.2v-.6h2.3c.3 0 .5-.2.5-.5V7.3c-.2-.2-.4-.4-.7-.4zm-12 .8L3.3 6.1C3.2 6 3.1 6 3 6c-.1 0-.3.1-.3.4v.5H.5c-.3 0-.5.2-.5.4v1.3c0 .3.2.5.5.5h2.3v.5c-.1.2.1.4.2.4s.2 0 .2-.1l2.3-1.6c.1-.1.2-.2.2-.3 0-.1-.1-.3-.2-.3zM9.9 0H8.1c-.3 0-.5.2-.5.5v15.1c0 .3.2.5.5.5H10c.3 0 .5-.2.5-.5V.5c-.1-.3-.3-.5-.6-.5z" fill="#ed8c2b"/></svg>