<svg id="Layer_1" data-name="Layer 1" xmlns="http://www.w3.org/2000/svg" viewBox="0 0 416 419"><defs><style>.cls-1{fill:#686d73;}.cls-2{fill:#676c73;}.cls-3{fill:#696e75;}</style></defs><title>about-history-logo</title><path class="cls-1" d="M351,160a15,15,0,0,0-5,9.28c-.47,3.75-1.55,6.29-6.11,5.8-2.92-.31-4.71,1.43-5.92,4.21-1.83,4.17-6.6,5.21-9.17,2.32-1.06-1.2-1.83-3-3.92-2.46-.35.08-.85.71-.81,1,.31,2,.13,5.16,2.11,5.61,7.13,1.61,7,7.26,7.62,12.49a10.81,10.81,0,0,0,2.61,5.74c3.67,4.63,3.11,9.09-.35,14.2-1.91,2.82-2.18,6.64-6.39,7.69-.94.24-.3,2.11-.24,3.26.25,5,1.53,10-2,14.82-1.82,2.53-.63,6.42.62,9.6.81,2.07,1.7,3.93,1.07,6.51-1.39,5.63-5.31,8.47-10.82,6.59-5.3-1.81-10.13-2.56-15.69,0-3.19,1.45-7.54.36-11.37.37-2,0-3.45.1-4.57,2.62-2.59,5.84-14.88,8.67-19.81,4.76-3.16-2.5-6.42-4-10.5-3.39-3.42.48-5.67-.68-6.63-4.33-.36-1.39-.71-3.22-2.68-3.91s-4-1.7-5.38.27c-1.56,2.2,1.19,2.61,2.21,3.61a5.23,5.23,0,0,1-1.78,8.63c-3.75,1.58-5.38,4.09-5.14,7.91.15,2.33-1,3.32-3,3.78-.8.18-1.86,0-2.39.49-7.66,6.66-15,2.06-22.43-.49-2.17-.74-3.5-2-3.19-4.36.5-3.8-1.37-5.65-4.7-7.1-4.07-1.77-4.59-6.38-1.32-9.21,1.18-1,2.66-2.09,1.72-3.64s-2.77-.7-4.15-.46c-2.37.41-3.65,2.19-4.19,4.4-.86,3.57-3.12,4.91-6.61,4.41-3.85-.55-7.08.67-10.16,3-4.8,3.6-8.44,3.56-13.26.06-2.8-2-7.57-1.75-8-6.68,0-.15-.91-.35-1.38-.32a63.68,63.68,0,0,1-20-2,11.36,11.36,0,0,0-8.21,1.23,9,9,0,0,1-9.88-.76c-2.53-2.11-2.83-6.44-1.62-9.77,1.93-5.35,2.66-10.17-.42-15.53-1.81-3.15.55-7.14.21-10.81-.21-2.21-.17-3.64-2.91-4.82-6-2.59-8.71-15.17-4.6-20.23,2.6-3.19,3.9-6.61,3.39-10.56-.48-3.69,1.19-5.55,4.4-6.6a7.43,7.43,0,0,0,2.68-1.24,6.45,6.45,0,0,0,2-5.29c0-.63,0-1.35-.91-1.52-2.2-.43-2.7,1.46-3.72,2.68-1.92,2.3-7.09,1.78-8.47-1.29-1.78-4-4.23-6-8.68-5.54-1.88.2-2.93-.67-3.3-2.81a24.28,24.28,0,0,0-4.32-10.88c-1.07-1.41,4.69-16.34,6.37-16.9a7.61,7.61,0,0,1,2.95-.33c3.32.27,5-1.28,6.27-4.33,1.91-4.51,6.43-4.94,9.85-1.25,1,1,2,2.1,3.38,1.31,1.09-.64.68-2.13.46-3.23a5.8,5.8,0,0,0-4.58-4.62c-3.44-.93-4.73-3.05-4.32-6.62a13.37,13.37,0,0,0-3.45-10.55c-3.62-4.3-3-9,.45-13.71,2.06-2.83,2.57-6.51,6.66-8.16,1.05-.43.47-5.62.12-8.56s-.33-5.39,1.34-8.06c1.93-3.09,1.17-6.62.16-10-.61-2-1.46-3.94-1.3-6.24.42-6.26,4.52-9.67,10.45-7.72,5.62,1.85,10.7,3.08,16.59,0,2.91-1.5,7.2-.35,10.86-.32,2.18,0,3.64,0,4.82-2.75,2.39-5.54,14.86-8.23,19.54-4.56,3,2.34,6,3.8,10,3.34,3.67-.43,6.52.81,7.49,4.86.49,2,1.52,3.91,3.85,3.95,1.44,0,3.46,1.47,4.36-.76.74-1.83-1.07-2.5-2.16-3.45a5.26,5.26,0,0,1,1.16-8.74c3.63-1.6,5.77-3.53,5.25-7.82-.33-2.71,1.75-3.63,4.07-4.1,3.74-.76,7.3-1.91,9.86-5h3a18.29,18.29,0,0,0,10.37,5.07c2.24.35,3.94,1.32,3.69,4.24-.33,3.71,1.53,6,5.05,7.48,3.92,1.68,4.46,6.15,1.56,8.94-.95.91-3.19,1.31-2,3.34,1.08,1.88,3,.93,4.55.77,2.08-.22,3-2.09,3.4-3.85.94-4,3.65-5.32,7.35-5a13,13,0,0,0,10-3.29c4.76-3.89,17.27-1.07,19.81,4.63,1.11,2.49,2.49,2.63,4.55,2.63,3.82,0,8.3-1.17,11.33.4,5.56,2.89,10.37,1.86,15.6.11,5.77-1.93,9.66.78,11,6.77.56,2.43-.29,4.13-1.06,6-1.3,3.18-2.5,7.18-.77,9.6,3.71,5.19,2.25,10.44,2,15.78,0,1-.58,2.58.25,2.76,4.12.89,4.35,4.38,6.08,7.27,4,6.74,4.52,8.91,0,15.15a10,10,0,0,0-1.91,4.48c-.81,5.25-.07,11.34-7.63,13-1.79.4-3.11,4.31-1.79,5.89,1.86,2.23,3.23-.75,4.55-2a5.56,5.56,0,0,1,8.81,2.07c1.25,3.35,3.65,4.77,6.63,4.48,4-.4,5,2.11,5.38,4.9A17.38,17.38,0,0,0,351,159Zm-89.59,73.34v0q16,0,32,0c1.76,0,3.85.47,3.81-2.49-.06-4.66,0-9.32,0-14,0-1.59-.22-2.84-2.42-2.9-11.52-.28-17.32-6.71-21-17.35C260,157.22,245.49,118,231.26,78.79c-1.12-3.09-1.5-7.5-3.72-8.84-2.51-1.52-6.35,1.19-9.62,2a16.17,16.17,0,0,1-3.32.9c-4,.11-5.43,2.6-6.74,6C192,119.66,175.94,160.38,160.12,201.2,157,209.27,151.44,213.43,143,214c-4.18.27-6.89,1.33-6.11,6.4a33,33,0,0,1,0,8.48c-.39,3.63,1.1,4.39,4.48,4.35,15.49-.17,31-.07,46.47-.09,11.1,0,11,0,11.16-11.15.08-4.41.25-8.12-6-7.12a9.41,9.41,0,0,1-4.79-1c-2.72-1.16-5.06-2.78-3.87-6.4q3.46-10.5,6.92-21a3.25,3.25,0,0,1,3.62-2.47c10.49.12,21,.07,31.48,0,1.78,0,3,.23,3.72,2.35,2.15,6.74,4.59,13.37,6.88,20.06,1.38,4-.66,6.27-4.22,7.54-2.36.84-5.63-.08-7,2.42s-.51,5.56-.54,8.37c0,1.49.45,3,.35,4.47-.22,3.22,1.07,4.26,4.32,4.21C240.42,233.22,250.92,233.34,261.41,233.34ZM312,195.81c2-8.49-5.63-11.28-9.43-16.32-2.42-3.21-5.23-.17-7.85-.34-2.2-.15-4.44.94-6.79,1-1.72,0-2.86,1-3,3.19-.31,6.88.22,13.24,7.33,16.91a14,14,0,0,1,3.42,2.87c4.47,4.65,9.59,2.35,14.21.85C313.88,202.65,311.11,198.46,312,195.81ZM122,124c-.92,3.65.56,7,4,9.7a77.09,77.09,0,0,1,5.66,5.6c.66.64,1.14,1.58,2.42,1.32,4.33-.9,8.68-1.77,13-2.5,1.47-.24,1.88-.85,1.88-2.25,0-6.45.75-13.08-6.47-16.83a21,21,0,0,1-5.05-4c-4.2-4.26-8.92-1.23-13.14-.59-3.45.53-1.69,4.78-2.37,7.35A11.59,11.59,0,0,0,122,124Zm190-.4c0-7.66-.15-8.32-1.94-9.23-4.29-2.19-10.8-1.52-14.36,1.43a32.73,32.73,0,0,1-4.71,3.66c-5.24,2.91-6.23,7.67-6,13a25.17,25.17,0,0,0,.33,4.91c.25,1,15.23,3.74,16,2.81C305.45,134.85,313.87,132.15,312,123.56ZM122,195.8c.73,2.18-1.14,6.09,1.77,8a14.52,14.52,0,0,0,10.45,1.87c8.67-1.86,16.13-14,14.83-22.78-.12-.83,0-1.88-1-2.06-5-.94-10-2.64-14.88-2.36C128.9,178.72,121.93,190.28,122,195.8ZM181.4,65c-2.87,0-5,0-7.19,0-1,0-2.17,0-2.15,1.38.05,4.08-3.58,8.49-.16,12.12,4.7,5,6.32,13.6,16.32,12.72,7.63-.67,7.86.22,8.69-7.71.3-2.87,2.79-6.29.53-8.55C192.81,70.3,189.55,62.73,181.4,65Zm72.8,0c-7.91,0-8-.09-13.65,5.74-1.77,1.82-4.78,3-4.5,6.16A53.1,53.1,0,0,0,239,90.28c.4,1.09,1,1.78,2.13,1.6,6.4-1,13.72,0,17-7.9a12.56,12.56,0,0,1,2.47-3.08,8.81,8.81,0,0,0,2.54-7.84C261.95,65.05,262.23,65,254.21,65ZM141.87,159.73c.83-3.63-.38-6.4-3.21-8.75a26.85,26.85,0,0,1-3.77-4.59c-2.79-3.65-6.63-3.41-9.86,0-4.24,4.41-4.36,21.59.14,26.3,3,3.13,7.34,3.33,9.68-.21a20.36,20.36,0,0,1,3.82-4.55C141.27,165.72,142.91,163.26,141.87,159.73Zm170.21-.3c.08-4.47.16-8.86-2.87-12.7-3.15-4-7.17-4.22-10.15-.27a48.75,48.75,0,0,1-3.37,4.27c-5.4,5.7-5.39,11.94.06,17.54A37.86,37.86,0,0,1,299,172c3.15,4.22,7.12,3.9,10.45-.36C312.37,167.89,312,163.67,312.08,159.43ZM217,255.1a76.19,76.19,0,0,0,8.61-1.37c4.43-1.22,9.11-7.53,7.11-9.64-3.58-3.78-7.59-8.09-12.25-9.59-3.29-1.06-9.12-1.87-12.09,3.44-.9,1.6-3,2.53-4.57,3.76-3.72,2.92-3.52,6.62.31,9.62S212.76,254.19,217,255.1ZM185.6,237v0a59.21,59.21,0,0,1-7-.05c-3.67-.44-6.5,1-7.49,4.27-1.26,4.16.53,8.33,1.44,12.43,0,.22.88.28,1.36.38,9,1.81,18.79-2.32,23.44-9.87,2.15-3.48.29-7-3.76-7.12C190.93,236.94,188.27,237,185.6,237Zm63.1,0c-2.82,0-5.63-.06-8.45,0-3.54.09-5.43,3.14-4.08,6.44,1.77,4.31,11.22,10.55,16,10.55,9.78,0,9.78,0,10.91-9.48.54-4.51-1.92-7.42-6.41-7.52C254,236.95,251.35,237,248.7,237ZM217,210c5.8,0,9-3,9-8.45C226,194.22,222.68,190,217,190c-5.45,0-9,4.34-9,11.08C208,207,211,210,217,210ZM157.6,106a5.56,5.56,0,0,0,5.78-6.52C162.13,92.82,153,85.14,146.2,85c-2,0-3.54,1-3.61,2.66C142.35,94,150.5,106.06,157.6,106Zm118.84,0c5.09.61,14-9.57,14.64-16,.43-4.31-.68-5.32-5-4.64-6.06,1-9.81,5.25-13.76,9.07-2,2-2.38,5.21-1.24,8.08A5.32,5.32,0,0,0,276.44,106Zm-13.5,40.27c.15,4.06,3.7,6,6.38,6.37,6.91,1.07,12.86-5.05,12.64-11.93-.05-1.69-7.45-6.69-9.74-6.58C265,134.46,262.9,137.24,262.95,146.27ZM171,145.92c0-8.77-2.66-12-9.51-11.82-2.57.09-9.53,5.19-9.42,6.91.45,7.34,5.17,11.83,12.46,11.85C166.92,152.88,171,148.5,171,145.92Zm-6,14c.2-2.78.5-5.35-3-5.9-4.7-.74-9.27-1.5-14,.38-2.63,1-4.16,1.83-4.09,5s1.44,3.89,4.19,4.92c4.42,1.65,8.61,1.46,13,.54C163.66,164.27,166.19,163.38,165,159.93Zm104.13-.18c-1.37,3.63,1.28,4.49,3.93,5,4.32.9,8.52,1.23,13-.48,2.7-1,4.2-1.79,4.25-4.89s-1.22-4.23-4.08-5a26.11,26.11,0,0,0-12.07-.69C270.18,154.51,268.24,155.51,269.1,159.75ZM177.87,114c-4,0-7,3.16-6.2,6.37s2,6.75,4,9.42c1.11,1.5,3.45,4.71,6.39,2,3.21-3,4.48-7.15,5.92-11.15a2.07,2.07,0,0,0-.66-2.67A42.68,42.68,0,0,0,177.87,114Zm-14,52c-7.82.35-9.83,2.09-11.47,11.08-.85,4.63,4,4.27,6.31,6,2.55,2,4.5,1.29,5.59-1.95s2.54-6.41,3.74-9.64S167.33,165.87,163.86,166ZM147,71c-4.47.18-6.42,4.07-4.24,8.06s8.68,6.57,13.48,5.35c2.11-.53,4.71-.25,4.84-3.69s-.85-6.26-3.76-7.44C154,72,150.29,71.7,147,71ZM221.9,221H222c0-2.17-.08-4.33,0-6.49.09-1.94-.76-3-2.6-2.54-2.46.64-6-2.12-7.31,1.74a23.19,23.19,0,0,0,.23,15.51c.93,2.57,2.48,3.84,5,3.71s4.19-2,4.46-4.45A69.25,69.25,0,0,0,221.9,221ZM287.26,71a90.72,90.72,0,0,0-9.92,2.13c-3.12,1-4.39,3.67-4.34,7s2.12,3.68,4.71,4.45c4.11,1.22,7.67-.51,10.79-2,2.8-1.38,4.24-5,3.49-8.57C291.41,71.17,288.73,71.78,287.26,71ZM142.44,96.16c-.54-2.47-.55-5.15-1.7-7.18-1.85-3.25-5-5.73-8.92-4.82-3.67.86-2.83,4.55-2.75,7.35,0,1.6.72,3.18.91,4.79.6,5,3.09,6.92,8.3,6.75S141.21,98.54,142.44,96.16Zm149.39.36c.48,2.56-.71,5.88,3.14,6.44,3.68.54,7.51-.07,8.6-4,.94-3.41,1.91-7,1.43-10.74-.51-3.93-2.87-5.21-6.55-3.65C293,86.83,292.07,91.56,291.83,96.51ZM191,111.16c.12-6.25-7.74-13.06-14.14-12.13-3.12.45-4,2.37-2.9,5.24a16.87,16.87,0,0,0,11.36,10.55C189.18,116,190.92,115.16,191,111.16ZM167.55,133c2.29,0,5.06.62,5.57-2.59.76-4.8-8-14.56-12.85-14.45a3.16,3.16,0,0,0-3.37,2.35C155.28,124.1,161.65,132.92,167.55,133Zm98.79,0c6.22-.05,10.57-5.1,10.79-12.52.12-4.08-1.71-5.29-5.47-3.83a15.4,15.4,0,0,0-9.56,9.81C260.18,131.92,260.69,133.05,266.34,133ZM139.16,105c-.76.59-2.74-.83-3,1.19s-1,4.22.66,5.67c3.89,3.35,8,6.53,12.11,9.54,1.65,1.2,4.12,1.37,5.48-.15s.78-3.68-.78-5.34-2.78-3.88-4.61-5.21C146,108.49,143.85,104.83,139.16,105ZM179.1,63c8.94.41,8.74-.69,8.83-4.52.13-5.64-2.87-7.69-10.89-7.68-3.77,0-4.92,2.67-5,5.89C171.84,63,171.89,63,179.1,63Zm118.77,44.61c-.14-.37.69-2.09-.69-2.4-2.24-.51-4.66-.67-6.7.94-3.52,2.78-7,5.55-9.68,9.27-1.38,1.92-2.61,4-.89,5.79,1.56,1.63,4,1.18,5.88-.24,3.42-2.64,6.65-5.54,10.17-8C297.75,111.68,298.25,110.26,297.87,107.62ZM271.53,82.83c-1.07-1.6.48-4-1.47-4.61-1.73-.52-4-1-5.55.84-3.22,4-6.31,8-9.52,12-1.63,2-.46,4.19.51,5.37s3.32,1,4.9-.35c1.86-1.64,4-3,5.56-4.91C268,88.55,270.87,86.29,271.53,82.83ZM163,81.56a4.93,4.93,0,0,0,.7,4c2.67,4.32,6.45,7.58,10.27,10.77,1.38,1.15,3.64,1.23,4.56.1s2.22-3.12.78-5q-4.89-6.29-9.88-12.5c-1.39-1.72-3.43-1.12-5.14-.87C162,78.46,163.46,80.6,163,81.56ZM180,256c-9.29.11-7.34-.88-7.89,5.77-.35,4.21,2.09,6.26,6.74,6.25,6.28,0,9.14-2.34,9.14-7.77C188,253.52,182.63,256.9,180,256Zm89.37-90c-1.73.33-2.77,1-1.66,3.59,1.57,3.58,2.63,7.38,4,11.06.51,1.37.49,4.13,2.78,3,2.72-1.38,7-2,7.32-5.58C282.41,171.12,276.57,165.68,269.35,166Zm-66.67,57c1.85-1.67,5.58.12,6.24-3.53.79-4.41,2.84-9.14-1.74-12.85-3.42-2.78-7.21.19-10.83-.6a2.61,2.61,0,0,0-3.38,2.65c-.16,2.59,1.51,3.4,3.39,3.16,5.36-.67,6.14,2.19,5.69,6.51C201.9,219.83,201.62,221.37,202.68,223.08Zm51.92-160c3-.87,8.14,2.34,7.51-4.82-.5-5.72-1.39-7.31-6.18-7.31-6,0-10.05,3-9.78,8.18C246.47,65.16,251.5,62.28,254.61,63.13ZM254.4,256c-9.28,0-10.08,1.51-6,9.85,1.86,3.75,4.89,1.91,7.37,2.07,4.39.28,5.82-2.18,6.32-7.37s-2.47-4.75-5.73-4.56C255.74,256,255.07,256,254.4,256Zm28.08-19a44.27,44.27,0,0,0-4.89,0c-1.51.18-3.57-1-4.39,1.1-.68,1.77.09,3.39,1.15,5.06,2.84,4.5,7.58,2.89,11.48,4,2.32.66,4.63.36,5.68-1.41s.75-4.27-.52-6.55C288.68,235.09,285,237.94,282.48,237Zm31.44-40.16c1.19,2.28-3.09,7.53,4.05,7.24,6.15-.25,8-1.44,8-6.63.09-5.75-2.66-9.33-7.69-9.25C312.21,188.3,314.35,193.17,313.92,196.84ZM255.25,99c-3.19.45-6.58,2.88-10.26,4.58-.36.17-.84.92-.73,1.16,1.42,3.27,1.28,8.43,4.21,9.42,2.28.78,6.94-1,8.74-4.75.77-1.62,1.82-3.1,2.63-4.7C261.53,101.36,260,99,255.25,99ZM152.5,237v0a45.94,45.94,0,0,0-6,0c-4,.53-4.6,3.55-4.51,6.88.09,3.61,2.95,3.61,5.26,3.5a41.19,41.19,0,0,0,9.22-1.52c3.24-.92,4.6-3.64,4.46-6.84-.17-3.79-3.23-1.57-5-2A13.59,13.59,0,0,0,152.5,237ZM314,121.87c.11,8.27.11,8.27,3.92,8.26,5.74,0,8.19-2.75,8.12-9.05-.06-5.27-1.22-5.8-7.75-6.2C311.18,114.45,314.8,119.48,314,121.87ZM254.37,132.4c6.16-2.18,6.43-8.1,8.13-12.79.56-1.54-1-4.25-3.62-5.21-3.51-1.28-6.15.73-8.83,2.06-2.44,1.21-.31,3.36.12,4.83C251.28,125,252.92,128.65,254.37,132.4ZM120,198.09a45,45,0,0,1,.05-6.11c.38-2.52-1.12-3.18-3-3.45-3.11-.45-7.14,1-7.45,3-.52,3.33-3.41,7.12-.13,10.63,2.84,3,6.66,2.32,9.7,1.47C121.77,202.91,119.51,199.53,120,198.09Zm0-74.33c.21-8.66.21-8.66-3.51-8.77-7.8-.24-8.49.56-7.57,8.68.54,4.8,2.68,6.38,7.59,6.48,5.52.1,2.76-4,3.47-6.29C120.13,123.55,120.05,123.19,120.05,123.76Zm19.58,87c6.39.9,9.64-2.73,12.93-6.65,1.69-2,3.8-4.57,2.06-6.35s-5.2-1.33-7.64.73c-2.77,2.34-5.56,4.67-8.46,6.84-1.53,1.15-3,2.24-2.44,4.38C136.74,212.25,138.88,210.47,139.63,210.8Zm156.16.1c.36-.06,1.64.52,2-.73a3.1,3.1,0,0,0-.82-3.64c-3.76-3-7.4-6.15-11.32-8.91a5,5,0,0,0-6,.11c-1.06,1-.74,3.1.31,4.61A18.64,18.64,0,0,0,295.79,210.91ZM317,264c3.23.74,4.63-1.44,4.94-4.62.49-5-2.87-8.13-8.82-8.48-2.49-.15-4.8,0-5,3.14A9.28,9.28,0,0,0,317,264Zm-41.18,6.08c3.17-.11,5.24-2.46,5.13-5.79s-4.53-9.91-6.68-10c-3.07-.13-5.4,3.31-5.29,7.81C269.09,266.11,272.62,270.22,275.84,270.11ZM322,59.7c-.35-2.27-.54-4.85-4.35-4.87a9.13,9.13,0,0,0-9.52,9.56c0,2,.76,3.65,3.56,3.68C317.76,68.14,321.82,65.19,322,59.7Zm-53-2.5c0,4.55,1.66,6.82,5.1,6.87,2.81,0,7-5.58,6.79-9.76-.14-3.16-1.28-5.78-5.44-5.44C272,49.16,269,52.78,269,57.2ZM112.77,258.61c0,4.55.7,5.37,4.46,5.4,5.39,0,8.65-3.49,8.71-9.61,0-2.78-1.68-3.57-4.25-3.55C115.69,250.89,112.75,253.36,112.77,258.61ZM165,260.86c1.35-4.22-2.09-5.48-5.28-6.38-2-.55-7,6.48-6.38,9.41.56,2.52.48,6.3,4.91,6.14C162.08,269.89,165,266.18,165,260.86ZM112.81,58.91c.27,7.22,1.22,7.91,8.79,9.08,2.57.4,4.2-.58,4.35-3.31.3-5.34-3.24-9.75-7.82-9.86C114.53,54.73,112.27,56,112.81,58.91ZM318.24,107c5.93,0,9.76-2.62,9.75-6.49,0-4.27-3.2-4.41-6.21-4.53-3.9-.16-10.11,3.74-9.54,6.2C312.95,105.25,314.38,108.28,318.24,107Zm.6,105c-3.38-.84-6,.68-6.61,4.59-.42,2.54,5.41,6.42,9.41,6.43,3.09,0,6.08-.4,6.34-4.44C328.21,214.94,324.26,212,318.84,212ZM165,58c0-5.44-2.79-9-6.64-9-4.24,0-4.6,3.49-4.91,6.1-.49,4,3.8,9.35,6.64,8.91C163.62,63.46,165.92,61.67,165,58Zm-49.85,49c3.55,1,5.83-1,6.65-4.64.51-2.29-5.09-6.34-8.36-6.38-3.74,0-6.73,1-7.19,5.31C106,104.08,110.33,107,115.17,107Zm-2.86,116c3.88.11,10-3.81,9.46-6.43s-1.42-4.89-5.16-4.72c-5.3.23-10.59,2.41-10.42,5.32C106.4,220.74,108.27,223.15,112.31,223ZM226.23,66.21l0-1.27a33.67,33.67,0,0,0-16.64-.28c-4,1-7.68,3.07-8.58,7.87a3.74,3.74,0,0,0,2.57,4.32c2.07.84,2.17-1.26,2.44-2.58.63-3.06,3.21-3.53,5.53-4.19C216.45,68.72,221.35,67.49,226.23,66.21Zm.5,200.91c-6.06,3.78-6.66,8.74-4.75,14.49.66,2,1.06,4,3.82,3.37,2.25-.48,4-.83,4.39-4.1C230.88,275.58,224.75,272.57,226.73,267.12Zm98.21-98.61c2.64,1.24,5.73-.65,7.49,2.37,2.46,4.2,6,1.2,8.87.75,2-.32,2.14-5.7.43-6.56C334.86,161.55,330.57,162.35,324.94,168.5Zm-.3-19.67c4.31,7.27,11,8.87,17.19,4.9,1.21-.77,1.24-1.89,1.08-3.06-.48-3.51-6.68-6.39-9.07-3.8C331.27,149.65,328.59,149.71,324.64,148.83ZM230.26,40.94c-.53-3.18.72-5.93-2.92-6.45-1.61-.23-3.1-1.2-4.47.51-3.05,3.82-2.29,11.81,1.46,15,.73.62,2.35,1.47,2.23.55C226,46.3,229.82,43.66,230.26,40.94Zm-23,225.87c-.58,3.66.08,6.9-2.86,9.63-1.78,1.66.28,4.81,1.13,6.94.33.83,3.6,3.42,5.67.25C214.82,278.15,213.46,271.6,207.31,266.81ZM109.47,168.9c-5.55-7.83-11.81-5.56-17.91-3.44.16,1.16.24,2.32.49,3.43.63,2.75,6.24,5.3,8,3.3C102.53,169.42,105.39,168.76,109.47,168.9ZM213.08,42.54c.64-1.69-1.07-3.52-1.17-5.71-.07-1.47-.83-3.32-2.74-2.64-1.55.56-3.31.37-4.43,2.93-1.88,4.33,1.38,6.64,2.23,9.86.36,1.36-.86,3.48.86,4,1.89.59,2.34-1.88,3.52-2.9C212.84,46.81,213.18,45,213.08,42.54ZM108.79,149.33c-2.39-.78-5.33,1.59-7.34-1.35-2.35-3.44-5.66-1.19-7.95-.37-2.06.74-2.59,4.34-.91,6C97.23,158.29,106.06,155.83,108.79,149.33Zm13.19,60c-.07,4.67,2.26,8,5.89,7.5,2.9-.4,6.13-1.48,6.14-5.6,0-3-4.65-5.35-10.4-5.11C121.08,206.24,122.39,208.27,122,209.34Zm186.78-97.43c.8-.63,2.78,1.89,3.22-.91.51-3.27.05-6.76-2.59-8.49s-5.66-.5-8.11,1.67c-1.83,1.62-1.36,3.62-1.18,5.51.19,2,2,1,3.15,1.36C305,111.58,306.65,112.35,308.76,111.91Zm-183.59.21c2.75-1.72,8.34,1.92,8.77-4.44.24-3.49-3-6-7-5.66-4.8.35-4.57,4.15-4.93,7.53C121.7,112,122.55,113,125.17,112.12Zm73.44,91.93c.78-.06,2.44-.12,4.08-.36,2.44-.36,3.55-1.56,3.4-4.32-.17-3.08-2.16-2.29-3.82-2.38a25.91,25.91,0,0,1-6.4-.67c-4.2-1.26-4.72,2.67-5.24,4.93-.43,1.87,1.78,3.15,4.12,2.82A33.88,33.88,0,0,1,198.61,204.05ZM274.19,71.3c0-4.77-3.25-7.79-7.22-7.25-4.95.67-2.49,3.91-2,6.41a3.34,3.34,0,0,1,.06,1c-.44,3.37.79,4.85,4.41,4.62C273.17,75.83,273.61,73.19,274.19,71.3ZM160,69.11c-.2,5.13,1.88,7.2,6.21,6.93,4.72-.29,2-4,3-6,.9-1.81,1.72-3.89-.25-5.39s-4.11-.26-6.11.49S159.35,66.94,160,69.11ZM312.07,209.6c-.66-1,1-4.23-1.84-3.19-3.39,1.26-8.86-1.44-10,3.7-.69,3.15,1.64,6.38,5.55,6.81C309.42,217.33,312.09,214.06,312.07,209.6ZM159.92,248.45c0,3.38,3,6.72,6.31,6.35,1.62-.18,4.94-.67,3.58-3.22-1.54-2.88,2.11-8.35-4.2-8.78C161.55,242.52,160,244.8,159.92,248.45Zm114.19.47c.12-3.31-.87-5.67-4.69-6.14-4.1-.51-4.7,1.71-4.5,5a8.85,8.85,0,0,1-.83,2.78c-.89,2.93,1.16,3.82,3.27,4.22C270.34,255.34,273.94,252,274.11,248.92ZM179.95,138.67c.85-3.49-1.42-5.31-4.41-5.52-3.91-.28-3.71,3-3.51,5.64.17,2.29.68,4.55.95,6.83.13,1.16-.07,2.38,1.7,2.38,1.38,0,2.77,0,3.24-1.61C178.65,143.89,180.37,141.67,179.95,138.67ZM303.26,177.9c2.46,2.3,4.79,4.37,7,6.59,1.55,1.58,3,3.17,5.49,2.34,1.7-.57,1.32-2.06,1.29-3.34-.06-2.46,0-4.74-3.13-5.88C310.52,176.4,307.4,175.33,303.26,177.9Zm-.5-37.38c4.86,3,8.15,1.76,11.49.5,3.06-1.16,2.73-3.73,2.75-6.16,0-1,.76-2.34-1-2.83-2.36-.65-4,.27-5.61,2C308.21,136.21,305.67,138.07,302.76,140.52ZM167,159.33c0,1.16.08,2.32,0,3.47-.14,1.75.76,3.22,2.19,3.4s1.56-1.67,2-2.85c1.34-3.51,2.59-7.07,4.19-10.46,1.43-3-.35-3.08-2.37-2.84C169.41,150.47,167,154.32,167,159.33Zm137.59-94c-3.77,0-10,5.25-10.5,9-.16,1.17-.79,2.82.79,3.53a2.81,2.81,0,0,0,3.22-.68q4-4.1,8-8.19a2.06,2.06,0,0,0,.44-2.69C306.1,65.48,305.56,65,304.57,65.28ZM294.1,169.76c-3.42-4.54-6.54-5.46-11.38-2.55-2.89,1.74-.08,4.48.26,6.76a13.05,13.05,0,0,0,.84,2.8c.3.77-.09,2.38,1.51,1.83,1-.33,3-.32,2.55-1.77C286.31,171.44,290.52,171.1,294.1,169.76Zm-162.51,7.91c-9-2.62-12.54-1-14,5-.35,1.46-1.27,3,.35,4s3.38.36,4.87-1.08C125.43,183,128.2,180.69,131.59,177.67Zm66.84,68.26c-2.86,2.91-5.52,5.81-8.39,8.47-1.57,1.46-.48,2.6-.13,4,.28,1.11.6,1.55,1.94,1.44C199.05,259.24,202.13,253.32,198.43,245.93Zm-.11-172.66c3.38-7.3,1.37-12.19-4.71-13.65-1.36-.33-2.68-1.56-3.67.65-.83,1.86-1,3.23.74,4.81C193.23,67.45,195.46,70.16,198.32,73.27Zm89.38,79.57a4.4,4.4,0,0,0,5.64-3c.87-2.61-2.11-1.83-3.29-2.19-2.85-.87-2-2.89-2.05-4.75,0-1.15.11-2.49-1.4-2.77-.73-.14-2.12,0-2.24.37-1.15,3.22-3.08,6.61-2.77,9.75C281.84,152.86,286.15,151.7,287.7,152.83ZM146,143.91c1.5,3.82-1.8,3.51-3.65,4-2.54.72-2.31,1.45-.82,3.23,3.28,3.9,6.78,1.23,9.84.17s0-3.53.16-5.38a5.2,5.2,0,0,0-.72-2.8c-.69-1.28-.5-3.53-3-3.11S146.2,142.45,146,143.91Zm165-71c-.45-.65.65-2.16-.83-2.72a2.93,2.93,0,0,0-3.22.62c-2.7,2.66-5.51,5.23-8.09,8-1.64,1.76-.94,2.9,1.39,3.25C304.49,82.67,310.94,77.43,311,72.9ZM234,68.36c-.2,1.36.06,3.2,1.3,3.82s2.05-1.24,3-2.08c1.94-1.8,3.74-3.76,5.65-5.59,1.13-1.08,1.4-2.15.49-3.5-.5-.73-.31-1.85-1.81-1.89C237.22,59,233.87,62.42,234,68.36ZM140,169.75c3.5,1.25,7.82,1.88,6.16,7.4-.29,1,1.47,1,2.31,1.4,1.63.76,1.44-.76,1.69-1.54.78-2.47,1.38-5,2.25-7.45.41-1.14.33-1.76-.73-2.38C147.58,164.75,143.12,165.62,140,169.75ZM133,82c1.06-.15,2.41.43,2.91-1.14.36-1.14-.34-1.87-1.06-2.57-2.48-2.43-5-4.82-7.43-7.29a3.15,3.15,0,0,0-3.63-.82c-1.31.56-.76,2-.73,3.11C123.15,77.15,128.87,82.09,133,82ZM235.79,245.43a18.5,18.5,0,0,0-1.33,2.35,10.29,10.29,0,0,0,2.3,10.49c2.2,2.42,7.62,1.18,8-1.4s-2.2-3.39-3.42-5C239.76,249.81,237.94,247.9,235.79,245.43ZM131.48,140.63c-3-2.48-5.29-4.37-7.57-6.27-.51-.42-.91-1-1.44-1.36-2-1.44-4.93-2.28-5.19.71s-.19,7.18,4.74,8.27C124.85,142.6,127.32,142.7,131.48,140.63Zm-1,112.38c3.88.08,9.47-5.52,9.47-9.35,0-.92.36-2.12-.9-2.55a2.79,2.79,0,0,0-3.21.56c-2.31,2.39-4.7,4.71-7,7.1-.77.8-2,1.49-1.54,2.88C127.9,253.23,129.35,253.09,130.52,253Zm172.7,0c1.26-.09,2.73.39,3.49-1.15a1.78,1.78,0,0,0-.61-2.18c-2.68-2.67-5.2-5.53-8.06-8-1.61-1.38-3.75-1.93-4,1.43C293.69,247,299.38,253,303.22,253Zm-173-187.48c-1.1-.41-1.93-.58-2.55.67a2,2,0,0,0,.29,2.64c2.67,2.7,5.31,5.45,7.94,8.19a2.85,2.85,0,0,0,3.17.83c1.68-.66,1-2.31.88-3.45C139.59,70.82,134.1,66,130.21,65.53ZM123,246.08c.14.93-.4,2.18.66,2.71a2.7,2.7,0,0,0,3.17-.78c2.73-2.68,5.54-5.28,8.23-8,1.75-1.78,1-2.91-1.2-3.33C129.52,235.85,123,241.56,123,246.08ZM226,58.16c-1.34,4.45,1.73,7.19,4.78,7.11,3.22-.08,2.71-4.33,3.23-7.1.87-4.6-2.74-4.71-5.3-5C224.9,52.84,226.37,56.23,226,58.16ZM226,260c0,5.21,2.06,7.06,6.26,4.83,3.36-1.79,1.77-5.16,1.07-7.9-.37-1.44-.38-4.15-2.39-3.63s-5,1.42-4.94,4.71C226,258.66,226,259.32,226,260Zm-18,.58c1.18-4.31-1.67-7.26-4.75-7.14s-2.83,4.38-3.24,7.25c-.61,4.3,2.33,4.39,5.18,4.62C209.23,265.61,207.65,262.46,208,260.57Zm0-202.4c-.28-1.38.86-3.53-1.1-4.72s-4.33,0-5.54,1c-2.55,2-1.44,5-.52,7.75.46,1.35.73,3.69,2,3.33,2-.54,4.65-1.18,5.09-4A24.32,24.32,0,0,0,208,58.17ZM320.6,160.07c-2.74.57-6.7-1.4-6.68,4.06,0,4.54,3.22,2.6,5.22,2.83,3.56.42,7.33-.86,7.55-4.42C326.95,158.34,322.72,160.88,320.6,160.07Zm-19.35,76.75c-.95.19-2.36-.27-2.92,1s.72,2,1.49,2.82c2.44,2.46,4.94,4.85,7.4,7.29a2.62,2.62,0,0,0,3.11.82c1-.53.62-1.74.66-2.67C311.18,242,305.81,236.79,301.25,236.82Zm9.23-92.52c2.26,5.3,6.26,7.38,11.09,5.61,2.69-1,1.79-3.72,1-5C319,139.07,314.64,143.68,310.49,144.3Zm-197,15.78c-2.22.74-6.46-1.67-6.16,2.5.25,3.45,4,4.8,7.62,4.4,2-.23,5.1,1.54,5.15-3C120.16,158.28,116,160.81,113.5,160.08Zm10-15.68c-3.33-1.08-6.45-3.18-10.25-1.42-2.08,1-2.24,2.62-2.24,4.45,0,1.09-.22,2.14,1.48,2.59C117.8,151.43,121.35,149.72,123.5,144.4Zm35.37,42.54c.15-1.77-1.41-2.17-2.48-2.66-1.57-.73-2.84-2.34-4.82-2-.25,0-.51.77-.54,1.19-.23,3.44.24,6.89-.75,10.32-.41,1.42,1.23,1.11,2.11,1.17C154.64,195.13,158.82,189.9,158.87,186.94Zm124.91,5.86c-.87-1.48-.57-3.5-.83-5.45-.23-1.76,1.21-4.84-1.08-5a8,8,0,0,0-6.13,3.46c-1.43,2.53,1.54,4.92,2.38,7.45.65,2,2.51,1.75,4.17,1.72C283.55,195,284.12,194.44,283.78,192.8ZM194.36,94.5A24.5,24.5,0,0,0,184.07,93a2.62,2.62,0,0,0-2.69,1.68c-.4,1-.73,2.24.18,2.72,2.73,1.44,5.52,3.16,8.47,3.64,1.91.31,2.08-2.84,3.19-4.33A15.59,15.59,0,0,0,194.36,94.5Zm-77.71,82c1.53-.62,4.69-.34,6.29-2.68.84-1.22-.84-3-1.94-4.16-1.41-1.44-3.47-.88-5.17-.71s-4.59-1.74-4.85,2.1C110.75,174.49,112.25,176.32,116.65,176.53Zm202.66-7.22c-4.79-1.09-7.69.13-8.14,3.56-.47,3.59,3.43,2.54,5.39,3.42a4.79,4.79,0,0,0,6.25-6.27C321.89,167.75,319.58,169.42,319.31,169.31Zm-173.17-105c-.81-4.6-5.47-1.24-7.76-3.2-1-.82-2.47,0-2.4,1.93a8,8,0,0,0,5.46,7.42C144.61,71.32,146.63,68.39,146.14,64.35Zm136.57,72.83c.71-4.23-.32-7.79,1-11.18.66-1.65-.51-1.85-1.83-2-5-.63-4.28,4.07-6,6.44-2.11,2.84.7,3.26,2.18,4.23S280.88,136.2,282.71,137.18Zm-131.33-.29c8.47-3.78,9-5.53,4.48-11.69-1.33-1.8-2.91-1.12-4.47-1.13-1.11,0-1.35.7-1,1.66C151.66,129.23,150.43,133,151.38,136.89ZM134,216.45c-3.76,2.89-6.11,11.26-4.57,15.53.38,1,0,3.4,2.48,2.85,1.87-.4,2.13-1.71,2.11-3.35C134,226.69,134,221.9,134,216.45ZM119.08,82.54c.68,1.71-.55,5.66,2.62,6.08,2.55.34,6.95-.44,6.48-4.63-.34-3.09-3.79-4.78-6.53-5.71C119.56,77.58,118.78,79.81,119.08,82.54ZM288,64.76c-.51,3.7,1.42,5.46,4.51,6,1.54.29,5.52-5.43,5.56-7.47,0-1.64-.95-3.15-2.16-2.16C293.47,63.1,288.48,59.48,288,64.76ZM248,93c-2.46,0-5.28-.42-6.84,1.79-.93,1.31.48,3.24,1.23,4.6,2.18,3.95,4.5.39,6.6-.29,1.81-.59,4.64-.78,3.89-4C252.18,92.2,249.8,93.19,248,93Zm40,160.6c.51,6,5.78,2.29,8.51,3.92,1.85,1.11,1.61-1.15,1.49-2-.47-3.43-2.34-6.62-5.55-7.23C289.7,247.75,287.65,250.16,288,253.59Zm27-170.41c.11-2.52.39-5.36-2.37-4.9-3,.49-6.13,2.77-6.64,5.71-.67,3.92,3.43,4.65,6,4.6C315.53,88.54,314.11,84.75,314.95,83.18ZM146,253.54c.48-3.56-1.73-5.82-4.41-5.28-3.17.65-5.12,3.78-5.57,7.24-.13,1-.08,3.07,1.6,2C140.32,255.82,145.7,259.66,146,253.54Zm140-1.67c-.17-5.06-4.82-2.37-7.16-3.73-1.55-.9-3.17.13-2.93,2.49a6.83,6.83,0,0,0,6,6.16C284.82,257.27,286.53,255.21,286.08,251.87Zm.13-184.68c-.16-2.9,0-5.52-3.91-5.21-2.84.22-6.38,3.79-6.32,6.47,0,1.52.77,3.28,2.12,2.35C280.61,69.07,285.4,72,286.21,67.19ZM147.87,251.42c-.33,3.26.9,5.14,3.9,5.5,2.44.29,6.19-3.89,6.28-6.48.07-2-1.05-3.12-2.58-2.32C153,249.39,148.84,247.25,147.87,251.42ZM315,235.93c-1.13-1.66.93-5.85-3.48-5.8-2.56,0-5.88,1-5.41,4.35.44,3.18,3.27,5.14,6.48,5.62C315.43,240.51,315,238.21,315,235.93Zm-195.83.24c-.41,2.72.06,4.27,2.33,3.94,3.22-.47,6-2.51,6.49-5.47.62-3.66-3-4.67-5.63-4.49C118.1,230.45,119.82,234.52,119.15,236.17Zm87.4.06c5.76-2.29,4.4-6.35,2.73-10.49-.39-1-.21-2.28-2.08-1.85s-3.68.6-4.87,1.83c-.81.83-.81,3.34,0,3.63C205.84,230.53,205.13,234,206.55,236.23ZM320.28,158V158c1,0,2,0,3,0,1.27-.07,2.85.41,3.48-1.19.73-1.86-1-2.67-2-3.56-2.87-2.44-6.34-1.13-9.55-1.12-1.61,0-1.07,1.74-1.13,2.8-.09,1.37,0,2.8,1.8,3C317.29,158.09,318.79,158,320.28,158ZM113.47,158c1.16,0,2.33-.08,3.48,0,2.42.21,3.06-.92,3.12-3.22.08-2.67-1.24-3-3.35-2.86-1.65.11-3.34-.14-5,.11-2.27.36-4.46,1.93-4.47,4,0,3,2.93,1.66,4.69,2A7.86,7.86,0,0,0,113.47,158Zm110,97.86c-1.32,2.25-5.32-1-5.47,3.29-.09,2.46,0,4.93,0,7.4a2.33,2.33,0,0,0,1.74,2.58c1.55.53,2-.67,2.71-1.49C225.33,264.18,223.61,260.18,223.49,255.9ZM148,66.31c-.1,6.19,5.52,2.65,8.05,4.49,1.42,1,2.14-.8,2-2.26-.39-3.7-2.63-5.85-6.13-6.49C148.65,61.46,147.93,63.6,148,66.31Zm62.14,189.63c.29,4.4-1.44,8.52,1.81,12.14,1.53,1.71,3.4,1.68,3.75-.07a25.16,25.16,0,0,0,.11-9.78C215.28,255.87,212.22,257,210.09,255.94ZM211.65,187c-2.78,0-5.56-.09-8.33,0-4.24.16-1.81,3.44-2.27,5.29-.55,2.19.77,2.74,2.83,2.74C208.79,195.05,209.32,190.41,211.65,187Zm5.92,101.92c1.17-1,3.26-2,3.19-2.87a35.51,35.51,0,0,0-2.18-9.41,2,2,0,0,0-3.59,1q-.7,3.09-1.56,6.14C212.37,287.49,216,287.25,217.57,288.93Zm.34-233.4c.79,2-1.42,5,1.53,6.34,3.45,1.57,4.51-.07,4.64-5.72.07-3.16-.93-6.42-3.75-6.56C216.77,49.4,218.42,53.21,217.91,55.53ZM216,56h0q0-1.25,0-2.5c0-1.62.43-3.57-1.88-4-2-.34-2.93,1.49-3.56,2.82-1.24,2.64-.63,5.58-.43,8.36.15,2,2,1.1,3.21,1.23,1.4.17,2.72,0,2.65-2C215.94,58.68,216,57.34,216,56Zm127.15,99.25c-3.15,1.84-8.68,0-8.74,4.13-.05,3.87,5.16,2.66,8,3.54s3.89-1.92,3.93-3.67A4.22,4.22,0,0,0,343.13,155.26Zm-28.94,69.55c.08-3.33-2.36-5.23-4.89-6.42a2.54,2.54,0,0,0-3.3,3c.45,2.66-.44,6.3,2.83,7.18C309.92,228.87,314.77,229.58,314.19,224.81ZM128.09,97.41c-1-2.49,1.08-6.79-3.47-7.24-2.08-.21-5.15.31-4.73,4s2.2,5.65,6,5.83C127.88,100.13,128.65,99.46,128.09,97.41ZM128,222.79c.7-2.74-.55-4.79-3-4.38-2.71.45-4.62,2.78-5.16,5.75-.78,4.29,2.92,4.53,5.14,4.45C128.41,228.48,127.07,224.76,128,222.79ZM314.18,94.33c.48-3.85-2.68-4.39-4.7-4.14-4.11.5-2.92,4.43-3.47,7.15-.46,2.26.73,2.95,2.75,2.66C312.1,99.53,313.8,97.48,314.18,94.33ZM221,34c-.18-2.61-2.25-3.78-3.62-3.41-1.75.48-5,1.5-4.07,4s-.28,7.56,3.62,7.37C221.38,41.68,219,36.16,221,34Zm48.72,70.45c-.25-.26-.6-.94-1.11-1.11a7,7,0,0,0-6,1.18c-2,1.7-2.86,4.66-4.08,7.16a4.52,4.52,0,0,0,1.88,1.27C261.84,113.28,269.78,106.23,269.75,104.4Zm3.26,5.4c-.32-.72.57-2.13-.74-2.85-1.7-.93-2.27.82-3.14,1.61-1.83,1.66-3.48,3.52-5.29,5.22-1.22,1.14-.27,2,.1,3.07a1.29,1.29,0,0,0,1.38,1.05C268.12,117.84,273,112.92,273,109.8ZM161,110c0,2.89,4.74,7.82,7.64,7.88,1.78,0,1.9-1.63,2.19-2.75s-7.61-8.72-8.54-8.45C160.51,107.19,161.1,108.75,161,110Zm98.86,37.65c.92-4,2.62-7.58,2.18-11.44-.26-2.28-1.56-3.36-3.59-3.06-1.37.2-3.65.53-2.93,2.81C256.76,139.9,258.38,143.74,259.85,147.64ZM93.13,156.08c-3.49-.76-4.68,1.55-4.78,3.45s1.46,4.17,3.86,3.35c2.66-.91,7.45.42,7.48-3.61S94.87,157.46,93.13,156.08Zm237.56,59.5c.41-4.15,2.24-7.59-1.62-10.16-1-.69-1.09-3.15-3.29-1.62a3.62,3.62,0,0,0-1.66,4.29C325.09,211.25,327.44,213.24,330.69,215.58ZM229,270c-.33,2.53.66,4.68,3.24,4.39,2.23-.24,5.4-.91,5.52-3.92a3.58,3.58,0,0,0-4.19-3.72C231.79,267,228.3,265.83,229,270ZM301,217c0,5.66,0,10.61,0,15.57,0,1,.25,2,1.43,2.29,1,.2,1.25-.52,1.67-1.32C306.06,229.75,304.74,220.9,301,217ZM322,83.48c0-.82,0-1.48,0-2.15,0-1.62.27-3.87-1.83-4s-3.54,1.42-3.24,4a9.56,9.56,0,0,1-.3,3.45c-.33,1.27-1.36,2.8-.18,3.68,1.4,1,3.19-.27,4.58-.74C323,87.08,321.6,84.82,322,83.48ZM173.27,113c1.07-.23,2.33-.25,2.2-1.87-.26-3.16-5.44-7.93-8.67-8-1.31,0-2.31.35-2.43,1.74C164.26,105.89,172.11,113,173.27,113Zm60.81-61c1.21-.17,3.69-.72,3.75-3.26.09-3.44-3.38-4-5.68-4.42-2-.32-3.12,1.8-3.2,4.13C228.85,51.47,230.59,52.06,234.07,52Zm96.24,51.61c-2.84,2-5,3.92-6.1,6.77a3.36,3.36,0,0,0,1.34,4.3c1.93,1.33,2.53-.42,3.59-1.27C332.44,110.74,331.73,107.52,330.31,103.6ZM292,259c-1,1-3.71-2.27-3.94,1.4-.1,1.66-.3,3.49,2.18,3.67a28.67,28.67,0,0,1,4,.33c2.19.47,4.47.3,4.68-2.13s-2.1-3.09-4.23-3.25C293.8,258.94,293,259,292,259Zm30-22.47c0-1.7,0-2.86,0-4,0-1.94-1.83-1.61-2.85-2.2a2.18,2.18,0,0,0-2.75.2c-1.13,1.2,1.23,10.38,2.83,10.47C323.15,241.22,321.59,238,322,236.53Zm6.63-56.43c2.67-.89,3.33-3.36,3.36-5.48,0-2.31-1.69-3.6-4.33-3.69-3.89-.14-3.11,3.26-3.2,4.85C324.31,177.73,326.19,179.5,328.59,180.1Zm-55.76,92.1c-2.21-2.45-4.1-5-7.72-5.77-2.09-.46-2.77.64-3.61,1.73-1.17,1.51.55,1.86,1.28,2.61C265.68,273.76,268.84,275,272.83,272.21Zm-72.06-5.38c-2.22-.19-3.84.65-3.94,3.12-.14,3.36,2.58,4,4.94,4.31s3.06-1.56,3.31-3.82C205.48,266.84,203.28,266.8,200.76,266.82ZM106.33,171c-2.44-.18-4.42,1.29-4.07,3.23.41,2.27.95,5.69,4.37,5.63a3.49,3.49,0,0,0,3.13-4.23C109.36,173.9,110,170.48,106.33,171Zm66.91,98.25c-1.12-1.5-1.68-3.3-3.77-2.89-3.36.65-6.38,2.27-7.24,5.64-.33,1.3,2.48,1.91,3.92,1.9C169.38,273.84,171.15,271.32,173.24,269.23ZM168.94,52a3,3,0,0,0,3.57-1.3c.49-.8.66-1.53-.07-2.17-2.56-2.24-5-4.9-9-2.6-1,.57-2,1-1,1.93C164.25,49.57,165.42,52.38,168.94,52ZM138.73,264.65c2.11-.23,3.58-.48,5.05-.53,2.55-.09,2.14-1.9,2.25-3.52.19-2.73-1.63-1.66-2.92-1.63s-2.65-.06-4,.06c-1.91.17-4,.93-3.9,3S137.51,264.47,138.73,264.65Zm-26.66-28c-.19,1.9-.19,4,2.1,4.29,2.87.38,2.82-1.95,2.89-4a28.44,28.44,0,0,1,.59-3.35c.21-1.33,1.32-3.11-1-3.5a3.16,3.16,0,0,0-3.89,2.19A35.3,35.3,0,0,0,112.07,236.65ZM324.32,143c.46,2.45.84,4.4,3.76,4.52,2.58.11,4-1.17,3.9-3.27s-.53-5-3.5-5.1C326,139.07,325.1,141.39,324.32,143ZM117.52,88.79c.14-.29.43-.61.4-.88-.27-2.45-.73-4.89-.85-7.35-.07-1.57-.53-2.65-2.09-2.83-1.89-.23-2.54,1.26-2.89,2.7C111,84.77,113,87.66,117.52,88.79Zm-12.88,15.27c-2.52,3.34-2.1,6.29.2,9.1.88,1.08,1.62,2.63,3.56,1.59s1.89-2.64,1.48-4.26C109.15,107.61,106.71,106.08,104.63,104.06Zm-.15,110.68c2.24-1.85,4.52-3.53,5.38-6.32.58-1.87.14-3.74-1.76-4.61s-2.4,1.08-3.21,2.07C102.65,208.62,102,211.54,104.49,214.74ZM272.58,46.79c-4.15-3.48-7-1.09-9.72,1.56-.66.63-1.94.94-1.26,2.26A2.79,2.79,0,0,0,264,52.13C268.4,52.67,270.16,49.2,272.58,46.79ZM205,48.39c.17-2.2-1.1-4.22-2.73-3.83-2.19.52-5.62.78-5.36,4.53.18,2.63,2.23,2.87,4.29,2.93C203.78,52.09,205.37,51.17,205,48.39ZM319.71,68.76c-3.59.32-7.49.07-6.79,5.48.24,1.84.93,3,2.75,2.67C320.49,76.18,320.44,72.75,319.71,68.76Zm-25.83-14V55c-1,0-2,.05-3,0-2-.13-3,.6-3,2.81,0,2.75,1.84,2.35,3.36,2.19a38.44,38.44,0,0,0,6.2-1.25,2.12,2.12,0,0,0,1.42-2.34c-.07-1.38-1.11-1.46-2.09-1.54S294.87,54.81,293.88,54.81ZM313,245.38c-1.15,4.27,2.54,4,5,4.51s1.83-1.59,2-3c.41-3.54-1.71-4.63-4.69-4.93C312.71,241.73,312.8,243.4,313,245.38ZM105.44,147.5c3.62.35,4.19-2.32,4.42-4.69a3.26,3.26,0,0,0-3.22-3.67c-3.38.11-3.78,3.42-4.37,5.72C101.87,146.37,103.64,147.61,105.44,147.5ZM165,96.94c-.59,3.37,1.76,4.43,4.56,5a2.48,2.48,0,0,0,3-2.94,8,8,0,0,0-5.67-5.56C165.14,93,164.92,95.19,165,96.94ZM126.34,57.11c.24,4.14,1.18,7.41,6.11,6.86,2.52-.28,1.89-2.56,1.68-3.79C133.23,55,129.23,57.59,126.34,57.11Zm-.23,204.72c3.14-.26,7,2,8-3.14.24-1.34.73-3.28-1.91-3.73C126.47,254,127,258.23,126.11,261.83ZM269,97.28c0-2,0-4.42-2.16-3.76a8.26,8.26,0,0,0-5.41,5.33c-.28.95.48,3.57,2.9,3.09C267,101.41,269.73,100.73,269,97.28ZM141.47,54.87c-2.4,0-6-.53-6,1.89,0,3.49,4.14,2.75,6.66,3.15,1.42.23,3.74,1.13,3.93-2C146.29,53.73,143.22,55.35,141.47,54.87ZM304.32,262c1-.61,3.86,1.33,3.28-1.54-.4-2,.42-5.91-4-5.44-1.7.18-3.8-.57-3.68,2.45C300,260.23,300.63,262.37,304.32,262ZM159,111.44c1.15-4.57-3-3.46-5.2-4.32-1.31-.52-3.07.74-2.58,2,1,2.54,2.44,5.27,5.47,5.7C158.37,115.09,159.72,113.78,159,111.44ZM307.81,57.18c-2.82.47-6.61-2.3-7.74,2.63-.31,1.37-1.27,3.91,1.8,4.17C306.63,64.37,307.44,61.13,307.81,57.18Zm-84.54,154.9c3.68-.52,6.12-.78,8.52-1.22a2.6,2.6,0,0,0,2.24-2.81c.08-2-1.21-1.75-2.5-2.18C226.23,204.1,225.83,208.53,223.27,212.08Zm51.79-100.74c-.37,2,.23,3.74,2.26,3.52,3.09-.33,4.59-3.1,5.47-5.61.55-1.57-1.45-2.73-2.93-2.11C277.88,108,274,107,275.06,111.34Zm-8.48,53c1.38-9.54.83-11.06-5.14-14.07A34.63,34.63,0,0,0,266.58,164.34ZM115.12,247c.22.68-1,3,1.41,2.77s5.17-.85,4.61-4.72c-.26-1.78.09-3.26-2.45-3.12C115.67,242.14,114.57,243.66,115.12,247ZM121,73.3c.65-2.77-1-3.89-3.64-4.28s-2.23,1.35-2.41,3c-.3,2.94.7,4.78,3.75,4.88C120.92,77,121.29,75.38,121,73.3Zm14.12,69.23c1.13,4.62,4,4.9,7.69,3.3,1.67-.72,1.23-2.18,1.15-3.44-.12-1.8-1.5-1.46-2.61-1.26C139.29,141.52,137.26,142,135.11,142.53ZM299,142.41c-2.07-.78-4.15-.17-6-1.15-.9-.47-2.48-.82-2.82.82-.29,1.39-.61,3,1.28,3.83C295,147.49,297.74,147.2,299,142.41ZM144.11,175.09c-.3-3.06-3-2.63-5-3a3,3,0,0,0-3.47,3.2c1.07,3.41,4.8,1.07,7.17,2.44C144.16,178.49,143.75,176.22,144.11,175.09Zm154.77.38c-1.2-1.37-1.36-3.84-3.77-3.4-2,.37-4.9-.28-5.07,3.07,0,1-.33,3.18,1.06,2.57C293.58,176.62,296.77,178.12,298.88,175.47Zm-77.15,12.31c1.84,2.28,3.51,4.44,5.31,6.49a2.51,2.51,0,0,0,1.79.47c.46,0,.4-.51.42-1C229.41,189.14,226.62,186.69,221.73,187.78Zm96.58,22.33c1.05-.93,3.77,1.61,3.8-1.88,0-3.11-2.32-2.29-3.9-2.16s-4.1-1.36-4.13,1.84S316.6,209.67,318.31,210.11Zm-.14-97c1.09-.84,3.71,1.13,3.82-2.11s-2.45-1.94-3.84-1.94-3.94-1.32-4.1,1.78S316.47,112.59,318.16,113.15Zm-202.09-4.22c-1.26.71-3.79-1.29-4,1.82s2.2,2.28,3.74,2.18,3.92,1.3,4.18-1.73S117.68,109.33,116.08,108.94Zm0,101.29c1.08-1,3.77,1.17,3.93-2.08s-2.36-2.1-3.84-2.06-3.9-1.26-4.1,1.84C111.8,211.29,114.48,209.45,116,210.22ZM156.3,86.36c1.5,2.48,3.65,3.78,5.59,5.29.67.52,1.27,1.67,2.46.6,1.37-1.24.12-1.92-.37-2.91C162.4,86.14,160,85.15,156.3,86.36ZM144.61,99c-1.85,4.15-1.37,5.4,2.68,7.83.7.42,1.36,1,2.17.29a1.71,1.71,0,0,0,.2-2.6C148,102.66,146.35,100.88,144.61,99Zm144.9-.17c-2,2.21-3.72,3.94-5.16,5.89-1,1.31-.44,2.68,1.29,2.66C288.34,107.33,290.89,102.25,289.5,98.81Zm-11.9-12.3c-4.15-2-6,.55-7.92,3.23-.7,1-.86,1.63.06,2.52s1.46.17,2.06-.31C273.85,90.33,276.13,88.94,277.6,86.51Zm-77.33-9c-.26,1.09-.57,2.16-.77,3.26-.22,1.26-.38,2.53-.5,3.81a1.59,1.59,0,0,0,1.17,1.87,1.78,1.78,0,0,0,1.29-.45C204.15,83.74,203.49,79.18,200.28,77.48Zm-2.16,17.31c-5.59,5.62-6.46,7.92-5.22,13.17Zm-27.3,141.74c-2.89,1.41-6.07-1.6-7.76,2-.43.92.2,1.93,1.46,2C167.17,240.8,169.82,241,170.81,236.53Zm27.59-41.67c.33-2.71,1.92-6.32-.4-7.34s-2.45,2.67-3.11,4.46C193.51,195.71,197.54,193.26,198.4,194.86Zm3.88,37.59c1.36,3.32-4.75,5.21-1.65,8.88C205.9,239.26,205,236,202.27,232.45Zm61.66,27.28c.26,1.84-.83,4.59,2,4.81,2.2.17,1.08-2.23,1.15-3.41.1-1.81.87-4.57-1.82-4.82C263.11,256.11,264.39,258.57,263.93,259.73Zm-.17-201.29c1.42.84-1.46,3.48,1.4,3.68,2.53.18,2.09-2.19,1.89-3.69s1.35-4.29-1.64-4.25C262.85,54.22,264.48,56.82,263.77,58.44Zm-93.46.14c-1-1.28,1.09-4-1.61-4.39S167,56.51,167,57.85c0,1.56-1.15,4.15,1.75,4.27C171.34,62.23,169.51,59.86,170.31,58.59Zm-3,206.53c4.35-1.79,2.39-5.31,2.69-8a.91.91,0,0,0-1.36-.87c-2.83,1.38-1.31,4-1.63,6.12A12.06,12.06,0,0,0,167.29,265.11Zm66.13-60.78c-2.12-2.92-.8-6.59-4.34-7.15-1.57-.25-.9,1.69-1.08,2.69C227.32,203.75,230.37,203.09,233.42,204.34ZM318.81,94c1.34-.16,3.11.46,3.18-1.9,0-1.35-.32-2.27-1.87-2.09s-3.54.22-3.93,2.09S317.38,94.11,318.81,94ZM263.38,237.18c.56,2,1.56,3.27,3.49,3.11,1.42-.12,3.75,1.11,4-1.46.27-2.88-2.23-1.61-3.58-1.79A22.3,22.3,0,0,0,263.38,237.18Zm57-8.3c1.75.12,1.57-1,1.58-2,0-3-2.73-1.76-4.11-2.41s-1.94,1.24-1.74,2.22C316.6,229.08,319.41,227.42,320.39,228.87ZM143,83.11c-.7-1.48-1.56-2.82-3.38-3.08s-1.88,1.15-1.89,2.21c0,1.73,1.36,2.56,2.83,2.86C141.89,85.35,142.54,84.3,143,83.11Zm150.63,2.1c1-.84,2.95-1.12,2.74-3.23-.09-.88-.37-2-1.74-2a3.56,3.56,0,0,0-3.4,3C290.92,84.22,292.08,84.95,293.64,85.2ZM147.9,261.45c.38.83-.52,2.43,1.4,2.51s2.37-1.46,2.67-2.94c.4-2-1.09-2.12-2.4-2.3C147.13,258.38,148.35,260.35,147.9,261.45ZM150.06,60c1.55.14,2.09-.65,1.91-2.06s-.67-2.94-2.6-2.87-1.27,1.52-1.36,2.55C147.88,59.08,148.2,60.24,150.06,60Zm136,201.1c-.81-.46,1-2.7-1.49-2.36-1.18.16-3,.14-2.5,2.19.31,1.39.57,3.08,2.58,3S285.85,262.39,286.06,261.08ZM115.29,94c1.35.1,2.67.17,2.61-1.55-.06-2-1.9-2-3.26-2.36s-1.64.58-1.71,1.76C112.82,93.75,113.87,94.13,115.29,94ZM286,57.3c0-1.16.13-2.44-1.62-2.22s-2.13,1.73-2.31,3.19c-.21,1.67,1,1.71,2.18,1.73C286.3,60,285.95,58.54,286,57.3Zm-169.85,167c-1.46.79-3.59.52-3.24,3,.19,1.36.69,1.74,1.83,1s3.31.52,3.21-2C117.9,225.1,117.56,224.07,116.15,224.28ZM106,159.54a2.35,2.35,0,0,0-1.89-2.44c-1.44-.26-2,.67-2.13,2a2.25,2.25,0,0,0,1.77,2.59C105.24,162.05,105.59,160.73,106,159.54ZM330.16,157a2.2,2.2,0,0,0-2.09,2.2c0,1.2.5,2.46,1.81,2.54s2-.91,2.1-2.25S331.85,157.2,330.16,157Zm-101.41,81,4.94,3.63.85-4.57C232.62,237,231,236.57,228.76,238.06Zm-39.18-34c-1.72,1.95-2.28,3.84-1,5.91.42.71,1.44,1.15,1.9.14C191.33,208.22,191.59,206.19,189.58,204.1ZM217.22,274c1.42.46,1.93-.63,2.07-1.83.18-1.58-1.37-1.78-2.25-1.81s-2.35.24-2.24,1.84C214.9,273.53,215.59,274.25,217.22,274Zm-.27-225.85c1.64-.05,2.4-.56,2.17-2.1a1.92,1.92,0,0,0-2.31-1.84c-1.55,0-1.86,1-1.89,2.25C214.87,48.08,216.07,48.09,216.95,48.12Z"/><path class="cls-2" d="M315,374c-8.31-1.83-12.91-7.72-16.46-14.86a94.68,94.68,0,0,0-4.91-8.62,5.57,5.57,0,0,0-6.08-2.45c-2.85.54-1.34,2.94-1.49,4.48-.25,2.64.08,5.33-.1,8-.33,4.69.54,8.32,6.25,8.51,1.62.05,1.76,1.18,1.71,2.44-.05,1.43-1.09,1.49-2.1,1.49q-11,0-22,0c-1.18,0-2.43.05-2.44-1.68,0-1.32.39-2.25,1.94-2.3,5.12-.17,5.88-3.32,5.8-7.71-.21-12.15-.17-24.31,0-36.46.05-3.88-.88-6.54-5.16-6.81-1.51-.09-2-.69-2-2.13,0-1.19.41-1.92,1.69-1.87,10.59.46,21.28-1.29,31.79.94,7.45,1.58,11.7,5.94,12.38,12.88.62,6.27-2,11.66-7.49,14.63-3.62,2-3.26,3.39-1.39,6.14,3.25,4.78,6.25,9.73,9.36,14.61a14.31,14.31,0,0,0,6,5.76c2.49,1.12,2.89,2.75,1.61,5Zm-29-42.78c0,3.15,0,6.3,0,9.44,0,1.53.35,2.31,2.15,2.55,7,.94,13.33-3.45,13.82-10.14.76-10.31-3.35-13.79-11.05-14.89-2.79-.4-5.15.93-4.94,4.59C286.13,325.58,286,328.4,286,331.22Z"/><path class="cls-2" d="M224,374c-7.71-3.5-14.74-7.74-18.42-15.95-7.44-16.58-1.28-40,19.89-44.51,17.11-3.65,32.2,5.38,35.63,22.8,3,15.36-3.83,32.39-22.1,37.66Zm24.93-28.51A33.16,33.16,0,0,0,244.78,326c-3-5.33-7.66-9-14-8.82-5.66.2-10,3.68-12.29,8.8-5.86,13-5.13,25.85,3.05,37.62,6.36,9.15,18.78,8,24-1.75A28.26,28.26,0,0,0,248.93,345.49Z"/><path class="cls-2" d="M84,369c4.87,0,7.37-3,9-7.17q8.45-21.86,17-43.7c.18-.46.31-.94.46-1.41.67-2.2,1.67-3.78,4.44-3.77s2.49,2.41,3,3.8q8.16,22.21,16,44.54c1.33,3.76,3,7,7.38,7.65,1.65.23,1.73,1.1,1.74,2.36,0,1.76-1.2,1.69-2.37,1.69h-20c-1.21,0-2.36-.06-2.39-1.75,0-1.41.56-2,2-2.31,3.7-.75,3.39-3.16,2.46-6-3-9-2.9-9-12.31-9a31.78,31.78,0,0,1-4.49,0c-3.12-.45-4.57,1-5.15,3.89a25.53,25.53,0,0,1-1.6,4.66c-1.36,3.3-1,5.85,3,6.48,1.81.28,2.16,1.15,2,2.68-.18,1.79-1.58,1.41-2.65,1.42-5.83,0-11.66,0-17.48,0Zm19.93-21c3.92,0,7.25,0,10.57,0,1.43,0,3-.1,2.34-2.06-1.82-5.52-3.85-11-6.09-17.28Z"/><path class="cls-2" d="M351,373c-7.32,0-14.63.07-21.95-.06-1.37,0-3.57,1.19-4-1.51s1.63-2.19,3.2-2.54c3.37-.74,4.81-2.87,4.77-6.42q-.18-19,0-37.91c0-3.82-1.6-6-5.25-6.48-1.61-.23-3-.24-2.74-2.45.32-2.4,2.21-1.57,3.5-1.58,7.48-.08,15,0,22.45,0v4c-6.48.53-7,1.07-7,7.35q0,18.15,0,36.31c0,6.27.6,6.88,7,7.34Z"/><path class="cls-2" d="M180.85,319c-5.37,0-9.89.3-14.34-.08-5.79-.49-9,2-10.62,7.37-.48,1.61-.49,4.47-3.51,3.63-2.6-.72-1.15-3.07-1.31-4.65-.35-3.65.38-7.26.84-10.89.38-3,2.09-3,3.63-1.78,2.12,1.7,4.34,1.38,6.61,1.39,9.33,0,18.65,0,28,.05,1.74,0,4-1,5.11.89,1.25,2.14-1.15,3.53-2.12,5-9.38,14.63-18.9,29.17-28.37,43.73-.79,1.22-1.57,2.45-2.74,4.29,7.2,0,13.79.22,20.34-.09a9.64,9.64,0,0,0,8.67-5.68c.77-1.64,1.44-3.33,2.23-5s2.13-1.42,3.46-1.15c1.68.35,1.26,1.63,1.07,2.77,0,.16-.12.31-.17.47-1.17,4.41-.21,10.69-3.43,12.86s-9,.75-13.62.78q-14.24.08-28.48,0c-1.58,0-3.61.79-4.61-.95-1.17-2,.92-3.32,1.82-4.72,9.56-14.7,19.23-29.33,28.85-44C179,322.1,179.69,320.85,180.85,319Z"/><path class="cls-2" d="M261.06,227c-9,0-18,0-27,0-1.78,0-4.44.87-4-2.56.31-2.59-1.69-6.27,3-7,.32-.05.63-.22,1-.29,10.08-2.1,10.87-3.35,7.54-12.86-2.71-7.77-5.77-15.42-8.31-23.24-.79-2.43-1.91-3.1-4.21-3.09-13,.05-26,.1-39,0a3.61,3.61,0,0,0-3.92,2.86c-2.71,8.28-5.61,16.52-7.91,24.92-2,7.19.16,10,7.54,11.35,1.13.21,2.26.88,3.35.8,5.61-.42,3.64,3.71,3.88,6.4.38,4.25-2.95,2.71-4.84,2.72-14.33.11-28.66.09-43,0-1.74,0-4.52,1-4.07-2.49.33-2.52-1.93-6.61,3-6.88,13.42-.75,17.93-10.45,22-21Q188.39,139,211,81.58c1.15-2.94,9.21-7.39,12-6.43,1.53.54,1.6,2.28,2.09,3.63q19,52.94,38,105.87c2.68,7.41,5.14,14.92,8.65,22,3,6.1,7.58,9.78,14.54,10.38,3,.26,6,.37,5.91,5.16-.08,4.07-1.32,5-5.11,4.87C278.39,226.82,269.72,227,261.06,227Zm-51-114.41c-6.34,17.67-12.2,34-18,50.29-.69,1.93.43,2.15,2,2.15,11.14,0,22.28,0,33.87,0Z"/><path class="cls-3" d="M210.82,127.87c4,11.41,7.54,21.4,11,31.42.68,2-.45,2.63-2.35,2.6-5.49-.08-11-.08-16.49-.11-2.21,0-3.55-.58-2.62-3.27C203.73,148.8,207,139.06,210.82,127.87Zm-1.36,14.05L204.81,156C213.94,151.28,215,148.2,209.46,141.92Zm-1.9,15,.42,1h9.69c-.76-2.56-.79-6-2.74-6.68-2.34-.77-3.45,2.86-5.41,4.2C208.84,155.83,208.21,156.38,207.56,156.88Z"/></svg>