<?xml version="1.0" encoding="UTF-8"?><!DOCTYPE svg PUBLIC "-//W3C//DTD SVG 1.1//EN" "http://www.w3.org/Graphics/SVG/1.1/DTD/svg11.dtd"><svg xmlns="http://www.w3.org/2000/svg"><symbol id="area_icon" viewBox="0 0 25 21"><path d="M24.7 11.2l-6.2-4.4-1-.7.9-.7c.1-.1.2-.3.2-.5s-.1-.4-.2-.5L12.7.1c-.2-.1-.4-.1-.6 0L6.5 4.4c-.2.1-.2.3-.2.5s.1.4.2.5l.9.7-1 .7-6.2 4.4c-.1.1-.2.3-.2.5s.1.4.2.5l12 8.6c.1.1.2.1.3.1s.2 0 .3-.1l12-8.6c.2-.1.3-.3.2-.5 0-.2-.1-.4-.3-.5zM6.6 15.4l-5.1-3.7L6.7 8l4.9 3.7-5 3.7zm5.9-4.4L7.7 7.4l.7-.5 3.9 2.9c.1.1.2.1.3.1.1 0 .2 0 .3-.1l3.9-2.9.7.5-5 3.6zm5.9 4.4l-4.9-3.7L18.4 8l5.2 3.7-5.2 3.7z" fill="#ed8c2b"/></symbol>

<symbol id="area_icon_small" viewBox="0 0 19 16"><path d="M18.8 8.5l-4.7-3.3-.7-.5.7-.5c.1-.1.2-.2.2-.4s-.1-.3-.2-.4L9.7.1c-.1-.1-.3-.1-.4 0L4.9 3.4c-.1.1-.1.2-.1.4s.1.3.2.4l.7.5-.8.5L.2 8.5c-.1.1-.2.3-.2.4 0 .2.1.3.2.4l9.1 6.6c.1.1.1.1.2.1s.1 0 .2-.1l9.1-6.6c.1 0 .2-.2.2-.4 0-.1-.1-.3-.2-.4zM5 11.8L1.2 8.9l3.9-2.8 3.7 2.8L5 11.8zm4.5-3.4L5.8 5.6l.5-.4 2.9 2.2c.1 0 .1.1.2.1s.1 0 .2-.1l2.9-2.2.5.4-3.5 2.8zm4.5 3.4L10.3 9 14 6.2 17.9 9 14 11.8z" fill="#ed8c2b"/>
</symbol>

<symbol id="arrow-down" viewBox="0 0 15 9"><path d="M6.8 8.7L.3 1.9C-.1 1.5-.1.8.3.3c.4-.4 1.1-.4 1.5 0l5.7 6 5.7-6c.4-.4 1.1-.4 1.5 0 .4.4.4 1.1 0 1.6L8.2 8.7c-.2.2-.4.3-.7.3-.3 0-.5-.1-.7-.3z" fill="#ff7f00"/></symbol>

<symbol id="arrow-left-orange" viewBox="0 0 55 55"><style>.st0{fill:#ff7f00}</style><path class="st0" d="M27.5 0C12.4 0 0 12.3 0 27.5S12.4 55 27.5 55 55 42.6 55 27.5 42.6 0 27.5 0zm0 51.1c-13 0-23.6-10.6-23.6-23.6S14.5 3.9 27.5 3.9s23.6 10.6 23.6 23.6-10.6 23.6-23.6 23.6z"/><path class="st0" d="M33.8 13.8c-.4-.4-.9-.6-1.4-.6-.5 0-1 .2-1.4.6L18.6 26.3c-.4.4-.6.9-.6 1.4 0 .5.2 1 .6 1.4l12.5 12.5c.8.8 2 .8 2.7 0 .8-.8.8-2 0-2.7L22.7 27.6l11.1-11.1c.8-.7.8-2 0-2.7z"/></symbol>

<symbol id="arrow-left" viewBox="0 0 55 55"><style>.st0{fill:#fff}</style><path class="st0" d="M27.5 0C12.4 0 0 12.3 0 27.5S12.4 55 27.5 55 55 42.6 55 27.5 42.6 0 27.5 0zm0 51.1c-13 0-23.6-10.6-23.6-23.6S14.5 3.9 27.5 3.9s23.6 10.6 23.6 23.6-10.6 23.6-23.6 23.6z"/><path class="st0" d="M33.8 13.8c-.4-.4-.9-.6-1.4-.6-.5 0-1 .2-1.4.6L18.6 26.3c-.4.4-.6.9-.6 1.4 0 .5.2 1 .6 1.4l12.5 12.5c.8.8 2 .8 2.7 0 .8-.8.8-2 0-2.7L22.7 27.6l11.1-11.1c.8-.7.8-2 0-2.7z"/></symbol>

<symbol id="arrow-right-orange" viewBox="0 0 55 55"><style>.st0{fill:#ff7f00}</style><path class="st0" d="M27.5 55C42.6 55 55 42.7 55 27.5S42.6 0 27.5 0 0 12.4 0 27.5 12.4 55 27.5 55zm0-51.1c13 0 23.6 10.6 23.6 23.6S40.5 51.1 27.5 51.1 3.9 40.5 3.9 27.5 14.5 3.9 27.5 3.9z"/><path class="st0" d="M21.2 41.2c.4.4.9.6 1.4.6.5 0 1-.2 1.4-.6l12.5-12.5c.4-.4.6-.9.6-1.4 0-.5-.2-1-.6-1.4L23.9 13.5c-.8-.8-2-.8-2.7 0-.8.8-.8 2 0 2.7l11.1 11.1-11.1 11.2c-.8.7-.8 2 0 2.7z"/></symbol>

<symbol id="arrow-right" viewBox="0 0 55 55"><style>.st0{fill:#fff}</style><path class="st0" d="M27.5 55C42.6 55 55 42.7 55 27.5S42.6 0 27.5 0 0 12.4 0 27.5 12.4 55 27.5 55zm0-51.1c13 0 23.6 10.6 23.6 23.6S40.5 51.1 27.5 51.1 3.9 40.5 3.9 27.5 14.5 3.9 27.5 3.9z"/><path class="st0" d="M21.2 41.2c.4.4.9.6 1.4.6.5 0 1-.2 1.4-.6l12.5-12.5c.4-.4.6-.9.6-1.4 0-.5-.2-1-.6-1.4L23.9 13.5c-.8-.8-2-.8-2.7 0-.8.8-.8 2 0 2.7l11.1 11.1-11.1 11.2c-.8.7-.8 2 0 2.7z"/></symbol><symbol id="arrow-up" viewBox="0 0 15 9"><path d="M8.2.3l6.4 6.8c.4.4.4 1.1 0 1.6-.4.4-1.1.4-1.5 0l-5.7-6-5.7 6c-.4.4-1.1.4-1.5 0-.4-.4-.4-1.1 0-1.6L6.6.3c.4-.2.6-.3.9-.3.3 0 .5.1.7.3z" fill="#ff7f00"/></symbol>

<symbol id="arrow_left_2" viewBox="0 0 35 25"><path d="M11.4 24.6c.5.5 1.3.5 1.8 0s.5-1.3 0-1.8l-8.9-9.1h29.5c.7 0 1.2-.6 1.2-1.3 0-.7-.5-1.3-1.2-1.3H4.3L13.2 2c.5-.5.5-1.3 0-1.8s-1.3-.5-1.8 0L.4 11.6c-.5.5-.5 1.3 0 1.8l11 11.2z" fill="#fff"/></symbol>

<symbol id="arrow_left_gray" viewBox="0 0 35 25"><path d="M11.4 24.6c.5.5 1.3.5 1.8 0s.5-1.3 0-1.8l-8.9-9.1h29.5c.7 0 1.2-.6 1.2-1.3 0-.7-.5-1.3-1.2-1.3H4.3L13.2 2c.5-.5.5-1.3 0-1.8s-1.3-.5-1.8 0L.4 11.6c-.5.5-.5 1.3 0 1.8l11 11.2z" fill="#ebecec"/></symbol>

<symbol id="arrow_left_gray_hover" viewBox="0 0 35 25"><path d="M11.4 24.6c.5.5 1.3.5 1.8 0s.5-1.3 0-1.8l-8.9-9.1h29.5c.7 0 1.2-.6 1.2-1.3 0-.7-.5-1.3-1.2-1.3H4.3L13.2 2c.5-.5.5-1.3 0-1.8s-1.3-.5-1.8 0L.4 11.6c-.5.5-.5 1.3 0 1.8l11 11.2z" fill="#d7d9d9"/></symbol><symbol id="arrow_left_orange_large" viewBox="0 0 35 25"><path d="M11.4 24.6c.5.5 1.3.5 1.8 0s.5-1.3 0-1.8l-8.9-9.1h29.5c.7 0 1.2-.6 1.2-1.3s-.5-1.3-1.2-1.3H4.3L13.2 2c.5-.5.5-1.3 0-1.8s-1.3-.5-1.8 0L.4 11.6c-.5.5-.5 1.3 0 1.8l11 11.2z" fill="#ff7f00"/></symbol><symbol id="arrow_right_2" viewBox="0 0 35 25"><path d="M23.6.4c-.5-.5-1.3-.5-1.8 0s-.5 1.3 0 1.8l8.9 9.1H1.2c-.7 0-1.2.6-1.2 1.3 0 .7.5 1.3 1.2 1.3h29.5L21.8 23c-.5.5-.5 1.3 0 1.8s1.3.5 1.8 0l11.1-11.2c.5-.5.5-1.3 0-1.8L23.6.4z" fill="#fff"/></symbol><symbol id="arrow_right_gray" viewBox="0 0 35 25"><path d="M23.6.4c-.5-.5-1.3-.5-1.8 0s-.5 1.3 0 1.8l8.9 9.1H1.2c-.7 0-1.2.6-1.2 1.3 0 .7.5 1.3 1.2 1.3h29.5L21.8 23c-.5.5-.5 1.3 0 1.8s1.3.5 1.8 0l11.1-11.2c.5-.5.5-1.3 0-1.8L23.6.4z" fill="#ebecec"/></symbol><symbol id="arrow_right_gray_hover" viewBox="0 0 35 25"><path d="M23.6.4c-.5-.5-1.3-.5-1.8 0s-.5 1.3 0 1.8l8.9 9.1H1.2c-.7 0-1.2.6-1.2 1.3 0 .7.5 1.3 1.2 1.3h29.5L21.8 23c-.5.5-.5 1.3 0 1.8s1.3.5 1.8 0l11.1-11.2c.5-.5.5-1.3 0-1.8L23.6.4z" fill="#d7d9d9"/></symbol><symbol id="arrow_right_orange_large" viewBox="0 0 35 25"><path d="M23.6.4c-.5-.5-1.3-.5-1.8 0s-.5 1.3 0 1.8l8.9 9.1H1.2c-.7 0-1.2.6-1.2 1.3 0 .7.5 1.3 1.2 1.3h29.5L21.8 23c-.5.5-.5 1.3 0 1.8s1.3.5 1.8 0l11.1-11.2c.5-.5.5-1.3 0-1.8L23.6.4z" fill="#ff7f00"/></symbol><symbol id="breadcrumps" viewBox="0 0 6 10"><path d="M5.8 5.5L1.3 9.8c-.3.3-.8.3-1 0-.3-.3-.3-.7 0-1l4-3.8-4-3.8C0 .9 0 .5.3.2c.3-.3.8-.3 1 0l4.5 4.3c.1.1.2.3.2.5s-.1.4-.2.5z" fill="#ff7f00"/></symbol><symbol id="checked" viewBox="0 0 10 7"><path d="M3.6 7c-.2 0-.4-.1-.6-.2L.2 4c-.3-.3-.3-.8 0-1.1s.8-.2 1.2.1l2.2 2.2 5-4.9c.3-.3.8-.3 1.1 0 .3.3.3.8 0 1.1L4.2 6.8c-.2.1-.4.2-.6.2z" fill="#ff7f00"/></symbol><symbol id="checked_large" viewBox="0 0 15 10"><path d="M5.4 10c-.3 0-.6-.1-.8-.3L.3 5.8c-.5-.4-.5-1.1 0-1.6.5-.4 1.2-.4 1.7 0l3.4 3.1 7.6-7c.5-.4 1.2-.4 1.7 0s.5 1.1 0 1.6L6.2 9.7c-.2.2-.5.3-.8.3z" fill="#ff7f00"/></symbol><symbol id="checked_large_white" viewBox="0 0 15 10"><path d="M5.4 10c-.3 0-.6-.1-.8-.3L.3 5.8c-.5-.4-.5-1.1 0-1.6.5-.4 1.2-.4 1.7 0l3.4 3.1 7.6-7c.5-.4 1.2-.4 1.7 0s.5 1.1 0 1.6L6.2 9.7c-.2.2-.5.3-.8.3z" fill="#fff"/></symbol><symbol id="decor" viewBox="0 0 44 38"><style>.st0{fill:#ffbf7f}</style><g id="XMLID_175_"><path id="XMLID_180_" class="st0" d="M36.3 9.2h3.2v1.4h-4.6V4.5h-7.6v4.6h3.1v1.5H26V4.5h-7.7v4.7h3.2v1.4h-4.8V4.5H9.1v4.6h3.1v1.5H7.7V4.5H0v4.7h3.2v3h1.5V7.6H1.5V6h4.7v6.1h7.5V7.5h-3.1V6h4.6v6.1H23V7.6h-3.2V6h4.7v6.1H32V7.5h-3.1V6h4.6v6.1h7.6V7.6h-3.2V6h4.7v6.1H44V4.5h-7.7v4.7z"/><path id="XMLID_179_" class="st0" d="M0 0h44v1.5H0z"/><path id="XMLID_178_" class="st0" d="M36.3 30.6h3.2V32h-4.6v-6.1h-7.6v4.6h3.1V32H26v-6.1h-7.7v4.7h3.2V32h-4.8v-6.1H9.1v4.6h3.1V32H7.7v-6.1H0v4.7h3.2v3h1.5V29H1.5v-1.6h4.7v6.1h7.5v-4.6h-3.1v-1.5h4.6v6.1H23V29h-3.2v-1.6h4.7v6.1H32v-4.6h-3.1v-1.5h4.6v6.1h7.6V29h-3.2v-1.6h4.7v6.1H44v-7.6h-7.7v4.7z"/><path id="XMLID_177_" class="st0" d="M0 15.1h44v7.8H0z"/><path id="XMLID_176_" class="st0" d="M0 36.5h44V38H0z"/></g></symbol><symbol id="download" viewBox="0 0 28 30"><style>.st0{fill:#ff7f00}</style><path class="st0" d="M21.4 13.7c-.2-.3-.5-.5-.8-.5h-3.7V.9c0-.5-.4-.9-.9-.9h-3.7c-.5 0-.9.4-.9.9v12.2H7.5c-.4 0-.7.2-.8.5-.2.3-.1.7.1 1l6.5 7.5c.2.2.4.3.7.3s.5-.1.7-.3l6.5-7.5c.3-.2.3-.6.2-.9z"/><path class="st0" d="M24.3 20.6v5.6H3.7v-5.6H0v7.5c0 1 .8 1.9 1.9 1.9h24.3c1 0 1.9-.8 1.9-1.9v-7.5h-3.8z"/></symbol><symbol id="fb" viewBox="0 0 9 18"><path d="M9 5.8H5.9V4c0-.7.5-.9.9-.9H9V0H6C2.7 0 1.9 2.3 1.9 3.8v2.1H0V9h1.9v9h4V9h2.7L9 5.8z" fill="#848484"/></symbol><symbol id="fb_white" viewBox="0 0 14 29"><path d="M14 9.4H9.2v-3c0-1.1.8-1.4 1.4-1.4H14V0H9.3C4.1 0 3 3.7 3 6.1v3.3H0v5.1h3V29h6.3V14.5h4.2l.5-5.1z"/></symbol><symbol id="foots" viewBox="0 0 28 38"><path d="M17.1 28.5c2.1.7 3.9 1.1 6.6 1.9-1 12.7-13.2 7.7-6.6-1.9zM28 16.9c-.1-3.8-.8-8.8-6.2-8-2.5.7-4.4 3.4-5.3 8.1-.5 2.6-.2 6.2.4 8.4.5 1.5.3 1.4.9 1.7 2.2.5 4.3 1 6.5 1.6 2.1-1.5 4-9.7 3.7-11.8zm-16.8-.3c.6-2.2.9-5.8.4-8.4C10.7 3.5 8.8.7 6.3.1.9-.7.2 4.3 0 8.1c-.3 2.1 1.5 10.3 3.8 11.8 2.2-.5 4.3-1.1 6.5-1.6.6-.2.4-.1.9-1.7zm-6.9 5c1 12.6 13.2 7.6 6.6-1.9-2.1.7-3.9 1.1-6.6 1.9z" fill="#ffbf7f"/></symbol><symbol id="hand" viewBox="0 0 32 38"><path d="M1.5 24c2.2-1.3 3.4.2 5.8 1.3 2.1.9 4.4 1 4.6-.2.3-1.9.3-2.8.3-5.4 0-2.1-.7-6.7-1.2-10.2-.6-4.2-.9-6.7 1.3-6.9 2-.2 2.1.9 2.9 6.7.6 4.4 1.5 7.5 2 7.4s-.2-4.1-.4-8.2c-.3-7.3.1-8.4 2-8.4 1.6 0 2 1 2.2 8.4.1 3.8.5 7.9.9 7.9.5 0 .9-3.8.8-7.8-.1-7.6 1.2-7 2.1-7 .8 0 2.2.2 2.2 7.5 0 4.2 0 7.9.8 7.9.4 0 1-3.4 1-6.8 0-5.6 1.1-5.6 2-5.6.9 0 1.3 1 1.4 6.6 0 4.4-.5 10.7-.5 14.5 0 9.2-3.1 9.3-3.1 12.4h-13c-.4-.9-1.3-1.4-3.4-3.5-2.1-2.1-6.9-6.2-10.7-6.9-2.5-.7-1.4-2.9 0-3.7z" fill="#ffbf7f"/></symbol><symbol id="history_icon" viewBox="0 0 63 66"><style>.st0{fill:#ed8c2b}</style><path class="st0" d="M31.5 59.7c1.2 0 2.3-.5 3-1.3.8-.8 1.3-1.8 1.3-3V26.1c0-1.2-.5-2.3-1.3-3s-1.8-1.3-3-1.3-2.3.5-3 1.3c-.8.8-1.3 1.8-1.3 3v29.3c0 1.2.5 2.3 1.3 3s1.8 1.3 3 1.3zm-1.9-33.6c0-.6.2-1 .6-1.3.4-.4.8-.6 1.3-.6s1 .2 1.3.5c.4.4.6.8.6 1.3v29.4c0 .6-.2 1-.6 1.3-.4.4-.8.6-1.3.6-.6 0-1-.2-1.3-.6-.4-.4-.6-.8-.6-1.3V26.1z"/><path class="st0" d="M60.5 9.8c-.6-.6-1.3-1.3-2-1.7.4-.3.7-.6 1-.8 1.3-1.3 2.1-3.1 2.1-5.1 0-.6-.2-1.1-.6-1.6-.3-.3-.9-.6-1.5-.6H4.3c-.6 0-1.2.3-1.5.7-.3.4-.6.9-.6 1.6 0 2 .8 3.7 2.1 5.1l.6.6c-.9.4-1.7 1.1-2.4 1.9C.9 11.6 0 14 0 16.6c0 2 .7 3.9 1.9 5.2 1.2 1.4 2.9 2.3 4.8 2.3 1.6 0 3.1-.6 4.2-1.7v40.1c0 1 .4 1.8 1.1 2.5.6.6 1.5 1.1 2.5 1.1h34c.9 0 1.8-.4 2.4-.9l.1-.2c.6-.6 1.1-1.5 1.1-2.5V22.3c1.1 1.1 2.6 1.7 4.2 1.7 1.9 0 3.6-.8 4.8-2.3 1.2-1.3 1.9-3.2 1.9-5.2 0-2.6-1-5-2.5-6.7zm-56-7.3h54.7c-.1 1.2-.6 2.3-1.3 3.1-.9.8-2 1.4-3.4 1.4H9.3C8 7 6.8 6.4 5.9 5.6c-.8-.8-1.3-1.9-1.4-3.1zm45.1 60c0 .4-.1.6-.3.8l-.1.1c-.2.2-.4.3-.7.3h-34c-.4 0-.6-.1-.8-.3-.1-.2-.3-.5-.3-.8V17.8h36.2v44.7zm9.6-42.4c-.8.8-1.8 1.4-3 1.4-1.1 0-2.2-.6-3-1.4-.8-.9-1.3-2.2-1.3-3.6 0-.8.3-1.6.8-2.1s1-.8 1.7-.8 1.3.3 1.7.8c.5.5.8 1.3.8 2.1 0 .3-.1.6-.2.7-.1.1-.2.2-.4.2-.1 0-.3-.1-.4-.2-.1-.2-.2-.4-.2-.7 0-.6-.5-1.2-1.2-1.2-.6 0-1.2.5-1.2 1.2 0 .8.4 1.7.8 2.3.6.6 1.3 1.1 2.2 1.1.8 0 1.6-.4 2.2-1.1.5-.6.8-1.4.8-2.3 0-1.4-.6-2.8-1.4-3.7-.9-1-2.2-1.6-3.5-1.6-1.4 0-2.6.6-3.5 1.6-.6.7-1.1 1.6-1.3 2.5H13.1c-.2-1-.6-1.8-1.3-2.5-.9-1-2.2-1.6-3.5-1.6-1.4 0-2.6.6-3.5 1.6s-1.4 2.3-1.4 3.7c0 .8.4 1.7.8 2.3.6.6 1.3 1.1 2.2 1.1s1.6-.4 2.2-1.1c.5-.6.8-1.4.8-2.3 0-.6-.5-1.2-1.2-1.2-.6 0-1.2.5-1.2 1.2 0 .3-.1.6-.2.7-.1.1-.2.2-.4.2s-.3-.1-.4-.2c-.1-.2-.2-.4-.2-.7 0-.8.3-1.6.8-2.1s1.1-.8 1.7-.8c.7 0 1.3.3 1.7.8.5.5.8 1.3.8 2.1 0 1.4-.5 2.7-1.3 3.6-.8.8-1.8 1.4-3 1.4s-2.2-.6-3-1.4c-.8-.9-1.3-2.2-1.3-3.6 0-2 .7-3.8 1.8-5.1 1.1-1.3 2.6-2 4.2-2h46c1.6 0 3.1.8 4.2 2s1.8 3.1 1.8 5.1c.3 1.4-.2 2.7-1 3.6z"/><path class="st0" d="M21.5 59.7c1.2 0 2.3-.5 3-1.3.8-.8 1.3-1.8 1.3-3V26.1c0-1.1-.5-2.2-1.2-3V23c-.8-.8-1.8-1.3-3-1.3s-2.3.5-3 1.3c-.8.8-1.3 1.8-1.3 3v29.3c0 1.2.5 2.3 1.3 3s1.7 1.4 2.9 1.4zm-1.9-33.6c0-.6.2-1 .6-1.3.4-.4.8-.6 1.3-.6s1 .2 1.3.5l.1.1c.3.4.5.8.5 1.3v29.4c0 .6-.2 1-.6 1.3-.4.4-.8.6-1.3.6-.6 0-1-.2-1.3-.6-.4-.4-.6-.8-.6-1.3V26.1zm21.9 33.6c1.2 0 2.3-.5 3-1.3s1.3-1.8 1.3-3V26.1c0-1.2-.5-2.3-1.3-3-.8-.8-1.8-1.3-3-1.3s-2.3.5-3 1.3c-.8.8-1.3 1.8-1.3 3v29.3c0 1.2.5 2.3 1.3 3s1.8 1.3 3 1.3zm-1.9-33.6c0-.6.2-1 .6-1.3s.8-.6 1.3-.6 1 .2 1.3.5c.4.4.6.8.6 1.3v29.4c0 .6-.2 1-.6 1.3-.4.4-.8.6-1.3.6-.6 0-1-.2-1.3-.6-.4-.4-.6-.8-.6-1.3V26.1z"/></symbol><symbol id="instagram" viewBox="0 0 20 20"><style>.st0{fill:#848484}</style><path class="st0" d="M10 4.8c-2.8 0-5.2 2.3-5.2 5.2s2.3 5.2 5.2 5.2 5.2-2.3 5.2-5.2-2.4-5.2-5.2-5.2zm0 8.5c-1.8 0-3.3-1.5-3.3-3.3S8.2 6.7 10 6.7s3.3 1.5 3.3 3.3-1.5 3.3-3.3 3.3z"/><circle class="st0" cx="15.4" cy="4.7" r="1.2"/><path class="st0" d="M18.4 1.7C17.4.6 15.9 0 14.2 0H5.8C2.3 0 0 2.3 0 5.8v8.3c0 1.7.6 3.2 1.7 4.3 1.1 1 2.5 1.6 4.2 1.6h8.2c1.7 0 3.2-.6 4.2-1.6 1.1-1 1.7-2.5 1.7-4.3V5.8c0-1.6-.6-3.1-1.6-4.1zm-.2 12.5c0 1.2-.4 2.3-1.2 2.9-.7.7-1.7 1-2.9 1H5.9c-1.2 0-2.2-.4-2.9-1-.7-.7-1.1-1.7-1.1-3V5.8c0-1.2.4-2.2 1.1-2.9.7-.7 1.7-1 2.9-1h8.3c1.2 0 2.2.4 2.9 1.1.7.7 1.1 1.7 1.1 2.9v8.3z"/></symbol><symbol id="instagram_white" viewBox="0 0 30 30"><path class="st0" d="M15 7.2c-4.2 0-7.7 3.4-7.7 7.7s3.4 7.7 7.7 7.7 7.7-3.5 7.7-7.7-3.5-7.7-7.7-7.7zm0 12.7c-2.7 0-5-2.2-5-5s2.2-5 5-5 5 2.2 5 5-2.3 5-5 5z"/><circle class="st0" cx="23" cy="7" r="1.8"/><path class="st0" d="M27.6 2.5C26 .8 23.8 0 21.2 0H8.8C3.5 0 0 3.5 0 8.8v12.4c0 2.6.8 4.8 2.5 6.5C4.2 29.2 6.4 30 8.8 30h12.3c2.6 0 4.8-.8 6.4-2.4 1.6-1.6 2.5-3.8 2.5-6.4V8.8c0-2.6-.8-4.7-2.4-6.3zm-.3 18.7c0 1.9-.7 3.4-1.8 4.4s-2.6 1.6-4.4 1.6H8.8c-1.8 0-3.3-.5-4.4-1.6-1.1-1.1-1.6-2.6-1.6-4.5V8.8c0-1.8.5-3.3 1.6-4.4 1-1 2.6-1.6 4.4-1.6h12.5c1.8 0 3.3.5 4.4 1.6 1 1.1 1.6 2.6 1.6 4.4v12.4z"/></symbol><symbol id="left_arrow_orange"><path d="M.234 6.92A.82.82 0 0 0 0 7.5a.862.862 0 0 0 .234.59l6.465 6.67a.8.8 0 0 0 1.141 0 .855.855 0 0 0 0-1.18L2.746 8.33H22.19a.83.83 0 0 0 0-1.66H2.746l5.089-5.25a.855.855 0 0 0 0-1.18.8.8 0 0 0-1.14 0z" fill="#ff7f00" fill-rule="evenodd"/></symbol><symbol id="logo" viewBox="0 0 250 84"><g fill="#fefefe"><path d="M250 60v-2c-4.1-.3-4.5-.6-4.5-5.1V32.4c0-4.5.5-4.8 4.5-5.1v-2h-15.1v2c4.1.3 4.6.6 4.6 5.1V53c0 4.4-.5 4.7-4.6 5.1v2H250zm-39-17.1V30.2c0-1.3.1-1.9.5-2.2.3-.4 1.1-.6 2.5-.6 3.4 0 7 2 7 7.6 0 2.7-.8 4.9-2.8 6.4-1.2 1-2.9 1.4-5.2 1.4h-2zm21.9 15.8c-1.1-.4-2.2-1-3.5-2.4-1.2-1.2-2.2-2.6-4-5.5-1.6-2.4-3.7-6-4.5-7.6 3.8-1.6 6.7-4.3 6.7-9 0-3.3-1.5-5.7-3.7-7.1-2.1-1.4-4.7-1.9-9-1.9h-14.3v2c3.9.3 4.5.6 4.5 5v20.7c0 4.4-.6 4.8-4.7 5.1v2h15.1v-2c-4.1-.3-4.5-.7-4.5-5.1V45h1.5c2.1 0 3 .6 3.8 2.1 1.5 2.7 3.2 5.9 4.8 8.2 2.2 3.4 4.3 4.8 9.8 5h1.8l.2-1.6zm-54.4-31.9c6.2 0 11 6.2 11 16.9 0 9.8-4.4 14.7-9.6 14.7-6.9 0-11.3-7.5-11.3-16.8s4.5-14.8 9.9-14.8zm1-2.2c-11.5 0-17.9 8.9-17.9 18.2 0 10.3 7.3 17.9 17.3 17.9 9.7 0 17.6-6.9 17.6-18.5.1-10.6-7.7-17.6-17-17.6zm-23 25.4c-1.1 3-2 4.6-3.1 5.9-1.5 1.4-4.3 1.7-9.3 1.7-3.3 0-5.5 0-7.3-.3 6.8-10.6 13.6-20.8 20.4-31.2l-.5-.8h-20.9c-1.6 0-2.1-.1-2.9-1.4h-1.5c-.1 2.7-.5 6.4-.7 10.4l2 .1c.6-2.5 1.3-4 2-4.9.9-1.3 1.7-1.9 7.1-1.9h7.3C142.4 38 135.3 48.7 128.4 59l.6 1h27.6c.6-1.9 1.5-7.2 1.9-9.6l-2-.4zm-45.4-4.4h-8.8c1.5-4.1 2.9-8.2 4.4-12.4h.2l4.2 12.4zM125.8 60v-2c-3.5-.4-4.2-.9-5.8-5.5-3.4-9-6.8-19-10.1-28l-2.5.6-10.7 27.6c-1.8 4.5-2.4 4.9-5.9 5.4v2h11.9v-2c-3.8-.5-4.1-1-3.2-3.9.6-2.2 1.3-4.1 1.9-5.8H112c.9 2.4 1.7 4.8 2.3 6.5.7 2.2.4 2.7-2.8 3.1v2h14.3z"/><path d="M23.8 71.5l-.2-1.9 1.1-1.4h2l.6 3.9-1.6.3-1.9-.9zm-7.5 1.7l-.3-1.3 1.7-2.2 1.6.6.4 2.4-3.4.5zm3.9-.4l-.5-2.4 3.5-.6.2 1.7-1.6 1.5-1.6-.2zm-6.7-.9l-.2-1.1 3.3-3.3 1.1.2-.2 1.8-1.8 2.2-2.2.2zm20.7-15.5l-.9-1.1 1-1.8 2.4.2 2-.1-.1 2.4-4.4.4zm-22.8-12H8.3l-1.5-1.2.5-1h3.9l.2 2.2zm-2.9 2.9l1.7.2 2.4-.8-1.2-2H8.3l-.2.7.4 1.9zM8.4 58h2.8l.3-1.4H8.6L8.4 58zm3.5-1.8l4 .7 4.5-3.5.4-4.7-1.7-.2-3.8-.7-3.5 3.5.1 4.9zm3.7-8.8l3.3.6.2-1.6-2.3-.7-1.2 1.7zm3.7.6l1.5.2 1.1-3.7-3.1-.8-1.6 1.7 2.4.7-.3 1.9zm-8.7 19.6l1.3.3 2.2-1.7-.6-1.6-2.4-.4-.5 3.4zm.5-3.9l2.4.5.6-3.5-1.7-.2-1.5 1.6.2 1.6zm9.6-10.5l1.7.2 1.5-3.1-2.8-1.6-.4 4.5zm39.6 18.3l.2-1.9-1.1-1.4h-2l-.6 3.8 1.6.3 1.9-.8zm7.5 1.7l.3-1.3-1.7-2.2-1.6.6-.4 2.4 3.4.5zm-3.9-.4l.5-2.4-3.5-.6-.2 1.7 1.7 1.4 1.5-.1zm6.7-.9l.2-1.1-3.3-3.3-1.1.2.2 1.8 1.8 2.2 2.2.2zM43.7 58l1.5-1.8-.2-2.7-1.6-2h-2.6l-1.6 2-.2 2.6 1.5 1.8h1.7l1.5.1zm29.1-13.6h3.1l1.5-1.2-.5-1H73l-.2 2.2zm2.8 2.9l-1.6.3-2.4-.8 1.2-2h3.1l.2.7-.5 1.8zm-1.4 3.3l-1.6.4-3.3-3.3 1.9-.6 2.5.8.5 2.7zm2.7 4.6l-1.2 1.1h-3.1l.1-4.9 1.6-.4 2.3 1 .3 3.2zM75.8 58H73l-.3-1.4h2.9l.2 1.4zm2.5 1.6l-.4.2-1.7-1.7-.2-1.6 1.2-1 1.6 2.1-.5 2zm-1 2.1l-1.5.6-2.2-.4-1.5-1.7.8-1.8h2.9l1.7 1.7-.2 1.6zm-5-5.5l-4 .7-4.5-3.5-.4-4.7 1.7-.2 3.8-.7 3.5 3.5-.1 4.9zm-3.7-8.8l-3.4.6-.2-1.7 2.3-.7 1.3 1.8zm-3.7.6l-1.5.2-1.1-3.7 3.1-.8 1.6 1.7-2.4.6.3 2zm10 22.9l-2.4-.6-.2-2.2 1.3-.2 1.3.7v2.3zm.1-2.7l-1.2-.6-.4-3.5 2.2.4.1 2.8-.7.9zm.6-4.1l-2.1-.3.2-1.5 1.9.4v1.4zm-2.1 3.5l-1.3.3-2.2-1.8.6-1.6 2.4-.4.5 3.5zm-.4-3.9l-2.4.5-.6-3.5 1.7-.2 1.5 1.6-.2 1.6zm-9.7-10.5l-1.7.2-1.5-3.1 2.8-1.6.4 4.5zM39.7 11.4V8.3l1.2-1.4 1 .5v3.9l-2.2.1zm-13.8-3v2.8l1.4.3V8.6l-1.4-.2zm-2.1 4l-.2 1.9 1.1 1.4h2l.6-3.9-1.6-.3-1.9.9zm3.9-.5l-.7 3.9 3.6 4.5 4.7.4.2-1.7.7-3.7-3.5-3.5-5 .1zm-2.9 4.2l-.2 2 1.7 2.3 2.2 1.9h1.6l.2-1.8-3.6-4.4h-1.9zm-8.5-5.5l-.2 1.4 1.7 2.2 1.6-.6.4-2.4-3.5-.6zm3.9.5l-.5 2.4 3.5.6.2-1.7-1.7-1.4-1.5.1zm-6.7.9l-.2 1.1 3.3 3.3 1.1-.2-.2-1.8-1.8-2.2-2.2-.2zm4.4 2.4l.2 1.8 1.1 1.5 2.7.7 2.2-.5.2-2.1-1-1.5-3.8-.7-1.6.8zm4.4 4.4l2.7 2.4.9-.7-1.6-2-2 .3zm3 2.6l.4 2.2 2 .3.6-1.3-2-1.8-1 .6zm-.1 3l-.1.4 2.8 2.8 1.4-.5-1.5-2.8-2.2-.3-.4.4zm5.5-3.7l-.2 1.7 3.2 1.5 1.6-2.8-4.6-.4zM5.4 41.3l1.1-.4.5 1-.5 1-1.1-.4v-1.2zm6-1.8H8.3l-1.5 1.2.5 1h3.9l.2-2.2zm1.6-2.3l2.1-.6 1.4 1.9 1.9 2c-.2.5-.2.9-.3 1.4.1.5.1.9.3 1.4l-1.9 2-1.4 1.9-2.1-.5-1.3-2.1-.1-2.6.2-2.6 1.2-2.2zM8.4 25.9h2.8l.3 1.4H8.6l-.2-1.4zm4-2.1l1.9-.2 1.4 1.1v2l-3.9.6-.3-1.5.9-2zm-.5 3.9l4-.7 4.5 3.5.4 4.7-1.7.2-3.8.7-3.5-3.5.1-4.9zm3.7 8.8l3.3-.6.2 1.6-2.3.7-1.2-1.7zm3.7-.6l1.5-.2 1.1 3.7-3.1.8-1.6-1.7 2.4-.7-.3-1.9zm-3.2-11.2l2-.2 2.3 1.7 1.9 2.2V30l-1.8.2-4.5-3.6.1-1.9zm-5.5-8.4l1.3-.3 2.2 1.7-.6 1.6-2.4.4-.5-3.4zm.5 3.9l2.4-.5.6 3.5-1.7.2-1.5-1.6.2-1.6zm.9-6.7l1.1-.2 3.3 3.2-.2 1.1-1.8-.2-2.2-1.8-.2-2.1zm2.4 4.4l1.8.2 1.5 1.1.7 2.7-.5 2.2-1.9.2-1.5-1-.7-3.8.6-1.6zm4 .4l-.4.5-1.4-1 .2-1.1 1.1-.2 1 1.3-.5.5zm.4 4l2.4 2.7-.7.9-2-1.6.3-2zm-.2-3.7l.5-.4 2.7.7 3.1 2.6.5 2.3-.4.4-.2.5-.5.2-.4.4-2.3-.5-2.6-3-.7-2.7.3-.5zm2.9 6.6l2.2.4.3 2-1.3.6-1.8-2 .6-1zm2.9-.1l.4-.1 2.8 2.8-.5 1.4-2.8-1.5-.3-2.2.4-.4zm-1.7 3.4l1.4-.6 2.9 1.6 1.5 3.4-1.1 1-3-.4-1.6-3.3-.1-1.7zm-2 2.2l1.7-.2 1.5 3.1-2.8 1.6-.4-4.5zm.5 4.9l3-1.7 3 .4.4 4.3-1.9 1.4-3.4-.6-1.1-3.8zm-2.4 5l3.3-.9 3.5.7v3.1l-3.5.7-3.3-.9-.3-1.3.1-.4c.1-.3.1-.7.2-1zM48.6 6l.3 1.1-1.3 1-1.9-.4V6l1.1-.8 1.8.8zm-5.9-.6l.4 1.1-1 .5-1-.5.4-1.1h1.2zm1.8 6V8.3l-1.2-1.4-1 .5v3.9l2.2.1zm3-2.9l.2 1.7-.8 2.4-2-1.2V8.3l.7-.2 1.9.4zm10.7-.1v2.8l-1.4.3V8.6l1.4-.2zm2.1 4l.2 1.9-1.1 1.4h-2l-.6-3.9 1.6-.3 1.9.9zm-.9 3.7l.2 2-1.7 2.3-2.2 1.9H54l-.2-1.8 3.6-4.4h2zm8.4-5.5l.3 1.3-1.7 2.2-1.6-.6-.4-2.4 3.4-.5zm-3.9.5l.5 2.4-3.5.6-.2-1.7 1.7-1.4 1.5.1zm6.7.9l.2 1.1-3.3 3.3-1.1-.2.2-1.8 1.8-2.2 2.2-.2zm-4.4 2.4l-.2 1.8-1 1.6-2.7.7L60 18l-.2-2 1-1.5 3.8-.7 1.6.6zm-4.4 4.4l-2.7 2.4-.9-.7 1.6-2 2 .3zm-2.9 2.6l-.4 2.2-2 .3-.6-1.3 2-1.8 1 .6zm.1 3l.1.4-2.8 2.8-1.4-.6 1.5-2.8 2.1-.3.5.5zm19.8 16.9l-1.1-.4-.5 1 .5 1 1.1-.4v-1.2zm-6-1.8h3.1l1.5 1.2-.5 1H73l-.2-2.2zm1.4-6.2l-1.6-.4-3.3 3.3 1.9.6 2.5-.8.5-2.7zm-3.1 3.9l-2.1-.6-1.4 1.9-1.9 2c.2.5.2.9.3 1.4-.1.5-.1.9-.3 1.4l1.9 2 1.4 1.9 2.1-.6 1.3-2.1.2-2.6-.2-2.6-1.3-2.1zm5.8-8.5l-1.2-1.1h-3.1l.1 4.9 1.6.4 2.3-1 .3-3.2zm-1.1-2.8H73l-.3 1.4h2.9l.2-1.4zm2.5-1.7l-.4-.2-1.7 1.7-.2 1.7 1.2 1 1.6-2.1-.5-2.1zm-6.5-.4l-1.9-.2-1.4 1.1v2l3.9.6.3-1.5-.9-2zm.5 3.9l-4-.7-4.5 3.5-.4 4.7 1.7.2 3.8.7 3.5-3.5-.1-4.9zm-3.7 8.8l-3.3-.6-.3 1.7 2.3.7 1.3-1.8zm-3.7-.6l-1.5-.2-1.1 3.7 3.1.8 1.6-1.7-2.4-.7.3-1.9zM68 24.7l-2-.2-2.3 1.7-1.9 2.2V30l1.8.2 4.5-3.6-.1-1.9zm6.9-11.8l-2.4.6-.2 2.2 1.3.2 1.3-.7v-2.3zm.1 2.8l-1.2.6-.4 3.5 2.2-.4.1-2.8-.7-.9zm.6 4.1l-2.1.3.2 1.5 1.9-.4v-1.4zm-2.1-3.5l-1.3-.3-2.2 1.8.6 1.6 2.4.4.5-3.5zm-.4 3.9l-2.4-.5-.6 3.5 1.7.2 1.5-1.6-.2-1.6zm-.9-6.7l-1.1-.2-3.3 3.2.2 1.1 1.8-.2 2.2-1.8.2-2.1zm-2.5 4.4l-1.8.2-1.5 1.1-.7 2.7.5 2.2 2.1.2 1.5-1 .7-3.8-.8-1.6zm-3.9.4l.4.5 1.4-1-.2-1.1-1.1-.2-1 1.3.5.5zm-.4 4L63 25l.7.9 2-1.6-.3-2zm.1-3.7l-.5-.4-2.7.7-3.1 2.6-.5 2.3.4.4.2.5.5.2.4.4 2.3-.5 2.6-3 .7-2.7-.3-.5zm-2.8 6.6l-2.2.4-.3 2 1.3.6 1.8-2-.6-1zm-3-.1l-.3-.1-2.8 2.8.5 1.4 2.8-1.5.3-2.1-.5-.5zm1.7 3.4l-1.4-.6-2.9 1.6-1.5 3.4 1.1 1 3-.4 1.6-3.3.1-1.7zm2 2.2l-1.7-.2-1.5 3.1 2.8 1.6.4-4.5zm-.4 4.9l-3-1.7-3 .4-.4 4.3 1.9 1.5 3.4-.6 1.1-3.9zm2.3 5l-3.3-.9-3.5.7v3l3.5.7 3.3-.9c.1-.4.2-.8.2-1.3 0-.4 0-.8-.2-1.3zm18.2 1.3l-1-1.5-3.4.8v1.2l3.4.8.8-1.1.2-.2zM39.7 72.5v3.1l1.2 1.4 1-.5v-3.9l-2.2-.1zm-13.8 3v-2.8l1.4-.3v2.9l-1.4.2zm22.7 2.4l.3-1.1-1.3-1-1.9.4-.1 1.7 1.1.8 1.9-.8zm-5.9.6l.4-1.1-1-.5-1 .5.4 1.1h1.2zm1.8-6v3.1L43.3 77l-1-.5v-3.9l2.2-.1zm3 2.8l.2-1.7-.8-2.4-2 1.2v3.1l.7.2 1.9-.4zm10.7.2v-2.8l-1.4-.3v2.9l1.4.2zm-24.8-1.6l-.4-1.5 3.4-3.3.6 1.9-.8 2.5-2.8.4zm12.3-30.1h-12c2-5.5 4-11.1 6-16.8h.3l5.7 16.8zm20 19.5v-2.7c-4.8-.5-5.7-1.2-7.9-7.4-4.6-12.2-9.3-25.7-13.7-37.9l-3.4.8-14.5 37.2c-2.4 6.1-3.3 6.6-8.1 7.3v2.7h16.2v-2.6c-5.2-.6-5.6-1.5-4.4-5.3.8-2.9 1.7-5.5 2.6-7.8h14.4c1.2 3.2 2.3 6.5 3.2 8.8 1 3 .5 3.7-3.8 4.2v2.7h19.4zm-29-20.8h7l-3.5-10.2c-.2.2-3.5 9.8-3.5 10.2zm1.3-1.6l1.6-4.7.3.2 1.3 2-1.2 1.3-.1.1-.1.1-1.3 1.3-.5-.3zm.4.8h-.6l.2-.5.4.3v.2zm3.1-3l.4 1.3c.2.6.5 1.2.6 1.8h-3.8v-.3l1.4-1.4 1.4-1.4zm-1-2.9c.1.3.2.5.2.7l.2.7-.7-1.1.3-.3zm-.3-1c0 .1.1.4.2.7l-.3.5-.3-.1.1-.2c0-.4.1-.8.3-.9zm-3 27.9v1.7l.7-.1.7 2.4 1.7-1.6-.8-3.1-2.3.7zm-3.1-4.2c.4.1.9.1 1.4.2.5.1 1.2.1 1.7.3v3.4l2.3-.7.6-3.4-1.5-1.9-4.3.4-.2 1.7zm-.9-2.8l-.2.6c-.5 1.5-.7 1.8.8 2.1l.2-1.8-.8-.9zm.7-2.4zm1.2-2.7h-.3l-.7 2.4 1-2.4zm.4 0l-1 2.5 2 .2v-2.5l-1-.2zm5.2 0H37l-.1.1.1 2.6 2-.1 1.6-2 .1-.6zm1.2 0h-.8l-.1.6 1-.1-.1-.5zm1.2 0h-.8v.5l1 .1-.2-.6zm3.2 2.7l-.9-2.6h-1.9l.1.6 1.6 2h1.1zm1 2.8l-.9-2.5h-1l.2 2.3 1.7.2zm-3.2 2.6c.3 0 .7 0 1.6-.1 1.8-.2 2.2-.4 1.8-1.9v-.1l-1.9-.2-1.6 1.8.1.5zm-.1 0zm-.1 4.7v-3.9l-.2-1.1h-3.1l-.7 3.5.9 3.3c.4.1.8.2 1.3.2.4-.1.9-.1 1.3-.2l.5-1.8zm0 1.9v-.4.4zm.6 1h-.6v-.6l-.3-.3c-.5.2-.9.2-1.4.3-.5-.1-.9-.1-1.4-.3l-2 1.9-1.9 1.4.6 2.1 2.1 1.3 2.5.2h.1l2.6-.2 2.1-1.3.6-2.1-1.9-1.4-1.1-1zm1.1 0H45l.5.5.1-.5zm2.3 0H46l-.2.7 1.7 1.2.4-1.9zm7.8 0h-7.4l-.4 2.3 3.5 3.5 5-.1.7-3.9-1.4-1.8zm3.8 0h-3.3l1.2 1.4h2l.1-1.4zm5.6 0h-5.2l-.2 1.6 1 1.5 3.8.7 1.6-.6-.1-1.9-.9-1.3zm2.4 0h-1.9l.7 1 1.1-.2.1-.8zm1.1-.1v.1h-.7l-.2.9 3.3 3.2 1.1-.2-.3-2.2-2.2-1.8h-1zm0-6.4v6l1.2.1.6-1.6-.7-3.8-1.1-.7zm-.2-1.2h.1v.7l1.3 1 1.9-.2.8-1.9-.3-1.5-3.9.6.1 1.3zm-4.7-1.1c1.1.6 2.6.7 4 .9.1 0 .2 0 .4.1v-1.4l-4.5-3.6-1.8.2v1.6l1.9 2.2zm-3.4-6c.3.9.7 2.1 1.1 3v-.8l-1.1-2.2zm-2.5-7.1c.7 1.9 1.3 3.9 2 5.6h.2l3-1.7-1.1-3.8-3.4-.6-.7.5zm-2.1-5.6c.2.7.5 1.3.7 1.8.2.5.4 1.1.6 1.6.2.6.4 1.2.7 1.8l.5-.4v-3.2l-1.8-1.5-.7-.1zM54 34.1c.2.7.5 1.3.7 1.9.3.8.6 1.7.9 2.5h.5l.4-4.3-1.1-.9-1.4.8zm-2-5.7c.2.4.3.8.4 1.2.2.5.3 1 .6 1.5.3.7.6 1.6.9 2.4l1.5-.8 1.4-3.4-.6-1.5-1.5-.6-2.7 1.2zm-1.4-3.8c0 .1.1.2.1.4.2.5.4 1.1.6 1.6l.6 1.5 2.7-1.2 1.6-2.9-.6-1.4-1.7.1-3.3 1.6v.3zM49.3 21c.2.6.4 1.2.6 1.9l.5.9 3.2-1.5-.2-1.7-4.1.4zm-.8-2.1c.2.5.4 1.1.6 1.7l4.3-.4 3.6-4.5-.7-3.9-5-.1-3.5 3.5.7 3.7zm-1.1-3.2l.4 1-.2-1.2-.2.2zm-1.2-3l1 2.6.2-.2-.6-2.1-.6-.3zm-8 3.6c.2-.5.4-1.1.6-1.6.2-.5.1-.5.6-.6 1.7-.4 3.9-1.1 5.6-1.5.2 0 .4-.1.5-.2l-1-.6-2.6-.2h-.1l-2.5.2-1.9 1.2-.6 2.1 1.4 1.2zm-1 2.7l.4-1 .6-1.5-1.5-1.1-.7 3.5 1.2.1zm-.8 1.9l.6-1.5-1-.1-.2 1.5.6.1zm-2.1 5.5l2-5.1-.6-.2-1.7 3 .3 2.3zm-.4 1l.1-.2-.4-2.9-3.3-1.6-1.7-.1L28 24l1.6 2.9 3.4 1.4.9-.9zm-.5 1.2l.1-.2-.1.2zM32.1 32l1.1-2.8-.2-.4-3.4-1.4-1.6.5-.6 1.5 1.4 3.4 1.8 1 1.5-1.8zm-.9 2.1l.2-.5c0-.1.1-.2.1-.3l-.5.7.2.1zm-.4 1.1l.3-.7-.2-.1-.1.8zm-1.3 3.4l.8-2.1.2-2.2-1.8-1-1.1.9.4 4.3 1.5.1zm-2.4 5.9l2.2-5.6-1.5-.1-1.8 1.5v3.2l1.1 1zM25 49.9l1-2.6c.2-.6.4-1.1.7-1.7l.3-.7-1.3-1-3.4.6-1.1 3.8 3 1.7.8-.1zm-2.2 5.5l2-5.1-.5.1-1.6 3.3-.1 1.6.2.1zm-6.7 3.2l1.9-.1c1.9-.3 3.7-.7 4.7-2.5l.1-.1h-.1L21 57.6c-.3.2-.7.3-1.1.5l.5-.4 1.9-2.2v-1.6l-1.8-.2-4.5 3.6.1 1.3zm-.2 0zm-.2.6v-2l-3.9-.6-.3 1.5.8 1.9 1.9.2 1.5-1zm0 6.6v-6.1l-1.2.9-.7 3.8.6 1.6 1.3-.2zm.6.5h-.5v-.1l-1.3.1-2.2 1.8-.3 2.2 1.1.2 3.3-3.2-.1-1zm2.3 0h-1.9l.1.8 1.1.2.7-1zm5.6 0H19l-.9 1.3-.2 1.8 1.6.6 3.8-.7 1-1.5-.1-1.5zm3.8 0h-3.3l.2 1.5h2l1.1-1.5zm7.9 0h-7.4L27.1 68l.7 3.9 5 .1 3.5-3.5-.4-2.2zm1.1 0h-.7l.3 2 1.7-1.2-.7-2.3h-.4c.1 1.3.1 1.5-.2 1.5zm-.6-6.7v5.9H16.5v-6.2c1.4-.1 2.9-.2 4-.7 2.7-1 3-2.9 4-5.4l14.6-37.1c.1-.3.2-.6.3-.8.2-.5.1-.5.6-.6.6-.2 1.2-.3 1.9-.5.6-.2 1.2-.3 1.9-.5.6-.2 1.3-.4 1.8-.5.4.9.8 2.1 1.1 3.1.4 1 .7 2.1 1.1 3.1.8 2.1 1.5 4.2 2.3 6.3 3.1 8.3 6 16.7 9.1 25 .5 1.5 1.7 5 2.4 6.1 1.3 1.8 3.3 2.1 6.1 2.5.1.4 0 5.4 0 6.3H44.6c0-.9-.1-5.7 0-6.1 1.1-.1 2.6-.2 3.2-.8 1-.9.4-1.8 0-3-.2-.7-1.9-5.6-2.1-5.9H34.2v.1c-.3.8-1.9 5.5-2.1 6.2-.5 1.3-.8 2.3.6 2.9.7.3 2.8.5 3.7.6zm.1 16.1l-.7.5-.5.4.4 1.3 1.7.7 1.1-.8-.1-1.7-1.9-.4zm0-2.1l.2 1.8 1.8.4.7-.2v-3.1l-2-1.2-.7 2.3zM31 76.5l1.1-.1 1-2.3-.4-1.6-4.9-.1v3.1l1.1 1.2 2.1-.2zm-6.8 1l.2.5 1.2.3.7.2 2.1-1.6-1-1.2-1.6.3-1.6 1.5zm-2.5-2.2l.7 1.7 1.6.3 1.6-1.7v-2.9l-1.8-.8-1.8 1.4-.3 2zm-1 0h.5l.4-1.9-1.5-.2-.3 2.1h.9zm-5-.7l1.1.8 2.6-.1.4-2.2-3.5.4-.6 1.1zm-2.7 0h2.4l.6-1.2-.3-1.4-2.2.2-.5 2.4zm-3.7-3.3c-.1.2-.7 1.8-.7 1.9l.5 1.8.7.2.8.2 2-.7.7-2.6-.3-1.2-1.2-.2-2.5.6zm.1-2.8l-.1 2.4 2.3-.6.2-2.2-1.3-.2-1.1.6zm-.7-4l-.1 2.9.6.8 1.1-.5.4-3.5-2 .3zm.1-1.8v1.4l2-.3-.2-1.5-1.8.4zM6.6 60l.5 1.8h.2c.4.2.9.3 1.3.5l2-.4 1.5-1.7-.8-1.8H8.4L6.6 60zm.5-4.4l-1.6 2 .5 2.1.3.1L8 58.1l.3-1.6-1.2-.9zm2.7-4.7l-2.2.9-.3 3.4 1.1 1h3.1l-.1-4.9-1.6-.4zm.8-3.1l-.5 2.8 1.5.4 3.3-3.3-2-.7-2.3.8zm-5.4-1.2L6 48l.2.5 1 .3 1-1.2-.4-1.9-1.8-.2-.8 1.1zm-3.3-2.9l.6 2.3 2.4.3 1-1.2 1.9.1.2-.6-1.5-1.3-1.3-.4-3.3.8zm-.1-3.2c-.3.5-.6.9-1 1.5.3.5.6.9.9 1.4l3.3-.8v-1.2l-3.2-.9zM5 37.6l-2.5.4-.5 2.2 3.2.8 1.3-.4L8 39.3l-.2-.6-1.9.1-.9-1.2zm2.2-2.3l-1 .3-.2.4-.7 1.4.7 1 1.8-.1.4-1.9-1-1.1zm3.2 1.1l-1.9.2-.4 1.8.2.7h3.1l1.2-2-2.2-.7zm-.4-3.1l.5 2.8 2.4.8 1.9-.6-3.3-3.3-1.5.3zm-2.7-4.6l.3 3.4 2.1.9 1.6-.4.1-4.9H8.3l-1 1zm-1-4.6l-.3.2-.4 2.1 1.5 2 1.2-1-.3-1.6-1.7-1.7zm2.4-2.5c-.4.3-1 .3-1.4.6h-.2L6.7 24l1.6 1.5h2.9l.8-1.8-1.5-1.7-1.8-.4zm0-1.8v1.4l1.7.4.2-1.5-1.9-.3zm.6-4.1l-.6.9.1 2.8 2 .3-.4-3.5-1.1-.5zm0-2.7l.1 2.5 1 .5 1.3-.2-.2-2.2-2.2-.6zm3.3-3.7l-1.9-.7-1.6.4-.4 1.8s.5 1.4.6 1.8l2.5.6L13 13l.2-1.2-.6-2.5zm2.8.2H13l.5 2.2 2.2.2.2-1.3-.5-1.1zm4-.8l-2.6-.1-1 .8.5.9 3.5.4-.4-2zm1.9 0l-1.4-.1.3 2 1.5-.2-.4-1.7zm2.7-2l-1.6.3-.7 1.7.3 1.8 1.7 1.5 1.8-.8V8.3L24 6.7zm2.5-1.2l-2 .5-.2.4L25.8 8l1.6.3 1-1.2-1.9-1.6zm5.6 2.1l-3.4-.4-1 1.2v3.1l4.9-.1.4-1.6-.9-2.2zm4.1 2.9l-2.4-.5h-.4l-.4 1.5 3.4 3.3.6-1.9-.8-2.4zm.5-2l-.3 1.8.8 2.3 2-1.2V8.3l-.7-.2-1.8.4zm.8-3.2l-1.8.8-.4 1.2 1.1.9 1.9-.4.2-1.8-1-.7zM40.3 2l-2.1.5-.4 2.5 1 .8-.1 1.9.7.3 1.3-1.5.4-1.3-.8-3.2zm3.3-.3L42.3.9l-1.6 1 .7 3.1h1.2l1-3.3zm2.6.8L44 1.9l-.1-.1-.8 3.3.4 1.3L44.8 8l.6-.2-.1-1.9 1.2-1-.3-2.4zm4.5 7.5l-2.7.6v-.2l-.8 2.5.6 1.9 3.4-3.3-.5-1.5zm4.7-2.7l-3.2.3c-.1.3-.9 2.2-1 2.3h-.1l.3 1.5 4.9.1V8.4l-.9-1.1zm4.5-1.4l-1.8-.4-2.2 1.7.9 1 1.5-.2L60 6.3l-.1-.4zM62 7l-1.6-.3-.1-.1-1.7 1.7v2.9l1.8.8 1.7-1.5.4-2.2L62 7zm2.3 1.7l-1.4.1-.4 1.8 1.5.2.3-2.1zm4.2.5l-.8-.6-3 .1-.4 2 3.5-.4.7-1.1zm2.7.2h-2.3l-.1-.1-.6 1.1.2 1.3 2.2-.2.6-2.1zm4.1-.5l-1.2-.3-.3-.1-2.1.8h-.1l-.6 2.5.2 1.2 1.2.2 2.6-.7.7-1.9-.4-1.7zm2 13.3c-.5-.2-1.1-.3-1.5-.6l-2.2.4-1.5 1.7.8 1.8h2.9l1.7-1.7-.2-1.6zm-1.7 14.4l-1.7-.2-2.4.8 1.2 2h3.1l.2-.7-.4-1.9zm2.6-1.1l-1.1-.3-1.1 1.4.4 1.6 1.8.1.8-1.1-.8-1.7zm3.7 2.4l-2.6-.4-1 1.2-1.9-.1-.2.6 1.5 1.3 1.3.5 3.4-.9-.5-2.2zm-1.8 8.4l1.8-.3.5-2.2-3.4-.9-1.3.4-1.5 1.3.2.6 1.9-.1 1 1.2h.8zM76 47.4l1.1 1.4 1-.3.8-1.8-.8-1.1-1.8.1-.3 1.7zm-4.4 27.2h.1l1.9.7 1.7-.3.4-1.7-.7-2-2.6-.7-1.2.2-.2 1.3.6 2.5zm-2.8 0h2.4l-.6-2.3-2.2-.3-.2 1.3.6 1.3zm-3.7.7l2.5.1.9-.7-.6-1.2-3.5-.4.4 2.2h.3zm-2.2-.1h1.5l-.4-2-1.5.2.4 1.8zm-2.5 2.1l1-.2.5-.1.6-1.5-.4-2.2-1.7-1.5-1.8.8v2.9l1.8 1.8zm-4.6-.6l2.2 1.7 1.9-.4.2-.4-1.7-1.7-1.6-.3-1 1.1zm-4.7-2.6h.1c.1.1.9 2 1 2.3l2.2.2.9.1 1.1-1.2v-3.1l-4.9.1-.4 1.6zm-3-.6l1.3.2 1.3.2.4-1.6-3.3-3.3-.6 1.9.9 2.6zM44 82.1l2.2-.5.3-2.5-1.2-1 .1-1.9-.6-.2-1.3 1.5-.4 1.3.9 3.3zm-3.4 0l1.6 1 1.4-.9-.9-3.4h-.6v1.4-1.4h-.6l-.9 3.3zm-2.8-3.2l.4 2.6 2.1.5.8-3.3-.4-1.3-1.3-1.5-.6.2.1 1.9-1.1.9zm13-69.5l.2-.5.8-1.9 3.6-.3s.1 0 .1-.1l2.4-1.7 2.7.6.2.7 1.9.5.6 1.6L68 8l1.2.9h2.3l2.1-.9c.1 0 .1-.1.2-.1l2.2.6.5 2.4-.7 1.9-.1 2.5.9 1.2-.1 4.7c.4.1 1.1.3 1.4.5.1 0 .1.1.1.1l.3 1.6.8.4.5 2.7-1.7 2.3-.1.1-.3 3.6-2.5 1.2-.4 2.1 1.1.2 1.1-1.5 1.9.5.8 1.9 2.9.5.6 2.7 1.2 1.9-1.2 2-.6 2.6-2.6.4-.9 2-1.9.5-1.2-1.5-1.1.2.4 2.1 2.5 1.2.3 3.6s0 .1.1.1l1.7 2.3-.5 2.7-.8.4-.4 1.6c0 .1-.1.1-.1.1-.4.2-1 .4-1.4.5l.1 4.7-.9 1.2.1 2.5.7 1.9-.5 2.4-2.2.6s-.1 0-.2-.1l-2.2-.8h-2.3L68 76l-4.7-.2-.6 1.6-1.9.5-.2.7-2.7.6-2.4-1.7-.1-.1-3.6-.4-1-2.4-2.3-.5-.2 1.2 1.5 1.2-.5 1.8-2 .9-.4 2.8-2.6.7-2 1.3-2.1-1.3-2.6-.7-.4-2.8-2-.9-.5-1.8 1.5-1.2-.2-1.2-2.3.5-1 2.4-3.6.3s-.1 0-.1.1l-2.4 1.7-2.6-.6-.2-.7-1.9-.5-.6-1.6-4.7.3-1.2-.9h-2.3l-2.2.9c-.1 0-.1.1-.2.1l-2.2-.6-.5-2.4.7-1.9.1-2.5-.8-1.2.1-4.7c-.4-.1-1.1-.3-1.4-.5-.1 0-.1-.1-.1-.1l-.3-1.6-.8-.4-.5-2.7 1.7-2.3.1-.1.2-3.7 2.5-1.2.4-2.1-1.2-.1-1.2 1.5-1.8-.5-.9-2-2.9-.4-.6-2.6L0 42l1.3-2 .6-2.6 2.9-.4.9-2 1.9-.5L8.7 36l1.1-.2-.4-2.1L7 32.6 6.7 29s0-.1-.1-.1l-1.7-2.3.5-2.7.8-.4.3-1.6c0-.1.1-.1.1-.1.4-.2 1-.4 1.4-.5v-4.8l.9-1.2-.1-2.5-.8-1.9.5-2.4 2.2-.6s.1 0 .2.1l2.2.8h2.3l1.2-.8 4.7.2.6-1.6 1.9-.5.2-.6 2.7-.6L29 6.6l.1.1 3.6.3 1 2.4 2.3.5.2-1.2-1.5-1.2.5-1.8 2-.9.4-2.8 2.6-.7L42.3 0l2.1 1.3 2.5.7.4 2.8 2 .9.5 1.8-1.5 1.2.2 1.2 2.3-.5z" fill-rule="evenodd" clip-rule="evenodd"/></g></symbol><symbol id="mail" viewBox="0 0 18 14"><style>.st0{fill:#848484}</style><path class="st0" d="M9 9.8L6.8 7.7.4 13.6c.2.3.6.4.9.4h15.4c.3 0 .7-.1.9-.4l-6.4-5.9L9 9.8z"/><path class="st0" d="M17.6.4c-.2-.3-.5-.4-.9-.4H1.3C1 0 .6.1.4.4l8.6 8 8.6-8zM0 1.2v11.7l6.2-5.8zm11.8 5.9l6.2 5.8V1.2z"/></symbol><symbol id="olive_icon" viewBox="0 0 82 66"><style>.st0{fill:#ed8c2b}</style><path class="st0" d="M9 23.6s2.5-3.3.9-8C8.2 11 4.4 9.2 4.4 9.2s-2.9 4-1.3 8.5C4.7 22.2 9 23.6 9 23.6zm7 2.4s4.4-.4 7-4.4c2.5-4.1.6-8.6.6-8.6s-4.1.9-6.7 5c-2.7 4.1-.9 8-.9 8zm.4 5.4c-2 4.5.2 8.1.2 8.1s4.3-1 6.3-5.3c2-4.4-.5-8.6-.5-8.6s-3.9 1.3-6 5.8zM26.5 35s-3.8 1.8-5.5 6.4c-1.6 4.7.9 8 .9 8s4.2-1.4 5.8-5.9c1.6-4.6-1.2-8.5-1.2-8.5zm3.1 24.5s3.7-2.6 3.9-7.4c.2-4.8-3.6-7.8-3.6-7.8s-3.2 2.8-3.4 7.8c-.2 4.9 3.1 7.4 3.1 7.4zm-15-44.9s3.9-1.3 5.1-6.1C20.8 3.7 18.6 0 18.6 0s-4.5 1.7-5.7 6.4c-1.1 4.7 1.7 8.2 1.7 8.2zM9 33.8s1.5-4-1.4-7.9C4.7 22 .5 21.4.5 21.4s-1.6 4.7 1.2 8.5C4.5 33.8 9 33.8 9 33.8zm3.2 10.5s.6-4.2-3.1-7.4-7.9-2.8-7.9-2.8-.5 4.9 3.1 8c3.6 3.2 7.9 2.2 7.9 2.2zm5 8.6s-.7-4.2-5.2-6.1c-4.5-1.9-8.3-.2-8.3-.2s.9 4.9 5.3 6.7c4.3 1.9 8.2-.4 8.2-.4zm2.1 3.6c-4.6-1.3-8.3.8-8.3.8s1.5 4.7 6 6c4.5 1.3 8.1-1.5 8.1-1.5s-1.1-3.9-5.8-5.3z"/><path class="st0" d="M15.1 17.5l-2.1-1c-.1.2-10.7 23.3 19.1 49.5l1.5-1.8C5.2 39.3 14.7 18.4 15.1 17.5zM73 23.6s-2.5-3.3-.9-8 5.5-6.4 5.5-6.4 2.9 4 1.3 8.5c-1.6 4.5-5.9 5.9-5.9 5.9zm-7 2.3s-4.4-.4-7-4.4c-2.5-4.1-.6-8.6-.6-8.6s4.1.9 6.7 5c2.7 4.2.9 8 .9 8zm-.4 5.4c2 4.5-.2 8.1-.2 8.1S61 38.4 59 34s.5-8.6.5-8.6 4 1.4 6.1 5.9zm-10.1 3.6s3.8 1.8 5.5 6.4c1.6 4.7-.9 8-.9 8s-4.2-1.4-5.8-5.9c-1.6-4.5 1.2-8.5 1.2-8.5zm-3.1 24.5s-3.7-2.6-3.9-7.4c-.2-4.8 3.6-7.8 3.6-7.8s3.2 2.8 3.4 7.8c.2 5-3.1 7.4-3.1 7.4zm15-44.8s-3.9-1.3-5.1-6.1C61.2 3.7 63.4 0 63.4 0s4.5 1.7 5.7 6.4c1.1 4.7-1.7 8.2-1.7 8.2zM73 33.8s-1.5-4 1.4-7.9c2.9-3.9 7.1-4.5 7.1-4.5s1.6 4.7-1.2 8.5c-2.8 3.9-7.3 3.9-7.3 3.9zm-3.2 10.4s-.6-4.2 3.1-7.4 7.9-2.8 7.9-2.8.5 4.9-3.1 8-7.9 2.2-7.9 2.2zm-5 8.7s.7-4.2 5.2-6.1c4.5-1.9 8.3-.2 8.3-.2s-.9 4.9-5.3 6.7c-4.3 1.9-8.2-.4-8.2-.4zm-2.1 3.6c4.6-1.3 8.3.8 8.3.8s-1.5 4.7-6 6c-4.5 1.3-8.1-1.5-8.1-1.5s1.1-4 5.8-5.3z"/><path class="st0" d="M66.9 17.5l2.1-1c.1.2 10.7 23.4-19.1 49.5l-1.5-1.8c28.4-24.9 18.9-45.9 18.5-46.7z"/></symbol><symbol id="pdf" viewBox="0 0 109 126"><style>.st2{fill:#cad1d8}</style><path d="M23.4 0c-4.3 0-7.8 3.5-7.8 7.9v110.2c0 4.3 3.5 7.9 7.8 7.9h77.9c4.3 0 7.8-3.5 7.8-7.9V31.5L77.9 0H23.4z" fill="#e2e5e7"/><path d="M85.6 31.5H109L77.9 0v23.6c0 4.4 3.5 7.9 7.7 7.9z" fill="#b0b7bd"/><path class="st2" d="M109 55.1L85.6 31.5H109z"/><path d="M93.4 102.4c0 2.2-1.8 3.9-3.9 3.9H3.9c-2.1 0-3.9-1.8-3.9-3.9V63c0-2.2 1.8-3.9 3.9-3.9h85.6c2.1 0 3.9 1.8 3.9 3.9v39.4z" fill="#f15642"/><path d="M17 74.6c0-1 .8-2.2 2.1-2.2h7.2c4 0 7.7 2.7 7.7 8 0 5-3.6 7.7-7.7 7.7h-5.2v4.2c0 1.4-.9 2.2-2 2.2-1 0-2.1-.8-2.1-2.2V74.6zm4.1 1.8v7.8h5.2c2.1 0 3.7-1.9 3.7-3.8 0-2.2-1.7-4-3.7-4h-5.2zm19 18.1c-1 0-2.1-.6-2.1-1.9V74.7c0-1.1 1.1-2 2.1-2h7.1c14.2 0 13.9 21.8.3 21.8h-7.4zM42 76.6v14.1h5.2c8.4 0 8.8-14.1 0-14.1H42zm24.1.2v5H74c1.1 0 2.2 1.1 2.2 2.2 0 1-1.1 1.9-2.2 1.9h-7.9v6.6c0 1.1-.8 1.9-1.9 1.9-1.4 0-2.2-.8-2.2-1.9V74.7c0-1.1.8-2 2.2-2h10.9c1.4 0 2.2.8 2.2 2 0 1-.8 2.1-2.2 2.1h-9z" fill="#fff"/><path class="st2" d="M89.5 106.3h-74v3.9h74c2.1 0 3.9-1.8 3.9-3.9v-3.9c0 2.1-1.7 3.9-3.9 3.9z"/></symbol><symbol id="pin" viewBox="0 0 32 40"><path d="M15.4 0C7.5.3.8 6.5.1 14.4-.1 16 0 17.5.3 19c0 0 0 .2.1.5.2 1.1.6 2.2 1.1 3.2 1.6 3.8 5.3 10.1 13.6 17 .5.4 1.3.4 1.8 0 8.3-6.9 12-13.2 13.6-17 .5-1 .8-2.1 1.1-3.2.1-.3.1-.5.1-.5.2-1 .3-2 .3-3C32 6.9 24.5-.3 15.4 0zm.6 23.9c-4.3 0-7.8-3.5-7.8-7.8s3.5-7.8 7.8-7.8 7.8 3.5 7.8 7.8-3.5 7.8-7.8 7.8z" fill="#ff7f00"/></symbol><symbol id="play-button" viewBox="0 0 60 60"><path d="M30-1C12.9-1-1 12.9-1 30s13.9 31 31 31 31-13.9 31-31S47.1-1 30-1zm16.1 31.9L23.3 46.4c-.2.1-.4.2-.6.2-.2 0-.3 0-.5-.1-.3-.2-.6-.5-.6-.9v-31c0-.4.2-.7.6-.9.3-.2.7-.2 1.1.1L46 29.3c.3.2.5.5.5.9s-.1.5-.4.7z" fill="#ff7f00"/></symbol><symbol id="right_arrow_orange"><path d="M22.76 8.07a.824.824 0 0 0 .24-.59.785.785 0 0 0-.24-.58L16.3.24a.8.8 0 0 0-1.14 0 .845.845 0 0 0 0 1.18l5.09 5.23H.81a.83.83 0 0 0 0 1.66h19.44l-5.09 5.24a.865.865 0 0 0 0 1.18.8.8 0 0 0 1.14 0z" fill="#ff7f00" fill-rule="evenodd"/></symbol><symbol id="sale" viewBox="0 0 35 35"><style>.st0{fill:#ff7f00}</style><path class="st0" d="M22.6 20.5c-1.1 0-2 .9-2 2s.9 2 2 2 2-.9 2-2-.9-2-2-2zM12.4 10.4c-1.1 0-2 .9-2 2s.9 2 2 2 2-.9 2-2c.1-1.1-.9-2-2-2z"/><path class="st0" d="M17.5 0C7.9 0 0 7.9 0 17.5 0 27.2 7.9 35 17.5 35 27.2 35 35 27.2 35 17.5 35 7.9 27.2 0 17.5 0zm-5.1 8.2c2.3 0 4.2 1.9 4.2 4.2 0 2.3-1.9 4.2-4.2 4.2-2.3 0-4.2-1.9-4.2-4.2 0-2.3 1.9-4.2 4.2-4.2zm-1.3 17.2c-.2.2-.5.3-.8.3-.3 0-.6-.1-.8-.3-.4-.4-.4-1.1 0-1.5L23.9 9.6c.4-.4 1.1-.4 1.5 0 .4.4.4 1.1 0 1.5L11.1 25.4zm11.5 1.4c-2.3 0-4.2-1.9-4.2-4.2 0-2.3 1.9-4.2 4.2-4.2 2.3 0 4.2 1.9 4.2 4.2 0 2.3-1.9 4.2-4.2 4.2z"/></symbol><symbol id="search" viewBox="0 0 20 20"><path d="M19.8 18.6L15 13.8c1.2-1.5 1.9-3.3 1.9-5.3 0-4.7-3.8-8.4-8.4-8.4C3.8 0 0 3.8 0 8.4s3.8 8.4 8.4 8.4c2 0 3.9-.7 5.3-1.9l4.8 4.8c.3.3.9.3 1.2 0 .4-.3.4-.8.1-1.1zM8.4 15.2c-3.7 0-6.8-3-6.8-6.8s3-6.8 6.8-6.8c3.7 0 6.8 3 6.8 6.8s-3 6.8-6.8 6.8z" fill="#848484"/></symbol><symbol id="size" viewBox="0 0 25 25"><path d="M.9 7.6c.5 0 .9-.4.9-.9V3l5.6 5.6c.1.1.3.2.6.2.2 0 .4-.1.6-.3.3-.3.3-.9 0-1.2L3 1.7h3.7c.5 0 .9-.4.9-.9S7.2 0 6.7 0H.9C.4 0 0 .4 0 .9v5.8c0 .5.4.9.9.9zm23.2 9.8c-.5 0-.9.4-.9.9V22l-5.8-5.8c-.3-.3-.9-.3-1.2 0-.3.3-.3.9 0 1.2l5.8 5.8h-3.7c-.5 0-.9.4-.9.9s.4.9.9.9h5.8c.5 0 .9-.4.9-.9v-5.8c0-.5-.4-.9-.9-.9zM7.5 16.2L1.7 22v-3.7c0-.5-.4-.9-.9-.9s-.8.4-.8.9v5.8c0 .5.4.9.9.9h5.8c.5 0 .9-.4.9-.9s-.4-.9-.9-.9H3l5.8-5.8c.3-.3.3-.9 0-1.2-.4-.3-.9-.3-1.3 0zM24.1 0h-5.8c-.5 0-.9.4-.9.9s.4.9.9.9H22l-5.6 5.6c-.3.3-.3.9 0 1.2.2.2.4.3.6.3.2 0 .4-.1.6-.3L23.3 3v3.7c0 .5.4.9.9.9s.9-.4.9-.9V.9c-.1-.5-.5-.9-1-.9z" fill="#ed8c2b"/></symbol><symbol id="size_small" viewBox="0 0 16 16"><path d="M.6 4.8c.3 0 .6-.2.6-.6V1.9l3.6 3.6c0 .1.2.2.3.2.1 0 .3-.1.4-.2.2-.2.2-.6 0-.8L1.9 1.1h2.4c.3 0 .6-.2.6-.6S4.6 0 4.3 0H.6C.2 0 0 .2 0 .6v3.7c0 .3.2.5.6.5zm14.8 6.4c-.3 0-.6.2-.6.6v2.4l-3.7-3.7c-.2-.2-.6-.2-.8 0-.2.2-.2.6 0 .8L14 15h-2.4c-.3 0-.6.2-.6.6 0 .3.2.6.6.6h3.7c.3 0 .6-.2.6-.6v-3.7c.1-.5-.1-.7-.5-.7zm-10.6-.8l-3.7 3.7v-2.4c0-.3-.2-.6-.6-.6s-.5.3-.5.6v3.7c0 .4.2.6.6.6h3.7c.3 0 .6-.2.6-.6 0-.3-.2-.6-.6-.6H1.9l3.7-3.7c.2-.2.2-.6 0-.8-.2-.1-.6-.1-.8.1zM15.4 0h-3.7c-.3 0-.6.2-.6.6s.2.6.6.6h2.4l-3.6 3.6c-.2.2-.2.6 0 .8.1.1.3.2.4.2.1 0 .3-.1.4-.2L14.9 2v2.4c0 .3.2.6.6.6s.5-.4.5-.7V.6c0-.4-.2-.6-.6-.6z" fill="#ed8c2b"/></symbol><symbol id="tile_icon" viewBox="0 0 66 66"><path d="M29.2 1.6L1.6 29.2c-2.1 2.1-2.1 5.5 0 7.7l27.6 27.6c2.1 2.1 5.5 2.1 7.7 0l27.6-27.6c2.1-2.1 2.1-5.5 0-7.7L36.8 1.6c-2.1-2.1-5.5-2.1-7.6 0zM3.9 34.5c-.8-.8-.8-2.2 0-3.1l12.6-12.6 5.1 5.1v18.2l-5.1 5.1L3.9 34.5zm43.3 15L34.5 62.1c-.8.8-2.2.8-3.1 0L18.8 49.5l5.1-5.1h18.2l5.1 5.1zm-22.3-8.4V24.9h16.3v16.3H24.9zm37.2-9.6c.8.8.8 2.2 0 3.1L49.5 47.2l-5.1-5.1V23.9l5.1-5.1 12.6 12.7zm-14.9-15l-5.1 5.1H23.9l-5.1-5.1L31.5 3.9c.8-.8 2.2-.8 3.1 0l12.6 12.6z" fill="#ed8c2b"/></symbol><symbol id="trinet" viewBox="0 0 28 25"><style>.st0{fill-rule:evenodd;clip-rule:evenodd;fill:#a6a6a6}</style><path class="st0" d="M13.9 13.4c-1.4 0-2.5 1.2-2.5 2.6 0 1.5 1.2 2.7 2.5 2.7 1.4 0 2.5-1.2 2.5-2.7.1-1.4-1.1-2.6-2.5-2.6zm0 0zm.1 2.4c-.2-.1.2-1.9.2-1.9s.8.2 1.3 1c0 .1-1.2 1-1.5.9z"/><path class="st0" d="M11.2 15.1c.2-.6.6-1 1.2-1.4-.1-.1-.3-.1-.5-.1-.5 0-.9.3-.9.9-.1.3 0 .5.2.6zm2.7 3.6c-.3 0-.7 0-.9-.1 0 .5.5.8.9.8.5 0 .8-.3.9-.8-.3.1-.5.1-.9.1zm2.8-3.6c.1-.1.2-.3.2-.6 0-.6-.5-.9-.9-.9-.1 0-.3 0-.5.1.6.4 1 .9 1.2 1.4z"/><path class="st0" d="M16.8 14.3l-.3-.4.5-.3.2.3zm-5.5-.6l-.3.6-.4-.6.1-.1zm2.3 5.6h.6l-.2.7h-.3zm3.1-2.9c-.1.8-.7 1.5-1.3 2 1.3 1.3 3.1 2.8 4.8 4 1-1 1.7-2.2 2.2-3.6-1.8-1-4-1.9-5.7-2.4zm8.2 3.6c-.2-.1-.5-.3-.8-.5-.5 1.4-1.3 2.7-2.2 3.8.2.1.6.3.8.5 2.7 1.5 4.4 1.4 5 .3.8-1.3.3-2.3-2.8-4.1zm-12.6-1.6c-.6-.6-1.2-1.3-1.2-2.1-2 .6-4.6 1.7-6.6 2.7.5 1.4 1.3 2.7 2.2 3.8 1.9-1.3 4.1-3 5.6-4.4zm-8.6 1c-.3.1-.6.2-.8.5-2.5 1.5-3.2 3-2.7 4.2.6 1 2.3 1.2 4.8-.3.2-.1.6-.3.8-.5-1-1.1-1.7-2.3-2.1-3.9zM13.9 5.1c.8 0 1.5 0 2.3.2v-.9c0-3-1-4.4-2.2-4.4-1.3 0-2.3 1.4-2.3 4.4v.8c.7-.1 1.4-.1 2.2-.1zm0 .4c-.8 0-1.5.1-2.1.2v.9c.7 0 1.6 0 2.3.2-.7.2-1.6.5-2.3.7.2 2 .5 4.2.9 5.8.3-.1.7-.2 1.2-.2s.9.1 1.3.3c.6-2.2.9-5.5 1-7.8-.8 0-1.5-.1-2.3-.1zm6.8 17.1s1.3-.9 1.8-2c-.5 1.3-1.1 2.4-1.1 2.4l-.7-.4z"/></symbol><symbol id="vk" viewBox="0 0 18 12"><path d="M9.6 12c.6 0 .6-1 .6-1.3 0-.7.6-1.3 1.2-1.3s1.6 1.1 2.4 2c.6.6.6.6 1.2.6h1.8s1.2-.1 1.2-1.3c0-.4-.4-1.1-1.8-2.7-1.2-1.3-1.8-.6 0-3.3C17.3 3 18.1 1.5 18 1.1 17.9.7 14.8 0 14.4.6c-1.2 2-1.4 2.5-1.8 3.3-.6 1.3-.7 2-1.2 2s-.6-1.3-.6-2c0-2.2.3-3.8-.6-4H8.4c-1 0-1.8.7-1.8.7s-.7.7-.6.7c.2 0 1.2-.3 1.2.7v1.3S7.2 6 6.6 6s-1.8-2.7-3-4.7C3.1.5 3 .7 2.4.7H.6c-.6 0-.7.4-.6.6 1.2 3.3 2.1 5.4 4.3 8.1C6.4 11.8 7.8 11.9 9 12h.6z" fill="#848484"/></symbol><symbol id="vk_white" viewBox="0 0 30 18"><path d="M16 18c1 0 1-1.4 1-2 0-1 1-2 2-2s2.7 1.7 4 3c1 1 1 1 2 1h3s2-.1 2-2c0-.6-.7-1.7-3-4-2-2-3-1 0-5 1.8-2.5 3.2-4.7 2.9-5.3-.2-.6-5.3-1.6-5.9-.7-2 3-2.4 3.7-3 5-1 2-1.1 3-2 3-.9 0-1-1.9-1-3 0-3.3.5-5.6-1-6h-3c-1.6 0-3 1-3 1s-1.2 1-1 1c.3 0 2-.4 2 1v2s0 4-1 4-3-4-5-7C5.2.8 5 1 4 1H1c-1 0-1.1.7-1 1 2 5 3.4 8.1 7.2 12.1 3.5 3.6 5.8 3.8 7.8 3.9h1z"/></symbol><symbol id="width" viewBox="0 0 25 23"><path d="M24.4 9.9h-3.1v-.7c0-.4-.2-.5-.5-.5-.1 0-.2 0-.3.1L17.3 11c-.2.1-.2.3-.2.5s.1.4.2.5l3.1 2.3c.1.1.2.1.3.1.1 0 .3-.1.4-.2.1-.1.1-.2.1-.3v-.7h3.1c.4 0 .6-.3.6-.7v-1.9c.1-.4-.2-.7-.5-.7zM7.7 11L4.5 8.7c-.1 0-.2-.1-.3-.1-.2 0-.4.2-.4.6v.7H.6c-.3 0-.6.3-.6.6v1.9c0 .4.3.7.6.7h3.1v.7c0 .4.2.5.5.5.1 0 .2 0 .3-.1l3.1-2.3c.2-.1.2-.3.2-.5.1-.1 0-.3-.1-.4zm6.1-11h-2.6c-.4 0-.6.3-.6.7v21.7c0 .4.3.7.6.7h2.6c.4 0 .6-.3.6-.7V.7c.1-.4-.2-.7-.6-.7z" fill="#ed8c2b"/></symbol><symbol id="width_small" viewBox="0 0 18 16"><path d="M17.5 6.9h-2.3v-.5c.1-.3-.1-.4-.2-.4s-.2 0-.2.1l-2.3 1.6c-.1.1-.2.2-.2.3 0 .1.1.2.2.3l2.3 1.6c.1.1.2.1.2.1.1 0 .2 0 .3-.1 0-.1.1-.1.1-.2v-.6h2.3c.3 0 .5-.2.5-.5V7.3c-.2-.2-.4-.4-.7-.4zm-12 .8L3.3 6.1C3.2 6 3.1 6 3 6c-.1 0-.3.1-.3.4v.5H.5c-.3 0-.5.2-.5.4v1.3c0 .3.2.5.5.5h2.3v.5c-.1.2.1.4.2.4s.2 0 .2-.1l2.3-1.6c.1-.1.2-.2.2-.3 0-.1-.1-.3-.2-.3zM9.9 0H8.1c-.3 0-.5.2-.5.5v15.1c0 .3.2.5.5.5H10c.3 0 .5-.2.5-.5V.5c-.1-.3-.3-.5-.6-.5z" fill="#ed8c2b"/></symbol></svg>
