<svg id="Capa_1" xmlns="http://www.w3.org/2000/svg" viewBox="0 0 44 38"><style>.st0{fill:#ffbf7f}</style><g id="XMLID_175_"><path id="XMLID_180_" class="st0" d="M36.3 9.2h3.2v1.4h-4.6V4.5h-7.6v4.6h3.1v1.5H26V4.5h-7.7v4.7h3.2v1.4h-4.8V4.5H9.1v4.6h3.1v1.5H7.7V4.5H0v4.7h3.2v3h1.5V7.6H1.5V6h4.7v6.1h7.5V7.5h-3.1V6h4.6v6.1H23V7.6h-3.2V6h4.7v6.1H32V7.5h-3.1V6h4.6v6.1h7.6V7.6h-3.2V6h4.7v6.1H44V4.5h-7.7v4.7z"/><path id="XMLID_179_" class="st0" d="M0 0h44v1.5H0z"/><path id="XMLID_178_" class="st0" d="M36.3 30.6h3.2V32h-4.6v-6.1h-7.6v4.6h3.1V32H26v-6.1h-7.7v4.7h3.2V32h-4.8v-6.1H9.1v4.6h3.1V32H7.7v-6.1H0v4.7h3.2v3h1.5V29H1.5v-1.6h4.7v6.1h7.5v-4.6h-3.1v-1.5h4.6v6.1H23V29h-3.2v-1.6h4.7v6.1H32v-4.6h-3.1v-1.5h4.6v6.1h7.6V29h-3.2v-1.6h4.7v6.1H44v-7.6h-7.7v4.7z"/><path id="XMLID_177_" class="st0" d="M0 15.1h44v7.8H0z"/><path id="XMLID_176_" class="st0" d="M0 36.5h44V38H0z"/></g></svg>