<svg xmlns="http://www.w3.org/2000/svg" viewBox="0 0 32 38"><path d="M1.5 24c2.2-1.3 3.4.2 5.8 1.3 2.1.9 4.4 1 4.6-.2.3-1.9.3-2.8.3-5.4 0-2.1-.7-6.7-1.2-10.2-.6-4.2-.9-6.7 1.3-6.9 2-.2 2.1.9 2.9 6.7.6 4.4 1.5 7.5 2 7.4s-.2-4.1-.4-8.2c-.3-7.3.1-8.4 2-8.4 1.6 0 2 1 2.2 8.4.1 3.8.5 7.9.9 7.9.5 0 .9-3.8.8-7.8-.1-7.6 1.2-7 2.1-7 .8 0 2.2.2 2.2 7.5 0 4.2 0 7.9.8 7.9.4 0 1-3.4 1-6.8 0-5.6 1.1-5.6 2-5.6.9 0 1.3 1 1.4 6.6 0 4.4-.5 10.7-.5 14.5 0 9.2-3.1 9.3-3.1 12.4h-13c-.4-.9-1.3-1.4-3.4-3.5-2.1-2.1-6.9-6.2-10.7-6.9-2.5-.7-1.4-2.9 0-3.7z" fill="#ffbf7f"/></svg>