<svg id="Layer_1" xmlns="http://www.w3.org/2000/svg" viewBox="0 0 30 30"><style>.st0{fill:#fff}</style><path class="st0" d="M15 7.2c-4.2 0-7.7 3.4-7.7 7.7s3.4 7.7 7.7 7.7 7.7-3.5 7.7-7.7-3.5-7.7-7.7-7.7zm0 12.7c-2.7 0-5-2.2-5-5s2.2-5 5-5 5 2.2 5 5-2.3 5-5 5z"/><circle class="st0" cx="23" cy="7" r="1.8"/><path class="st0" d="M27.6 2.5C26 .8 23.8 0 21.2 0H8.8C3.5 0 0 3.5 0 8.8v12.4c0 2.6.8 4.8 2.5 6.5C4.2 29.2 6.4 30 8.8 30h12.3c2.6 0 4.8-.8 6.4-2.4 1.6-1.6 2.5-3.8 2.5-6.4V8.8c0-2.6-.8-4.7-2.4-6.3zm-.3 18.7c0 1.9-.7 3.4-1.8 4.4s-2.6 1.6-4.4 1.6H8.8c-1.8 0-3.3-.5-4.4-1.6-1.1-1.1-1.6-2.6-1.6-4.5V8.8c0-1.8.5-3.3 1.6-4.4 1-1 2.6-1.6 4.4-1.6h12.5c1.8 0 3.3.5 4.4 1.6 1 1.1 1.6 2.6 1.6 4.4v12.4z"/></svg>