<svg id="Layer_1" xmlns="http://www.w3.org/2000/svg" viewBox="0 0 35 35"><style>.st0{fill:#ff7f00}</style><path class="st0" d="M22.6 20.5c-1.1 0-2 .9-2 2s.9 2 2 2 2-.9 2-2-.9-2-2-2zM12.4 10.4c-1.1 0-2 .9-2 2s.9 2 2 2 2-.9 2-2c.1-1.1-.9-2-2-2z"/><path class="st0" d="M17.5 0C7.9 0 0 7.9 0 17.5 0 27.2 7.9 35 17.5 35 27.2 35 35 27.2 35 17.5 35 7.9 27.2 0 17.5 0zm-5.1 8.2c2.3 0 4.2 1.9 4.2 4.2 0 2.3-1.9 4.2-4.2 4.2-2.3 0-4.2-1.9-4.2-4.2 0-2.3 1.9-4.2 4.2-4.2zm-1.3 17.2c-.2.2-.5.3-.8.3-.3 0-.6-.1-.8-.3-.4-.4-.4-1.1 0-1.5L23.9 9.6c.4-.4 1.1-.4 1.5 0 .4.4.4 1.1 0 1.5L11.1 25.4zm11.5 1.4c-2.3 0-4.2-1.9-4.2-4.2 0-2.3 1.9-4.2 4.2-4.2 2.3 0 4.2 1.9 4.2 4.2 0 2.3-1.9 4.2-4.2 4.2z"/></svg>