<svg xmlns="http://www.w3.org/2000/svg" viewBox="0 0 25 25"><path d="M.9 7.6c.5 0 .9-.4.9-.9V3l5.6 5.6c.1.1.3.2.6.2.2 0 .4-.1.6-.3.3-.3.3-.9 0-1.2L3 1.7h3.7c.5 0 .9-.4.9-.9S7.2 0 6.7 0H.9C.4 0 0 .4 0 .9v5.8c0 .5.4.9.9.9zm23.2 9.8c-.5 0-.9.4-.9.9V22l-5.8-5.8c-.3-.3-.9-.3-1.2 0-.3.3-.3.9 0 1.2l5.8 5.8h-3.7c-.5 0-.9.4-.9.9s.4.9.9.9h5.8c.5 0 .9-.4.9-.9v-5.8c0-.5-.4-.9-.9-.9zM7.5 16.2L1.7 22v-3.7c0-.5-.4-.9-.9-.9s-.8.4-.8.9v5.8c0 .5.4.9.9.9h5.8c.5 0 .9-.4.9-.9s-.4-.9-.9-.9H3l5.8-5.8c.3-.3.3-.9 0-1.2-.4-.3-.9-.3-1.3 0zM24.1 0h-5.8c-.5 0-.9.4-.9.9s.4.9.9.9H22l-5.6 5.6c-.3.3-.3.9 0 1.2.2.2.4.3.6.3.2 0 .4-.1.6-.3L23.3 3v3.7c0 .5.4.9.9.9s.9-.4.9-.9V.9c-.1-.5-.5-.9-1-.9z" fill="#ed8c2b"/></svg>