<svg xmlns="http://www.w3.org/2000/svg" viewBox="0 0 25 23"><path d="M24.4 9.9h-3.1v-.7c0-.4-.2-.5-.5-.5-.1 0-.2 0-.3.1L17.3 11c-.2.1-.2.3-.2.5s.1.4.2.5l3.1 2.3c.1.1.2.1.3.1.1 0 .3-.1.4-.2.1-.1.1-.2.1-.3v-.7h3.1c.4 0 .6-.3.6-.7v-1.9c.1-.4-.2-.7-.5-.7zM7.7 11L4.5 8.7c-.1 0-.2-.1-.3-.1-.2 0-.4.2-.4.6v.7H.6c-.3 0-.6.3-.6.6v1.9c0 .4.3.7.6.7h3.1v.7c0 .4.2.5.5.5.1 0 .2 0 .3-.1l3.1-2.3c.2-.1.2-.3.2-.5.1-.1 0-.3-.1-.4zm6.1-11h-2.6c-.4 0-.6.3-.6.7v21.7c0 .4.3.7.6.7h2.6c.4 0 .6-.3.6-.7V.7c.1-.4-.2-.7-.6-.7z" fill="#ed8c2b"/></svg>